{"glyphs":{"0":{"ha":739,"x_min":131,"x_max":606,"o":"m 369 -13 q 192 96 253 -13 q 131 414 131 205 l 131 591 q 192 913 131 803 q 370 1023 253 1023 q 546 913 486 1023 q 606 591 606 803 l 606 414 q 545 96 606 205 q 369 -13 485 -13 m 369 39 q 505 133 462 39 q 548 428 548 227 l 548 577 q 505 876 548 780 q 369 971 462 971 q 232 876 275 971 q 189 577 189 780 l 189 428 q 232 133 189 227 q 369 39 275 39 m 369 434 q 330 446 345 434 q 316 487 316 457 l 316 521 q 330 564 316 553 q 369 574 345 574 q 407 564 393 574 q 422 521 422 553 l 422 487 q 407 446 422 457 q 369 434 393 434 z "},"1":{"ha":739,"x_min":162,"x_max":635,"o":"m 181 0 l 181 52 l 389 52 l 389 870 l 381 870 q 302 744 360 793 q 170 694 244 694 l 162 756 q 316 826 253 756 q 391 1010 379 896 l 446 1010 l 446 52 l 635 52 l 635 0 l 181 0 z "},"2":{"ha":739,"x_min":131,"x_max":606,"o":"m 131 0 l 131 215 q 167 384 131 322 q 278 467 202 447 l 429 515 q 515 574 490 534 q 539 686 539 614 l 539 763 q 499 922 539 872 q 369 971 460 971 q 244 918 282 971 q 198 735 207 865 l 141 740 q 203 952 148 881 q 367 1023 258 1023 q 539 960 481 1023 q 596 775 596 898 l 596 667 q 557 537 596 585 q 443 465 518 489 l 295 418 q 215 353 241 402 q 189 217 189 304 l 189 52 l 606 52 l 606 0 l 131 0 z "},"3":{"ha":739,"x_min":122,"x_max":606,"o":"m 360 -13 q 182 47 236 -13 q 122 240 129 106 l 179 246 q 227 83 189 129 q 360 37 265 37 q 505 87 462 37 q 548 261 548 138 l 548 321 q 508 470 548 427 q 369 514 467 514 l 289 514 l 289 566 l 369 566 q 492 600 456 566 q 529 715 529 634 l 529 780 q 491 930 529 886 q 360 973 453 973 q 241 932 277 973 q 198 783 206 890 l 141 789 q 199 967 146 912 q 360 1023 251 1023 q 532 965 476 1023 q 587 780 587 908 l 587 715 q 553 594 587 639 q 457 543 519 549 l 457 534 q 568 472 529 527 q 606 321 606 418 l 606 261 q 549 52 606 116 q 360 -13 491 -13 z "},"4":{"ha":739,"x_min":122,"x_max":653,"o":"m 181 351 l 482 351 l 482 937 l 181 351 m 653 299 l 539 299 l 539 0 l 482 0 l 482 299 l 122 299 l 122 351 l 460 1010 l 539 1010 l 539 351 l 653 351 l 653 299 z "},"5":{"ha":739,"x_min":122,"x_max":606,"o":"m 360 -13 q 187 52 242 -13 q 122 249 131 116 l 179 255 q 230 88 191 138 q 361 39 269 39 q 503 93 457 39 q 548 260 548 148 l 548 346 q 513 492 548 444 q 402 539 477 539 l 150 539 l 150 1010 l 568 1010 l 568 958 l 208 958 l 208 591 l 402 591 q 554 531 503 591 q 606 357 606 471 l 606 247 q 543 54 606 120 q 360 -13 480 -13 z "},"6":{"ha":739,"x_min":131,"x_max":606,"o":"m 369 -13 q 191 68 251 -13 q 131 336 131 149 l 131 668 q 193 936 131 848 q 371 1023 254 1023 q 525 974 473 1023 q 593 816 577 926 l 534 804 q 485 937 520 903 q 369 971 449 971 q 231 900 273 971 q 189 668 189 830 l 189 497 l 201 497 q 267 570 222 544 q 383 596 312 596 q 551 526 496 596 q 606 343 606 456 l 606 290 q 544 66 606 145 q 369 -13 482 -13 m 367 39 q 503 100 458 39 q 547 288 547 160 l 547 330 q 503 492 547 439 q 367 544 458 544 q 233 492 277 544 q 189 330 189 439 l 189 288 q 233 100 189 160 q 367 39 277 39 z "},"7":{"ha":739,"x_min":131,"x_max":606,"o":"m 293 0 q 387 509 342 304 q 554 960 432 715 l 131 960 l 131 1010 l 606 1010 l 606 960 q 435 450 479 664 q 360 0 391 236 l 293 0 z "},"8":{"ha":739,"x_min":131,"x_max":606,"o":"m 369 -13 q 189 52 247 -13 q 131 249 131 117 l 131 302 q 168 464 131 408 q 269 528 205 520 l 269 537 q 183 591 216 544 q 150 727 150 638 l 150 793 q 204 966 150 909 q 369 1023 258 1023 q 533 966 480 1023 q 587 793 587 909 l 587 727 q 554 591 587 638 q 468 537 521 544 l 468 528 q 569 464 533 520 q 606 302 606 408 l 606 249 q 548 52 606 117 q 369 -13 490 -13 m 369 553 q 493 591 457 553 q 529 721 529 629 l 529 780 q 493 930 529 886 q 369 973 457 973 q 244 930 280 973 q 208 780 208 886 l 208 721 q 244 591 208 629 q 369 553 280 553 m 369 37 q 508 87 467 37 q 548 261 548 138 l 548 308 q 508 458 548 414 q 369 501 467 501 q 230 458 270 501 q 189 308 189 414 l 189 261 q 230 87 189 138 q 369 37 270 37 z "},"9":{"ha":739,"x_min":131,"x_max":606,"o":"m 370 466 q 504 518 461 466 q 548 681 548 571 l 548 722 q 504 910 548 850 q 370 971 461 971 q 235 910 279 971 q 191 722 191 850 l 191 681 q 235 518 191 571 q 370 466 279 466 m 367 -13 q 212 36 264 -13 q 144 194 160 85 l 203 208 q 253 75 218 111 q 369 39 288 39 q 506 110 465 39 q 548 342 548 181 l 548 506 l 537 506 q 467 438 514 462 q 354 414 420 414 q 189 480 247 414 q 131 667 131 545 l 131 720 q 193 944 131 865 q 369 1023 255 1023 q 547 942 489 1023 q 606 674 606 861 l 606 342 q 546 77 606 167 q 367 -13 486 -13 z "},"\u0000":{"ha":0,"x_min":0,"x_max":0,"o":""},"\r":{"ha":0,"x_min":0,"x_max":0,"o":""}," ":{"ha":739,"x_min":0,"x_max":0,"o":""}," ":{"ha":739,"x_min":0,"x_max":0,"o":""},"A":{"ha":739,"x_min":93,"x_max":645,"o":"m 495 370 l 369 895 l 241 370 l 495 370 m 585 0 l 508 318 l 229 318 l 150 0 l 93 0 l 345 1010 l 393 1010 l 645 0 l 585 0 z "},"À":{"ha":739,"x_min":93,"x_max":645,"o":"m 93 0 m 495 370 l 369 895 l 241 370 l 495 370 m 585 0 l 508 318 l 229 318 l 150 0 l 93 0 l 345 1010 l 393 1010 l 645 0 l 585 0 m 389 1136 l 212 1389 l 303 1389 l 438 1136 l 389 1136 z "},"Á":{"ha":739,"x_min":93,"x_max":645,"o":"m 93 0 m 495 370 l 369 895 l 241 370 l 495 370 m 585 0 l 508 318 l 229 318 l 150 0 l 93 0 l 345 1010 l 393 1010 l 645 0 l 585 0 m 297 1136 l 433 1389 l 523 1389 l 346 1136 l 297 1136 z "},"Â":{"ha":739,"x_min":93,"x_max":645,"o":"m 93 0 m 495 370 l 369 895 l 241 370 l 495 370 m 585 0 l 508 318 l 229 318 l 150 0 l 93 0 l 345 1010 l 393 1010 l 645 0 l 585 0 m 210 1167 l 186 1196 l 350 1410 l 389 1410 l 553 1196 l 530 1167 l 369 1356 l 210 1167 z "},"Ã":{"ha":739,"x_min":93,"x_max":645,"o":"m 93 0 m 495 370 l 369 895 l 241 370 l 495 370 m 585 0 l 508 318 l 229 318 l 150 0 l 93 0 l 345 1010 l 393 1010 l 645 0 l 585 0 m 451 1149 q 397 1174 419 1149 q 350 1266 375 1198 q 318 1338 332 1319 q 288 1356 304 1356 q 248 1312 261 1356 q 236 1176 235 1268 l 236 1162 l 189 1162 l 189 1181 q 215 1346 189 1290 q 289 1402 240 1402 q 343 1379 322 1402 q 388 1292 365 1356 q 423 1215 409 1235 q 452 1194 437 1194 q 491 1239 477 1194 q 504 1375 504 1283 l 504 1389 l 551 1389 l 551 1370 q 525 1205 551 1260 q 451 1149 500 1149 z "},"Ä":{"ha":739,"x_min":93,"x_max":645,"o":"m 93 0 m 495 370 l 369 895 l 241 370 l 495 370 m 585 0 l 508 318 l 229 318 l 150 0 l 93 0 l 345 1010 l 393 1010 l 645 0 l 585 0 m 269 1177 q 234 1186 247 1177 q 221 1221 221 1194 l 221 1230 q 234 1267 221 1258 q 269 1277 247 1277 q 302 1267 289 1277 q 316 1230 316 1258 l 316 1221 q 302 1186 316 1194 q 269 1177 289 1177 m 471 1177 q 437 1186 451 1177 q 424 1221 424 1194 l 424 1230 q 437 1267 424 1258 q 471 1277 451 1277 q 506 1267 492 1277 q 519 1230 519 1258 l 519 1221 q 505 1186 519 1194 q 471 1177 491 1177 z "},"Å":{"ha":739,"x_min":93,"x_max":645,"o":"m 93 0 m 495 370 l 369 895 l 241 370 l 495 370 m 585 0 l 508 318 l 229 318 l 150 0 l 93 0 l 345 1010 l 393 1010 l 645 0 l 585 0 m 370 1117 q 270 1161 306 1117 q 234 1288 234 1205 l 234 1354 q 270 1483 234 1438 q 370 1528 306 1528 q 470 1483 434 1528 q 506 1354 506 1438 l 506 1288 q 470 1161 506 1205 q 370 1117 434 1117 m 370 1165 q 434 1194 414 1165 q 455 1288 455 1223 l 455 1354 q 434 1449 455 1419 q 370 1480 414 1480 q 306 1449 326 1480 q 285 1354 285 1419 l 285 1288 q 306 1194 285 1223 q 370 1165 326 1165 z "},"Ā":{"ha":739,"x_min":93,"x_max":645,"o":"m 93 0 m 495 370 l 369 895 l 241 370 l 495 370 m 585 0 l 508 318 l 229 318 l 150 0 l 93 0 l 345 1010 l 393 1010 l 645 0 l 585 0 m 199 1240 l 199 1292 l 540 1292 l 540 1240 l 199 1240 z "},"Ă":{"ha":739,"x_min":93,"x_max":645,"o":"m 93 0 m 495 370 l 369 895 l 241 370 l 495 370 m 585 0 l 508 318 l 229 318 l 150 0 l 93 0 l 345 1010 l 393 1010 l 645 0 l 585 0 m 370 1128 q 225 1194 278 1128 q 172 1386 173 1261 l 230 1386 q 265 1229 231 1278 q 370 1181 298 1181 q 475 1229 442 1181 q 510 1386 509 1278 l 568 1386 q 515 1194 567 1261 q 370 1128 462 1128 z "},"Ą":{"ha":739,"x_min":93,"x_max":694,"o":"m 93 0 m 495 370 l 369 895 l 241 370 l 495 370 m 585 0 l 508 318 l 229 318 l 150 0 l 93 0 l 345 1010 l 393 1010 l 645 0 l 585 0 m 614 -271 q 521 -234 557 -271 q 486 -135 486 -197 q 517 -34 486 -81 q 598 42 548 13 l 614 29 q 559 -38 576 -3 q 542 -120 542 -73 q 561 -196 542 -173 q 621 -220 580 -220 q 658 -217 640 -220 q 694 -210 677 -215 l 694 -261 q 654 -269 677 -266 q 614 -271 631 -271 z "},"Ǻ":{"ha":739,"x_min":93,"x_max":645,"o":"m 93 0 m 495 370 l 369 895 l 241 370 l 495 370 m 585 0 l 508 318 l 229 318 l 150 0 l 93 0 l 345 1010 l 393 1010 l 645 0 l 585 0 m 370 1117 q 270 1161 306 1117 q 234 1288 234 1205 l 234 1354 q 270 1483 234 1438 q 370 1528 306 1528 q 470 1483 434 1528 q 506 1354 506 1438 l 506 1288 q 470 1161 506 1205 q 370 1117 434 1117 m 370 1165 q 434 1194 414 1165 q 455 1288 455 1223 l 455 1354 q 434 1449 455 1419 q 370 1480 414 1480 q 306 1449 326 1480 q 285 1354 285 1419 l 285 1288 q 306 1194 285 1223 q 370 1165 326 1165 m 355 1515 l 491 1768 l 581 1768 l 404 1515 l 355 1515 z "},"B":{"ha":739,"x_min":150,"x_max":610,"o":"m 150 0 l 150 1010 l 374 1010 q 528 948 476 1010 q 580 773 580 886 l 580 716 q 552 599 580 648 q 476 539 524 551 l 476 530 q 573 463 537 523 q 610 314 610 404 l 610 258 q 554 67 610 134 q 390 0 497 0 l 150 0 m 208 554 l 376 554 q 489 596 455 554 q 524 735 524 638 l 524 770 q 489 915 524 871 q 376 958 455 958 l 208 958 l 208 554 m 208 52 l 395 52 q 515 100 479 52 q 552 258 552 148 l 552 298 q 515 455 552 408 q 395 503 479 503 l 208 503 l 208 52 z "},"":{"ha":739,"x_min":150,"x_max":610,"o":"m 150 0 l 150 1010 l 374 1010 q 528 948 476 1010 q 580 773 580 886 l 580 716 q 552 599 580 648 q 476 539 524 551 l 476 530 q 573 463 537 523 q 610 314 610 404 l 610 258 q 554 67 610 134 q 390 0 497 0 l 150 0 m 208 554 l 376 554 q 489 596 455 554 q 524 735 524 638 l 524 770 q 489 915 524 871 q 376 958 455 958 l 208 958 l 208 554 m 208 52 l 395 52 q 515 100 479 52 q 552 258 552 148 l 552 298 q 515 455 552 408 q 395 503 479 503 l 208 503 l 208 52 z "},"C":{"ha":739,"x_min":131,"x_max":622,"o":"m 379 -13 q 194 73 258 -13 q 131 336 131 158 l 131 669 q 194 934 131 846 q 379 1023 258 1023 q 555 948 494 1023 q 622 715 616 872 l 564 710 q 513 913 556 855 q 379 971 470 971 q 233 898 277 971 q 189 668 189 826 l 189 337 q 233 110 189 182 q 379 39 277 39 q 520 100 477 39 q 564 295 562 160 l 622 290 q 560 66 621 144 q 379 -13 499 -13 z "},"Ç":{"ha":739,"x_min":131,"x_max":622,"o":"m 131 0 m 379 -13 q 194 73 258 -13 q 131 336 131 158 l 131 669 q 194 934 131 846 q 379 1023 258 1023 q 555 948 494 1023 q 622 715 616 872 l 564 710 q 513 913 556 855 q 379 971 470 971 q 233 898 277 971 q 189 668 189 826 l 189 337 q 233 110 189 182 q 379 39 277 39 q 520 100 477 39 q 564 295 562 160 l 622 290 q 560 66 621 144 q 379 -13 499 -13 m 351 0 l 364 25 q 449 -30 417 11 q 481 -129 481 -71 q 445 -234 481 -196 q 350 -273 409 -273 q 259 -241 294 -273 q 220 -133 225 -208 l 274 -128 q 294 -203 278 -181 q 345 -225 309 -225 q 406 -203 388 -225 q 424 -126 424 -181 q 407 -45 424 -74 q 351 0 390 -16 z "},"Ć":{"ha":739,"x_min":131,"x_max":622,"o":"m 131 0 m 379 -13 q 194 73 258 -13 q 131 336 131 158 l 131 669 q 194 934 131 846 q 379 1023 258 1023 q 555 948 494 1023 q 622 715 616 872 l 564 710 q 513 913 556 855 q 379 971 470 971 q 233 898 277 971 q 189 668 189 826 l 189 337 q 233 110 189 182 q 379 39 277 39 q 520 100 477 39 q 564 295 562 160 l 622 290 q 560 66 621 144 q 379 -13 499 -13 m 341 1136 l 477 1389 l 567 1389 l 390 1136 l 341 1136 z "},"Ĉ":{"ha":739,"x_min":131,"x_max":622,"o":"m 131 0 m 379 -13 q 194 73 258 -13 q 131 336 131 158 l 131 669 q 194 934 131 846 q 379 1023 258 1023 q 555 948 494 1023 q 622 715 616 872 l 564 710 q 513 913 556 855 q 379 971 470 971 q 233 898 277 971 q 189 668 189 826 l 189 337 q 233 110 189 182 q 379 39 277 39 q 520 100 477 39 q 564 295 562 160 l 622 290 q 560 66 621 144 q 379 -13 499 -13 m 220 1167 l 196 1196 l 360 1410 l 399 1410 l 563 1196 l 540 1167 l 379 1356 l 220 1167 z "},"Ċ":{"ha":739,"x_min":131,"x_max":622,"o":"m 131 0 m 379 -13 q 194 73 258 -13 q 131 336 131 158 l 131 669 q 194 934 131 846 q 379 1023 258 1023 q 555 948 494 1023 q 622 715 616 872 l 564 710 q 513 913 556 855 q 379 971 470 971 q 233 898 277 971 q 189 668 189 826 l 189 337 q 233 110 189 182 q 379 39 277 39 q 520 100 477 39 q 564 295 562 160 l 622 290 q 560 66 621 144 q 379 -13 499 -13 m 380 1177 q 341 1186 356 1177 q 326 1221 326 1196 l 326 1230 q 341 1266 326 1256 q 380 1277 356 1277 q 419 1266 404 1277 q 434 1230 434 1256 l 434 1221 q 419 1186 434 1196 q 380 1177 404 1177 z "},"Č":{"ha":739,"x_min":131,"x_max":622,"o":"m 131 0 m 379 -13 q 194 73 258 -13 q 131 336 131 158 l 131 669 q 194 934 131 846 q 379 1023 258 1023 q 555 948 494 1023 q 622 715 616 872 l 564 710 q 513 913 556 855 q 379 971 470 971 q 233 898 277 971 q 189 668 189 826 l 189 337 q 233 110 189 182 q 379 39 277 39 q 520 100 477 39 q 564 295 562 160 l 622 290 q 560 66 621 144 q 379 -13 499 -13 m 361 1141 l 196 1356 l 220 1385 l 380 1196 l 540 1385 l 563 1356 l 400 1141 l 361 1141 z "},"D":{"ha":739,"x_min":150,"x_max":606,"o":"m 150 0 l 150 1010 l 341 1010 q 536 914 466 1010 q 606 655 606 817 l 606 350 q 535 95 606 191 q 341 0 465 0 l 150 0 m 208 52 l 341 52 q 497 134 446 52 q 548 350 548 217 l 548 655 q 497 872 548 787 q 341 958 446 958 l 208 958 l 208 52 z "},"Ď":{"ha":739,"x_min":150,"x_max":606,"o":"m 150 0 m 150 0 l 150 1010 l 341 1010 q 536 914 466 1010 q 606 655 606 817 l 606 350 q 535 95 606 191 q 341 0 465 0 l 150 0 m 208 52 l 341 52 q 497 134 446 52 q 548 350 548 217 l 548 655 q 497 872 548 787 q 341 958 446 958 l 208 958 l 208 52 m 351 1141 l 186 1356 l 210 1385 l 370 1196 l 530 1385 l 553 1356 l 390 1141 l 351 1141 z "},"E":{"ha":739,"x_min":152,"x_max":606,"o":"m 152 0 l 152 1010 l 606 1010 l 606 958 l 208 958 l 208 578 l 559 578 l 559 527 l 208 527 l 208 52 l 606 52 l 606 0 l 152 0 z "},"":{"ha":739,"x_min":152,"x_max":606,"o":"m 152 0 l 152 1010 l 606 1010 l 606 958 l 208 958 l 208 578 l 559 578 l 559 527 l 208 527 l 208 52 l 606 52 l 606 0 l 152 0 z "},"È":{"ha":739,"x_min":152,"x_max":606,"o":"m 152 0 m 152 0 l 152 1010 l 606 1010 l 606 958 l 208 958 l 208 578 l 559 578 l 559 527 l 208 527 l 208 52 l 606 52 l 606 0 l 152 0 m 402 1136 l 225 1389 l 316 1389 l 451 1136 l 402 1136 z "},"É":{"ha":739,"x_min":152,"x_max":606,"o":"m 152 0 m 152 0 l 152 1010 l 606 1010 l 606 958 l 208 958 l 208 578 l 559 578 l 559 527 l 208 527 l 208 52 l 606 52 l 606 0 l 152 0 m 324 1136 l 461 1389 l 551 1389 l 374 1136 l 324 1136 z "},"Ê":{"ha":739,"x_min":152,"x_max":606,"o":"m 152 0 m 152 0 l 152 1010 l 606 1010 l 606 958 l 208 958 l 208 578 l 559 578 l 559 527 l 208 527 l 208 52 l 606 52 l 606 0 l 152 0 m 226 1167 l 202 1196 l 366 1410 l 405 1410 l 569 1196 l 547 1167 l 385 1356 l 226 1167 z "},"Ë":{"ha":739,"x_min":152,"x_max":606,"o":"m 152 0 m 152 0 l 152 1010 l 606 1010 l 606 958 l 208 958 l 208 578 l 559 578 l 559 527 l 208 527 l 208 52 l 606 52 l 606 0 l 152 0 m 287 1177 q 252 1186 265 1177 q 239 1221 239 1194 l 239 1230 q 252 1267 239 1258 q 287 1277 265 1277 q 320 1267 307 1277 q 333 1230 333 1258 l 333 1221 q 320 1186 333 1194 q 287 1177 307 1177 m 489 1177 q 455 1186 468 1177 q 442 1221 442 1194 l 442 1230 q 455 1267 442 1258 q 489 1277 468 1277 q 523 1267 510 1277 q 537 1230 537 1258 l 537 1221 q 523 1186 537 1194 q 489 1177 509 1177 z "},"Ē":{"ha":739,"x_min":152,"x_max":606,"o":"m 152 0 m 152 0 l 152 1010 l 606 1010 l 606 958 l 208 958 l 208 578 l 559 578 l 559 527 l 208 527 l 208 52 l 606 52 l 606 0 l 152 0 m 216 1240 l 216 1292 l 557 1292 l 557 1240 l 216 1240 z "},"Ĕ":{"ha":739,"x_min":152,"x_max":606,"o":"m 152 0 m 152 0 l 152 1010 l 606 1010 l 606 958 l 208 958 l 208 578 l 559 578 l 559 527 l 208 527 l 208 52 l 606 52 l 606 0 l 152 0 m 386 1128 q 242 1194 294 1128 q 188 1386 189 1261 l 246 1386 q 281 1229 247 1278 q 386 1181 314 1181 q 492 1229 458 1181 q 527 1386 525 1278 l 585 1386 q 531 1194 583 1261 q 386 1128 479 1128 z "},"Ė":{"ha":739,"x_min":152,"x_max":606,"o":"m 152 0 m 152 0 l 152 1010 l 606 1010 l 606 958 l 208 958 l 208 578 l 559 578 l 559 527 l 208 527 l 208 52 l 606 52 l 606 0 l 152 0 m 386 1177 q 347 1186 362 1177 q 332 1221 332 1196 l 332 1230 q 347 1266 332 1256 q 386 1277 362 1277 q 426 1266 410 1277 q 441 1230 441 1256 l 441 1221 q 426 1186 441 1196 q 386 1177 410 1177 z "},"Ę":{"ha":739,"x_min":152,"x_max":620,"o":"m 152 0 m 152 0 l 152 1010 l 606 1010 l 606 958 l 208 958 l 208 578 l 559 578 l 559 527 l 208 527 l 208 52 l 606 52 l 606 0 l 152 0 m 539 -271 q 447 -234 482 -271 q 412 -135 412 -197 q 443 -34 412 -81 q 524 42 473 13 l 539 29 q 484 -38 501 -3 q 467 -120 467 -73 q 486 -196 467 -173 q 547 -220 505 -220 q 584 -217 566 -220 q 620 -210 602 -215 l 620 -261 q 580 -269 602 -266 q 539 -271 557 -271 z "},"Ě":{"ha":739,"x_min":152,"x_max":606,"o":"m 152 0 m 152 0 l 152 1010 l 606 1010 l 606 958 l 208 958 l 208 578 l 559 578 l 559 527 l 208 527 l 208 52 l 606 52 l 606 0 l 152 0 m 375 1141 l 210 1356 l 234 1385 l 394 1196 l 554 1385 l 577 1356 l 414 1141 l 375 1141 z "},"F":{"ha":739,"x_min":152,"x_max":606,"o":"m 152 0 l 152 1010 l 606 1010 l 606 958 l 208 958 l 208 471 l 540 471 l 540 419 l 208 419 l 208 0 l 152 0 z "},"G":{"ha":739,"x_min":131,"x_max":625,"o":"m 384 -13 q 196 74 260 -13 q 131 337 131 160 l 131 668 q 194 934 131 846 q 379 1023 258 1023 q 546 957 492 1023 q 606 737 600 891 l 548 730 q 504 922 539 872 q 379 971 468 971 q 234 898 279 971 q 189 668 189 826 l 189 337 q 235 110 189 182 q 384 39 282 39 q 525 126 484 39 q 567 419 567 212 l 369 419 l 369 471 l 625 471 l 625 423 q 566 91 625 194 q 384 -13 508 -13 z "},"Ĝ":{"ha":739,"x_min":131,"x_max":625,"o":"m 131 0 m 384 -13 q 196 74 260 -13 q 131 337 131 160 l 131 668 q 194 934 131 846 q 379 1023 258 1023 q 546 957 492 1023 q 606 737 600 891 l 548 730 q 504 922 539 872 q 379 971 468 971 q 234 898 279 971 q 189 668 189 826 l 189 337 q 235 110 189 182 q 384 39 282 39 q 525 126 484 39 q 567 419 567 212 l 369 419 l 369 471 l 625 471 l 625 423 q 566 91 625 194 q 384 -13 508 -13 m 223 1167 l 199 1196 l 364 1410 l 403 1410 l 567 1196 l 544 1167 l 383 1356 l 223 1167 z "},"Ğ":{"ha":739,"x_min":131,"x_max":625,"o":"m 131 0 m 384 -13 q 196 74 260 -13 q 131 337 131 160 l 131 668 q 194 934 131 846 q 379 1023 258 1023 q 546 957 492 1023 q 606 737 600 891 l 548 730 q 504 922 539 872 q 379 971 468 971 q 234 898 279 971 q 189 668 189 826 l 189 337 q 235 110 189 182 q 384 39 282 39 q 525 126 484 39 q 567 419 567 212 l 369 419 l 369 471 l 625 471 l 625 423 q 566 91 625 194 q 384 -13 508 -13 m 384 1128 q 239 1194 292 1128 q 186 1386 187 1261 l 244 1386 q 278 1229 245 1278 q 384 1181 312 1181 q 489 1229 456 1181 q 524 1386 523 1278 l 582 1386 q 528 1194 581 1261 q 384 1128 476 1128 z "},"Ġ":{"ha":739,"x_min":131,"x_max":625,"o":"m 131 0 m 384 -13 q 196 74 260 -13 q 131 337 131 160 l 131 668 q 194 934 131 846 q 379 1023 258 1023 q 546 957 492 1023 q 606 737 600 891 l 548 730 q 504 922 539 872 q 379 971 468 971 q 234 898 279 971 q 189 668 189 826 l 189 337 q 235 110 189 182 q 384 39 282 39 q 525 126 484 39 q 567 419 567 212 l 369 419 l 369 471 l 625 471 l 625 423 q 566 91 625 194 q 384 -13 508 -13 m 379 1177 q 340 1186 355 1177 q 324 1221 324 1196 l 324 1230 q 340 1266 324 1256 q 379 1277 355 1277 q 418 1266 403 1277 q 433 1230 433 1256 l 433 1221 q 418 1186 433 1196 q 379 1177 403 1177 z "},"Ģ":{"ha":739,"x_min":131,"x_max":625,"o":"m 131 0 m 384 -13 q 196 74 260 -13 q 131 337 131 160 l 131 668 q 194 934 131 846 q 379 1023 258 1023 q 546 957 492 1023 q 606 737 600 891 l 548 730 q 504 922 539 872 q 379 971 468 971 q 234 898 279 971 q 189 668 189 826 l 189 337 q 235 110 189 182 q 384 39 282 39 q 525 126 484 39 q 567 419 567 212 l 369 419 l 369 471 l 625 471 l 625 423 q 566 91 625 194 q 384 -13 508 -13 m 264 -379 l 355 -126 l 446 -126 l 313 -379 l 264 -379 z "},"H":{"ha":739,"x_min":150,"x_max":587,"o":"m 150 0 l 150 1010 l 208 1010 l 208 578 l 529 578 l 529 1010 l 587 1010 l 587 0 l 529 0 l 529 527 l 208 527 l 208 0 l 150 0 z "},"Ĥ":{"ha":739,"x_min":150,"x_max":587,"o":"m 150 0 m 150 0 l 150 1010 l 208 1010 l 208 578 l 529 578 l 529 1010 l 587 1010 l 587 0 l 529 0 l 529 527 l 208 527 l 208 0 l 150 0 m 210 1167 l 186 1196 l 350 1410 l 389 1410 l 553 1196 l 530 1167 l 369 1356 l 210 1167 z "},"I":{"ha":739,"x_min":152,"x_max":587,"o":"m 152 0 l 152 52 l 341 52 l 341 958 l 152 958 l 152 1010 l 587 1010 l 587 958 l 398 958 l 398 52 l 587 52 l 587 0 l 152 0 z "},"Ì":{"ha":739,"x_min":152,"x_max":587,"o":"m 152 0 m 152 0 l 152 52 l 341 52 l 341 958 l 152 958 l 152 1010 l 587 1010 l 587 958 l 398 958 l 398 52 l 587 52 l 587 0 l 152 0 m 389 1136 l 212 1389 l 303 1389 l 438 1136 l 389 1136 z "},"Í":{"ha":739,"x_min":152,"x_max":587,"o":"m 152 0 m 152 0 l 152 52 l 341 52 l 341 958 l 152 958 l 152 1010 l 587 1010 l 587 958 l 398 958 l 398 52 l 587 52 l 587 0 l 152 0 m 297 1136 l 433 1389 l 523 1389 l 346 1136 l 297 1136 z "},"Î":{"ha":739,"x_min":152,"x_max":587,"o":"m 152 0 m 152 0 l 152 52 l 341 52 l 341 958 l 152 958 l 152 1010 l 587 1010 l 587 958 l 398 958 l 398 52 l 587 52 l 587 0 l 152 0 m 210 1167 l 186 1196 l 350 1410 l 389 1410 l 553 1196 l 530 1167 l 369 1356 l 210 1167 z "},"Ï":{"ha":739,"x_min":152,"x_max":587,"o":"m 152 0 m 152 0 l 152 52 l 341 52 l 341 958 l 152 958 l 152 1010 l 587 1010 l 587 958 l 398 958 l 398 52 l 587 52 l 587 0 l 152 0 m 269 1177 q 234 1186 247 1177 q 221 1221 221 1194 l 221 1230 q 234 1267 221 1258 q 269 1277 247 1277 q 302 1267 289 1277 q 316 1230 316 1258 l 316 1221 q 302 1186 316 1194 q 269 1177 289 1177 m 471 1177 q 437 1186 451 1177 q 424 1221 424 1194 l 424 1230 q 437 1267 424 1258 q 471 1277 451 1277 q 506 1267 492 1277 q 519 1230 519 1258 l 519 1221 q 505 1186 519 1194 q 471 1177 491 1177 z "},"Ĩ":{"ha":739,"x_min":152,"x_max":587,"o":"m 152 0 m 152 0 l 152 52 l 341 52 l 341 958 l 152 958 l 152 1010 l 587 1010 l 587 958 l 398 958 l 398 52 l 587 52 l 587 0 l 152 0 m 451 1149 q 397 1174 419 1149 q 350 1266 375 1198 q 318 1338 332 1319 q 288 1356 304 1356 q 248 1312 261 1356 q 236 1176 235 1268 l 236 1162 l 189 1162 l 189 1181 q 215 1346 189 1290 q 289 1402 240 1402 q 343 1379 322 1402 q 388 1292 365 1356 q 423 1215 409 1235 q 452 1194 437 1194 q 491 1239 477 1194 q 504 1375 504 1283 l 504 1389 l 551 1389 l 551 1370 q 525 1205 551 1260 q 451 1149 500 1149 z "},"Ī":{"ha":739,"x_min":152,"x_max":587,"o":"m 152 0 m 152 0 l 152 52 l 341 52 l 341 958 l 152 958 l 152 1010 l 587 1010 l 587 958 l 398 958 l 398 52 l 587 52 l 587 0 l 152 0 m 199 1240 l 199 1292 l 540 1292 l 540 1240 l 199 1240 z "},"Ĭ":{"ha":739,"x_min":152,"x_max":587,"o":"m 152 0 m 152 0 l 152 52 l 341 52 l 341 958 l 152 958 l 152 1010 l 587 1010 l 587 958 l 398 958 l 398 52 l 587 52 l 587 0 l 152 0 m 370 1128 q 225 1194 278 1128 q 172 1386 173 1261 l 230 1386 q 265 1229 231 1278 q 370 1181 298 1181 q 475 1229 442 1181 q 510 1386 509 1278 l 568 1386 q 515 1194 567 1261 q 370 1128 462 1128 z "},"Į":{"ha":739,"x_min":152,"x_max":587,"o":"m 152 0 m 152 0 l 152 52 l 341 52 l 341 958 l 152 958 l 152 1010 l 587 1010 l 587 958 l 398 958 l 398 52 l 587 52 l 587 0 l 152 0 m 444 -271 q 352 -234 388 -271 q 317 -135 317 -197 q 348 -34 317 -81 q 429 42 379 13 l 444 29 q 390 -38 407 -3 q 372 -120 372 -73 q 391 -196 372 -173 q 452 -220 410 -220 q 489 -217 471 -220 q 525 -210 508 -215 l 525 -261 q 485 -269 508 -266 q 444 -271 462 -271 z "},"İ":{"ha":739,"x_min":152,"x_max":587,"o":"m 152 0 m 152 0 l 152 52 l 341 52 l 341 958 l 152 958 l 152 1010 l 587 1010 l 587 958 l 398 958 l 398 52 l 587 52 l 587 0 l 152 0 m 370 1177 q 331 1186 346 1177 q 316 1221 316 1196 l 316 1230 q 331 1266 316 1256 q 370 1277 346 1277 q 409 1266 394 1277 q 424 1230 424 1256 l 424 1221 q 409 1186 424 1196 q 370 1177 394 1177 z "},"J":{"ha":739,"x_min":114,"x_max":587,"o":"m 350 -13 q 176 61 232 -13 q 114 294 119 135 l 170 302 q 218 98 179 157 q 347 39 256 39 q 487 107 443 39 q 530 327 530 176 l 530 958 l 322 958 l 322 1010 l 587 1010 l 587 328 q 528 71 587 155 q 350 -13 468 -13 z "},"Ĵ":{"ha":739,"x_min":114,"x_max":631,"o":"m 114 0 m 350 -13 q 176 61 232 -13 q 114 294 119 135 l 170 302 q 218 98 179 157 q 347 39 256 39 q 487 107 443 39 q 530 327 530 176 l 530 958 l 322 958 l 322 1010 l 587 1010 l 587 328 q 528 71 587 155 q 350 -13 468 -13 m 288 1167 l 264 1196 l 428 1410 l 467 1410 l 631 1196 l 609 1167 l 447 1356 l 288 1167 z "},"K":{"ha":739,"x_min":152,"x_max":644,"o":"m 208 508 l 208 0 l 152 0 l 152 1010 l 208 1010 l 208 559 l 278 559 l 574 1010 l 644 1010 l 330 543 l 640 0 l 569 0 l 282 508 l 208 508 z "},"Ķ":{"ha":739,"x_min":152,"x_max":644,"o":"m 152 0 m 208 508 l 208 0 l 152 0 l 152 1010 l 208 1010 l 208 559 l 278 559 l 574 1010 l 644 1010 l 330 543 l 640 0 l 569 0 l 282 508 l 208 508 m 261 -379 l 352 -126 l 443 -126 l 311 -379 l 261 -379 z "},"L":{"ha":739,"x_min":198,"x_max":587,"o":"m 198 0 l 198 1010 l 255 1010 l 255 52 l 587 52 l 587 0 l 198 0 z "},"Ĺ":{"ha":739,"x_min":198,"x_max":587,"o":"m 198 0 m 198 0 l 198 1010 l 255 1010 l 255 52 l 587 52 l 587 0 l 198 0 m 236 1136 l 372 1389 l 462 1389 l 285 1136 l 236 1136 z "},"Ļ":{"ha":739,"x_min":198,"x_max":587,"o":"m 198 0 m 198 0 l 198 1010 l 255 1010 l 255 52 l 587 52 l 587 0 l 198 0 m 277 -379 l 367 -126 l 458 -126 l 326 -379 l 277 -379 z "},"Ľ":{"ha":739,"x_min":198,"x_max":588,"o":"m 198 0 m 198 0 l 198 1010 l 255 1010 l 255 52 l 587 52 l 587 0 l 198 0 m 432 706 l 509 1010 l 588 1010 l 477 706 l 432 706 z "},"M":{"ha":739,"x_min":119,"x_max":620,"o":"m 340 253 l 174 896 l 174 0 l 119 0 l 119 1010 l 198 1010 l 371 330 l 543 1010 l 620 1010 l 620 0 l 564 0 l 564 900 l 399 253 l 340 253 z "},"N":{"ha":739,"x_min":150,"x_max":587,"o":"m 514 0 l 205 876 l 205 0 l 150 0 l 150 1010 l 217 1010 l 533 110 l 533 1010 l 587 1010 l 587 0 l 514 0 z "},"Ñ":{"ha":739,"x_min":150,"x_max":587,"o":"m 150 0 m 514 0 l 205 876 l 205 0 l 150 0 l 150 1010 l 217 1010 l 533 110 l 533 1010 l 587 1010 l 587 0 l 514 0 m 465 1149 q 411 1174 433 1149 q 364 1266 389 1198 q 332 1338 346 1319 q 302 1356 318 1356 q 262 1312 275 1356 q 250 1176 249 1268 l 250 1162 l 203 1162 l 203 1181 q 229 1346 203 1290 q 303 1402 254 1402 q 357 1379 336 1402 q 402 1292 379 1356 q 437 1215 423 1235 q 466 1194 451 1194 q 504 1239 491 1194 q 518 1375 518 1283 l 518 1389 l 564 1389 l 564 1370 q 539 1205 564 1260 q 465 1149 514 1149 z "},"Ń":{"ha":739,"x_min":150,"x_max":587,"o":"m 150 0 m 514 0 l 205 876 l 205 0 l 150 0 l 150 1010 l 217 1010 l 533 110 l 533 1010 l 587 1010 l 587 0 l 514 0 m 317 1136 l 453 1389 l 543 1389 l 366 1136 l 317 1136 z "},"Ņ":{"ha":739,"x_min":150,"x_max":587,"o":"m 150 0 m 514 0 l 205 876 l 205 0 l 150 0 l 150 1010 l 217 1010 l 533 110 l 533 1010 l 587 1010 l 587 0 l 514 0 m 242 -379 l 333 -126 l 424 -126 l 292 -379 l 242 -379 z "},"Ň":{"ha":739,"x_min":150,"x_max":587,"o":"m 150 0 m 514 0 l 205 876 l 205 0 l 150 0 l 150 1010 l 217 1010 l 533 110 l 533 1010 l 587 1010 l 587 0 l 514 0 m 365 1141 l 199 1356 l 223 1385 l 384 1196 l 544 1385 l 567 1356 l 404 1141 l 365 1141 z "},"O":{"ha":739,"x_min":131,"x_max":606,"o":"m 369 -13 q 190 76 249 -13 q 131 337 131 164 l 131 668 q 190 932 131 842 q 370 1023 249 1023 q 548 932 490 1023 q 606 668 606 842 l 606 337 q 547 76 606 164 q 369 -13 489 -13 m 369 39 q 507 113 466 39 q 548 337 548 187 l 548 668 q 507 896 548 822 q 369 971 466 971 q 230 896 271 971 q 189 668 189 822 l 189 337 q 230 113 189 187 q 369 39 271 39 z "},"Ò":{"ha":739,"x_min":131,"x_max":606,"o":"m 131 0 m 369 -13 q 190 76 249 -13 q 131 337 131 164 l 131 668 q 190 932 131 842 q 370 1023 249 1023 q 548 932 490 1023 q 606 668 606 842 l 606 337 q 547 76 606 164 q 369 -13 489 -13 m 369 39 q 507 113 466 39 q 548 337 548 187 l 548 668 q 507 896 548 822 q 369 971 466 971 q 230 896 271 971 q 189 668 189 822 l 189 337 q 230 113 189 187 q 369 39 271 39 m 389 1136 l 212 1389 l 303 1389 l 438 1136 l 389 1136 z "},"Ó":{"ha":739,"x_min":131,"x_max":606,"o":"m 131 0 m 369 -13 q 190 76 249 -13 q 131 337 131 164 l 131 668 q 190 932 131 842 q 370 1023 249 1023 q 548 932 490 1023 q 606 668 606 842 l 606 337 q 547 76 606 164 q 369 -13 489 -13 m 369 39 q 507 113 466 39 q 548 337 548 187 l 548 668 q 507 896 548 822 q 369 971 466 971 q 230 896 271 971 q 189 668 189 822 l 189 337 q 230 113 189 187 q 369 39 271 39 m 332 1136 l 468 1389 l 558 1389 l 381 1136 l 332 1136 z "},"Ô":{"ha":739,"x_min":131,"x_max":606,"o":"m 131 0 m 369 -13 q 190 76 249 -13 q 131 337 131 164 l 131 668 q 190 932 131 842 q 370 1023 249 1023 q 548 932 490 1023 q 606 668 606 842 l 606 337 q 547 76 606 164 q 369 -13 489 -13 m 369 39 q 507 113 466 39 q 548 337 548 187 l 548 668 q 507 896 548 822 q 369 971 466 971 q 230 896 271 971 q 189 668 189 822 l 189 337 q 230 113 189 187 q 369 39 271 39 m 210 1167 l 186 1196 l 350 1410 l 389 1410 l 553 1196 l 530 1167 l 369 1356 l 210 1167 z "},"Õ":{"ha":739,"x_min":131,"x_max":606,"o":"m 131 0 m 369 -13 q 190 76 249 -13 q 131 337 131 164 l 131 668 q 190 932 131 842 q 370 1023 249 1023 q 548 932 490 1023 q 606 668 606 842 l 606 337 q 547 76 606 164 q 369 -13 489 -13 m 369 39 q 507 113 466 39 q 548 337 548 187 l 548 668 q 507 896 548 822 q 369 971 466 971 q 230 896 271 971 q 189 668 189 822 l 189 337 q 230 113 189 187 q 369 39 271 39 m 451 1149 q 397 1174 419 1149 q 350 1266 375 1198 q 318 1338 332 1319 q 288 1356 304 1356 q 248 1312 261 1356 q 236 1176 235 1268 l 236 1162 l 189 1162 l 189 1181 q 215 1346 189 1290 q 289 1402 240 1402 q 343 1379 322 1402 q 388 1292 365 1356 q 423 1215 409 1235 q 452 1194 437 1194 q 491 1239 477 1194 q 504 1375 504 1283 l 504 1389 l 551 1389 l 551 1370 q 525 1205 551 1260 q 451 1149 500 1149 z "},"Ö":{"ha":739,"x_min":131,"x_max":606,"o":"m 131 0 m 369 -13 q 190 76 249 -13 q 131 337 131 164 l 131 668 q 190 932 131 842 q 370 1023 249 1023 q 548 932 490 1023 q 606 668 606 842 l 606 337 q 547 76 606 164 q 369 -13 489 -13 m 369 39 q 507 113 466 39 q 548 337 548 187 l 548 668 q 507 896 548 822 q 369 971 466 971 q 230 896 271 971 q 189 668 189 822 l 189 337 q 230 113 189 187 q 369 39 271 39 m 269 1177 q 234 1186 247 1177 q 221 1221 221 1194 l 221 1230 q 234 1267 221 1258 q 269 1277 247 1277 q 302 1267 289 1277 q 316 1230 316 1258 l 316 1221 q 302 1186 316 1194 q 269 1177 289 1177 m 471 1177 q 437 1186 451 1177 q 424 1221 424 1194 l 424 1230 q 437 1267 424 1258 q 471 1277 451 1277 q 506 1267 492 1277 q 519 1230 519 1258 l 519 1221 q 505 1186 519 1194 q 471 1177 491 1177 z "},"Ō":{"ha":739,"x_min":131,"x_max":606,"o":"m 131 0 m 369 -13 q 190 76 249 -13 q 131 337 131 164 l 131 668 q 190 932 131 842 q 370 1023 249 1023 q 548 932 490 1023 q 606 668 606 842 l 606 337 q 547 76 606 164 q 369 -13 489 -13 m 369 39 q 507 113 466 39 q 548 337 548 187 l 548 668 q 507 896 548 822 q 369 971 466 971 q 230 896 271 971 q 189 668 189 822 l 189 337 q 230 113 189 187 q 369 39 271 39 m 199 1240 l 199 1292 l 540 1292 l 540 1240 l 199 1240 z "},"Ŏ":{"ha":739,"x_min":131,"x_max":606,"o":"m 131 0 m 369 -13 q 190 76 249 -13 q 131 337 131 164 l 131 668 q 190 932 131 842 q 370 1023 249 1023 q 548 932 490 1023 q 606 668 606 842 l 606 337 q 547 76 606 164 q 369 -13 489 -13 m 369 39 q 507 113 466 39 q 548 337 548 187 l 548 668 q 507 896 548 822 q 369 971 466 971 q 230 896 271 971 q 189 668 189 822 l 189 337 q 230 113 189 187 q 369 39 271 39 m 370 1128 q 225 1194 278 1128 q 172 1386 173 1261 l 230 1386 q 265 1229 231 1278 q 370 1181 298 1181 q 475 1229 442 1181 q 510 1386 509 1278 l 568 1386 q 515 1194 567 1261 q 370 1128 462 1128 z "},"Ő":{"ha":739,"x_min":131,"x_max":606,"o":"m 131 0 m 369 -13 q 190 76 249 -13 q 131 337 131 164 l 131 668 q 190 932 131 842 q 370 1023 249 1023 q 548 932 490 1023 q 606 668 606 842 l 606 337 q 547 76 606 164 q 369 -13 489 -13 m 369 39 q 507 113 466 39 q 548 337 548 187 l 548 668 q 507 896 548 822 q 369 971 466 971 q 230 896 271 971 q 189 668 189 822 l 189 337 q 230 113 189 187 q 369 39 271 39 m 431 1136 l 484 1389 l 580 1389 l 476 1136 l 431 1136 m 242 1136 l 295 1389 l 391 1389 l 288 1136 l 242 1136 z "},"P":{"ha":739,"x_min":152,"x_max":616,"o":"m 152 0 l 152 1010 l 399 1010 q 561 942 505 1010 q 616 744 616 874 l 616 620 q 561 422 616 490 q 398 354 505 354 l 208 354 l 208 0 l 152 0 m 208 405 l 398 405 q 521 456 484 405 q 558 622 558 506 l 558 739 q 521 907 558 856 q 398 958 484 958 l 208 958 l 208 405 z "},"Q":{"ha":739,"x_min":131,"x_max":631,"o":"m 631 -241 q 432 -220 503 -277 q 360 -13 361 -163 q 189 80 246 -9 q 131 337 131 168 l 131 668 q 192 934 131 845 q 370 1023 253 1023 q 547 934 487 1023 q 606 668 606 845 l 606 337 q 557 91 606 176 q 417 -9 508 6 q 471 -182 419 -146 q 621 -191 523 -218 l 631 -241 m 369 39 q 507 113 466 39 q 548 337 548 187 l 548 668 q 507 897 548 822 q 369 972 466 972 q 230 897 271 972 q 189 668 189 822 l 189 337 q 230 113 189 187 q 369 39 271 39 z "},"R":{"ha":739,"x_min":150,"x_max":646,"o":"m 208 449 l 417 449 q 540 500 503 449 q 577 665 577 551 l 577 739 q 540 907 577 856 q 417 958 503 958 l 208 958 l 208 449 m 208 0 l 150 0 l 150 1010 l 417 1010 q 580 942 527 1010 q 634 744 634 874 l 634 663 q 588 474 634 542 q 452 398 543 407 l 646 0 l 583 0 l 389 396 l 208 396 l 208 0 z "},"Ŕ":{"ha":739,"x_min":150,"x_max":646,"o":"m 150 0 m 208 449 l 417 449 q 540 500 503 449 q 577 665 577 551 l 577 739 q 540 907 577 856 q 417 958 503 958 l 208 958 l 208 449 m 208 0 l 150 0 l 150 1010 l 417 1010 q 580 942 527 1010 q 634 744 634 874 l 634 663 q 588 474 634 542 q 452 398 543 407 l 646 0 l 583 0 l 389 396 l 208 396 l 208 0 m 357 1136 l 494 1389 l 583 1389 l 407 1136 l 357 1136 z "},"Ŗ":{"ha":739,"x_min":150,"x_max":646,"o":"m 150 0 m 208 449 l 417 449 q 540 500 503 449 q 577 665 577 551 l 577 739 q 540 907 577 856 q 417 958 503 958 l 208 958 l 208 449 m 208 0 l 150 0 l 150 1010 l 417 1010 q 580 942 527 1010 q 634 744 634 874 l 634 663 q 588 474 634 542 q 452 398 543 407 l 646 0 l 583 0 l 389 396 l 208 396 l 208 0 m 241 -379 l 332 -126 l 423 -126 l 290 -379 l 241 -379 z "},"Ř":{"ha":739,"x_min":150,"x_max":646,"o":"m 150 0 m 208 449 l 417 449 q 540 500 503 449 q 577 665 577 551 l 577 739 q 540 907 577 856 q 417 958 503 958 l 208 958 l 208 449 m 208 0 l 150 0 l 150 1010 l 417 1010 q 580 942 527 1010 q 634 744 634 874 l 634 663 q 588 474 634 542 q 452 398 543 407 l 646 0 l 583 0 l 389 396 l 208 396 l 208 0 m 351 1141 l 186 1356 l 210 1385 l 370 1196 l 530 1385 l 553 1356 l 390 1141 l 351 1141 z "},"S":{"ha":739,"x_min":128,"x_max":611,"o":"m 366 -6 q 235 21 297 -6 q 128 87 173 48 l 157 133 q 259 68 207 90 q 366 45 312 45 q 502 101 448 45 q 556 256 556 157 q 518 394 556 343 q 371 496 481 444 q 200 609 258 551 q 143 773 143 668 q 205 949 143 885 q 367 1014 266 1014 q 484 991 428 1014 q 577 938 539 967 l 551 890 q 460 943 506 923 q 367 962 414 962 q 241 912 284 962 q 198 778 198 861 q 244 646 198 692 q 396 548 290 600 q 559 431 508 494 q 611 256 611 367 q 541 66 611 138 q 366 -6 471 -6 z "},"":{"ha":739,"x_min":128,"x_max":611,"o":"m 366 -6 q 235 21 297 -6 q 128 87 173 48 l 157 133 q 259 68 207 90 q 366 45 312 45 q 502 101 448 45 q 556 256 556 157 q 518 394 556 343 q 371 496 481 444 q 200 609 258 551 q 143 773 143 668 q 205 949 143 885 q 367 1014 266 1014 q 484 991 428 1014 q 577 938 539 967 l 551 890 q 460 943 506 923 q 367 962 414 962 q 241 912 284 962 q 198 778 198 861 q 244 646 198 692 q 396 548 290 600 q 559 431 508 494 q 611 256 611 367 q 541 66 611 138 q 366 -6 471 -6 z "},"Ś":{"ha":739,"x_min":128,"x_max":611,"o":"m 128 0 m 366 -6 q 235 21 297 -6 q 128 87 173 48 l 157 133 q 259 68 207 90 q 366 45 312 45 q 502 101 448 45 q 556 256 556 157 q 518 394 556 343 q 371 496 481 444 q 200 609 258 551 q 143 773 143 668 q 205 949 143 885 q 367 1014 266 1014 q 484 991 428 1014 q 577 938 539 967 l 551 890 q 460 943 506 923 q 367 962 414 962 q 241 912 284 962 q 198 778 198 861 q 244 646 198 692 q 396 548 290 600 q 559 431 508 494 q 611 256 611 367 q 541 66 611 138 q 366 -6 471 -6 m 297 1136 l 433 1389 l 523 1389 l 346 1136 l 297 1136 z "},"Ŝ":{"ha":739,"x_min":128,"x_max":611,"o":"m 128 0 m 366 -6 q 235 21 297 -6 q 128 87 173 48 l 157 133 q 259 68 207 90 q 366 45 312 45 q 502 101 448 45 q 556 256 556 157 q 518 394 556 343 q 371 496 481 444 q 200 609 258 551 q 143 773 143 668 q 205 949 143 885 q 367 1014 266 1014 q 484 991 428 1014 q 577 938 539 967 l 551 890 q 460 943 506 923 q 367 962 414 962 q 241 912 284 962 q 198 778 198 861 q 244 646 198 692 q 396 548 290 600 q 559 431 508 494 q 611 256 611 367 q 541 66 611 138 q 366 -6 471 -6 m 210 1167 l 186 1196 l 350 1410 l 389 1410 l 553 1196 l 530 1167 l 369 1356 l 210 1167 z "},"Ş":{"ha":739,"x_min":128,"x_max":611,"o":"m 128 0 m 366 -6 q 235 21 297 -6 q 128 87 173 48 l 157 133 q 259 68 207 90 q 366 45 312 45 q 502 101 448 45 q 556 256 556 157 q 518 394 556 343 q 371 496 481 444 q 200 609 258 551 q 143 773 143 668 q 205 949 143 885 q 367 1014 266 1014 q 484 991 428 1014 q 577 938 539 967 l 551 890 q 460 943 506 923 q 367 962 414 962 q 241 912 284 962 q 198 778 198 861 q 244 646 198 692 q 396 548 290 600 q 559 431 508 494 q 611 256 611 367 q 541 66 611 138 q 366 -6 471 -6 m 341 0 l 354 25 q 439 -30 407 11 q 471 -129 471 -71 q 435 -234 471 -196 q 340 -273 399 -273 q 249 -241 284 -273 q 210 -133 215 -208 l 264 -128 q 283 -203 268 -181 q 335 -225 299 -225 q 396 -203 378 -225 q 414 -126 414 -181 q 397 -45 414 -74 q 341 0 380 -16 z "},"Š":{"ha":739,"x_min":128,"x_max":611,"o":"m 128 0 m 366 -6 q 235 21 297 -6 q 128 87 173 48 l 157 133 q 259 68 207 90 q 366 45 312 45 q 502 101 448 45 q 556 256 556 157 q 518 394 556 343 q 371 496 481 444 q 200 609 258 551 q 143 773 143 668 q 205 949 143 885 q 367 1014 266 1014 q 484 991 428 1014 q 577 938 539 967 l 551 890 q 460 943 506 923 q 367 962 414 962 q 241 912 284 962 q 198 778 198 861 q 244 646 198 692 q 396 548 290 600 q 559 431 508 494 q 611 256 611 367 q 541 66 611 138 q 366 -6 471 -6 m 351 1141 l 186 1356 l 210 1385 l 370 1196 l 530 1385 l 553 1356 l 390 1141 l 351 1141 z "},"Ș":{"ha":739,"x_min":128,"x_max":611,"o":"m 128 0 m 366 -6 q 235 21 297 -6 q 128 87 173 48 l 157 133 q 259 68 207 90 q 366 45 312 45 q 502 101 448 45 q 556 256 556 157 q 518 394 556 343 q 371 496 481 444 q 200 609 258 551 q 143 773 143 668 q 205 949 143 885 q 367 1014 266 1014 q 484 991 428 1014 q 577 938 539 967 l 551 890 q 460 943 506 923 q 367 962 414 962 q 241 912 284 962 q 198 778 198 861 q 244 646 198 692 q 396 548 290 600 q 559 431 508 494 q 611 256 611 367 q 541 66 611 138 q 366 -6 471 -6 m 239 -379 l 330 -126 l 420 -126 l 288 -379 l 239 -379 z "},"T":{"ha":739,"x_min":104,"x_max":635,"o":"m 341 0 l 341 958 l 104 958 l 104 1010 l 635 1010 l 635 958 l 398 958 l 398 0 l 341 0 z "},"Ţ":{"ha":739,"x_min":104,"x_max":635,"o":"m 104 0 m 341 0 l 341 958 l 104 958 l 104 1010 l 635 1010 l 635 958 l 398 958 l 398 0 l 341 0 m 346 0 l 359 25 q 444 -30 412 11 q 476 -129 476 -71 q 440 -234 476 -196 q 345 -273 404 -273 q 254 -241 289 -273 q 215 -133 220 -208 l 269 -128 q 289 -203 273 -181 q 340 -225 304 -225 q 401 -203 383 -225 q 419 -126 419 -181 q 402 -45 419 -74 q 346 0 385 -16 z "},"Ť":{"ha":739,"x_min":104,"x_max":635,"o":"m 104 0 m 341 0 l 341 958 l 104 958 l 104 1010 l 635 1010 l 635 958 l 398 958 l 398 0 l 341 0 m 351 1141 l 186 1356 l 210 1385 l 370 1196 l 530 1385 l 553 1356 l 390 1141 l 351 1141 z "},"Ț":{"ha":739,"x_min":104,"x_max":635,"o":"m 104 0 m 341 0 l 341 958 l 104 958 l 104 1010 l 635 1010 l 635 958 l 398 958 l 398 0 l 341 0 m 239 -379 l 330 -126 l 420 -126 l 288 -379 l 239 -379 z "},"U":{"ha":739,"x_min":150,"x_max":587,"o":"m 369 -13 q 204 75 258 -13 q 150 324 150 163 l 150 1010 l 208 1010 l 208 324 q 246 110 208 182 q 369 39 283 39 q 492 110 455 39 q 529 324 529 182 l 529 1010 l 587 1010 l 587 324 q 533 75 587 163 q 369 -13 480 -13 z "},"Ù":{"ha":739,"x_min":150,"x_max":587,"o":"m 150 0 m 369 -13 q 204 75 258 -13 q 150 324 150 163 l 150 1010 l 208 1010 l 208 324 q 246 110 208 182 q 369 39 283 39 q 492 110 455 39 q 529 324 529 182 l 529 1010 l 587 1010 l 587 324 q 533 75 587 163 q 369 -13 480 -13 m 389 1136 l 212 1389 l 303 1389 l 438 1136 l 389 1136 z "},"Ú":{"ha":739,"x_min":150,"x_max":587,"o":"m 150 0 m 369 -13 q 204 75 258 -13 q 150 324 150 163 l 150 1010 l 208 1010 l 208 324 q 246 110 208 182 q 369 39 283 39 q 492 110 455 39 q 529 324 529 182 l 529 1010 l 587 1010 l 587 324 q 533 75 587 163 q 369 -13 480 -13 m 297 1136 l 433 1389 l 523 1389 l 346 1136 l 297 1136 z "},"Û":{"ha":739,"x_min":150,"x_max":587,"o":"m 150 0 m 369 -13 q 204 75 258 -13 q 150 324 150 163 l 150 1010 l 208 1010 l 208 324 q 246 110 208 182 q 369 39 283 39 q 492 110 455 39 q 529 324 529 182 l 529 1010 l 587 1010 l 587 324 q 533 75 587 163 q 369 -13 480 -13 m 210 1167 l 186 1196 l 350 1410 l 389 1410 l 553 1196 l 530 1167 l 369 1356 l 210 1167 z "},"Ü":{"ha":739,"x_min":150,"x_max":587,"o":"m 150 0 m 369 -13 q 204 75 258 -13 q 150 324 150 163 l 150 1010 l 208 1010 l 208 324 q 246 110 208 182 q 369 39 283 39 q 492 110 455 39 q 529 324 529 182 l 529 1010 l 587 1010 l 587 324 q 533 75 587 163 q 369 -13 480 -13 m 269 1177 q 234 1186 247 1177 q 221 1221 221 1194 l 221 1230 q 234 1267 221 1258 q 269 1277 247 1277 q 302 1267 289 1277 q 316 1230 316 1258 l 316 1221 q 302 1186 316 1194 q 269 1177 289 1177 m 471 1177 q 437 1186 451 1177 q 424 1221 424 1194 l 424 1230 q 437 1267 424 1258 q 471 1277 451 1277 q 506 1267 492 1277 q 519 1230 519 1258 l 519 1221 q 505 1186 519 1194 q 471 1177 491 1177 z "},"Ũ":{"ha":739,"x_min":150,"x_max":587,"o":"m 150 0 m 369 -13 q 204 75 258 -13 q 150 324 150 163 l 150 1010 l 208 1010 l 208 324 q 246 110 208 182 q 369 39 283 39 q 492 110 455 39 q 529 324 529 182 l 529 1010 l 587 1010 l 587 324 q 533 75 587 163 q 369 -13 480 -13 m 451 1149 q 397 1174 419 1149 q 350 1266 375 1198 q 318 1338 332 1319 q 288 1356 304 1356 q 248 1312 261 1356 q 236 1176 235 1268 l 236 1162 l 189 1162 l 189 1181 q 215 1346 189 1290 q 289 1402 240 1402 q 343 1379 322 1402 q 388 1292 365 1356 q 423 1215 409 1235 q 452 1194 437 1194 q 491 1239 477 1194 q 504 1375 504 1283 l 504 1389 l 551 1389 l 551 1370 q 525 1205 551 1260 q 451 1149 500 1149 z "},"Ū":{"ha":739,"x_min":150,"x_max":587,"o":"m 150 0 m 369 -13 q 204 75 258 -13 q 150 324 150 163 l 150 1010 l 208 1010 l 208 324 q 246 110 208 182 q 369 39 283 39 q 492 110 455 39 q 529 324 529 182 l 529 1010 l 587 1010 l 587 324 q 533 75 587 163 q 369 -13 480 -13 m 199 1240 l 199 1292 l 540 1292 l 540 1240 l 199 1240 z "},"Ŭ":{"ha":739,"x_min":150,"x_max":587,"o":"m 150 0 m 369 -13 q 204 75 258 -13 q 150 324 150 163 l 150 1010 l 208 1010 l 208 324 q 246 110 208 182 q 369 39 283 39 q 492 110 455 39 q 529 324 529 182 l 529 1010 l 587 1010 l 587 324 q 533 75 587 163 q 369 -13 480 -13 m 370 1128 q 225 1194 278 1128 q 172 1386 173 1261 l 230 1386 q 265 1229 231 1278 q 370 1181 298 1181 q 475 1229 442 1181 q 510 1386 509 1278 l 568 1386 q 515 1194 567 1261 q 370 1128 462 1128 z "},"Ů":{"ha":739,"x_min":150,"x_max":587,"o":"m 150 0 m 369 -13 q 204 75 258 -13 q 150 324 150 163 l 150 1010 l 208 1010 l 208 324 q 246 110 208 182 q 369 39 283 39 q 492 110 455 39 q 529 324 529 182 l 529 1010 l 587 1010 l 587 324 q 533 75 587 163 q 369 -13 480 -13 m 370 1117 q 270 1161 306 1117 q 234 1288 234 1205 l 234 1354 q 270 1483 234 1438 q 370 1528 306 1528 q 470 1483 434 1528 q 506 1354 506 1438 l 506 1288 q 470 1161 506 1205 q 370 1117 434 1117 m 370 1165 q 434 1194 414 1165 q 455 1288 455 1223 l 455 1354 q 434 1449 455 1419 q 370 1480 414 1480 q 306 1449 326 1480 q 285 1354 285 1419 l 285 1288 q 306 1194 285 1223 q 370 1165 326 1165 z "},"Ű":{"ha":739,"x_min":150,"x_max":588,"o":"m 150 0 m 369 -13 q 204 75 258 -13 q 150 324 150 163 l 150 1010 l 208 1010 l 208 324 q 246 110 208 182 q 369 39 283 39 q 492 110 455 39 q 529 324 529 182 l 529 1010 l 587 1010 l 587 324 q 533 75 587 163 q 369 -13 480 -13 m 439 1136 l 492 1389 l 588 1389 l 485 1136 l 439 1136 m 251 1136 l 304 1389 l 400 1389 l 297 1136 l 251 1136 z "},"Ų":{"ha":739,"x_min":150,"x_max":587,"o":"m 150 0 m 369 -13 q 204 75 258 -13 q 150 324 150 163 l 150 1010 l 208 1010 l 208 324 q 246 110 208 182 q 369 39 283 39 q 492 110 455 39 q 529 324 529 182 l 529 1010 l 587 1010 l 587 324 q 533 75 587 163 q 369 -13 480 -13 m 443 -271 q 351 -234 386 -271 q 316 -135 316 -197 q 347 -34 316 -81 q 428 42 378 13 l 443 29 q 388 -38 405 -3 q 371 -120 371 -73 q 390 -196 371 -173 q 451 -220 409 -220 q 488 -217 470 -220 q 524 -210 506 -215 l 524 -261 q 484 -269 506 -266 q 443 -271 461 -271 z "},"V":{"ha":739,"x_min":93,"x_max":645,"o":"m 393 0 l 345 0 l 93 1010 l 154 1010 l 370 115 l 588 1010 l 645 1010 l 393 0 z "},"W":{"ha":739,"x_min":86,"x_max":653,"o":"m 496 0 l 370 668 l 242 0 l 184 0 l 86 1010 l 140 1010 l 221 116 l 341 771 l 403 771 l 520 130 l 597 1010 l 653 1010 l 554 0 l 496 0 z "},"Ŵ":{"ha":739,"x_min":86,"x_max":653,"o":"m 86 0 m 496 0 l 370 668 l 242 0 l 184 0 l 86 1010 l 140 1010 l 221 116 l 341 771 l 403 771 l 520 130 l 597 1010 l 653 1010 l 554 0 l 496 0 m 210 1167 l 186 1196 l 350 1410 l 389 1410 l 553 1196 l 530 1167 l 369 1356 l 210 1167 z "},"Ẁ":{"ha":739,"x_min":86,"x_max":653,"o":"m 86 0 m 496 0 l 370 668 l 242 0 l 184 0 l 86 1010 l 140 1010 l 221 116 l 341 771 l 403 771 l 520 130 l 597 1010 l 653 1010 l 554 0 l 496 0 m 395 1136 l 218 1389 l 309 1389 l 444 1136 l 395 1136 z "},"Ẃ":{"ha":739,"x_min":86,"x_max":653,"o":"m 86 0 m 496 0 l 370 668 l 242 0 l 184 0 l 86 1010 l 140 1010 l 221 116 l 341 771 l 403 771 l 520 130 l 597 1010 l 653 1010 l 554 0 l 496 0 m 303 1136 l 439 1389 l 529 1389 l 352 1136 l 303 1136 z "},"Ẅ":{"ha":739,"x_min":86,"x_max":653,"o":"m 86 0 m 496 0 l 370 668 l 242 0 l 184 0 l 86 1010 l 140 1010 l 221 116 l 341 771 l 403 771 l 520 130 l 597 1010 l 653 1010 l 554 0 l 496 0 m 270 1177 q 235 1186 249 1177 q 222 1221 222 1194 l 222 1230 q 235 1267 222 1258 q 270 1277 249 1277 q 304 1267 290 1277 q 317 1230 317 1258 l 317 1221 q 304 1186 317 1194 q 270 1177 290 1177 m 472 1177 q 439 1186 452 1177 q 426 1221 426 1194 l 426 1230 q 439 1267 426 1258 q 472 1277 452 1277 q 507 1267 494 1277 q 520 1230 520 1258 l 520 1221 q 506 1186 520 1194 q 472 1177 492 1177 z "},"X":{"ha":739,"x_min":73,"x_max":663,"o":"m 597 0 l 370 458 l 136 0 l 73 0 l 341 519 l 97 1010 l 160 1010 l 378 571 l 600 1010 l 663 1010 l 407 510 l 660 0 l 597 0 z "},"Y":{"ha":739,"x_min":69,"x_max":668,"o":"m 398 0 l 341 0 l 341 379 l 69 1010 l 134 1010 l 372 444 l 605 1010 l 668 1010 l 398 379 l 398 0 z "},"Ý":{"ha":739,"x_min":69,"x_max":668,"o":"m 69 0 m 398 0 l 341 0 l 341 379 l 69 1010 l 134 1010 l 372 444 l 605 1010 l 668 1010 l 398 379 l 398 0 m 297 1136 l 433 1389 l 523 1389 l 346 1136 l 297 1136 z "},"Ŷ":{"ha":739,"x_min":69,"x_max":668,"o":"m 69 0 m 398 0 l 341 0 l 341 379 l 69 1010 l 134 1010 l 372 444 l 605 1010 l 668 1010 l 398 379 l 398 0 m 210 1167 l 186 1196 l 350 1410 l 389 1410 l 553 1196 l 530 1167 l 369 1356 l 210 1167 z "},"Ÿ":{"ha":739,"x_min":69,"x_max":668,"o":"m 69 0 m 398 0 l 341 0 l 341 379 l 69 1010 l 134 1010 l 372 444 l 605 1010 l 668 1010 l 398 379 l 398 0 m 269 1177 q 234 1186 247 1177 q 221 1221 221 1194 l 221 1230 q 234 1267 221 1258 q 269 1277 247 1277 q 302 1267 289 1277 q 316 1230 316 1258 l 316 1221 q 302 1186 316 1194 q 269 1177 289 1177 m 471 1177 q 437 1186 451 1177 q 424 1221 424 1194 l 424 1230 q 437 1267 424 1258 q 471 1277 451 1277 q 506 1267 492 1277 q 519 1230 519 1258 l 519 1221 q 505 1186 519 1194 q 471 1177 491 1177 z "},"Ỳ":{"ha":739,"x_min":69,"x_max":668,"o":"m 69 0 m 398 0 l 341 0 l 341 379 l 69 1010 l 134 1010 l 372 444 l 605 1010 l 668 1010 l 398 379 l 398 0 m 389 1136 l 212 1389 l 303 1389 l 438 1136 l 389 1136 z "},"Z":{"ha":739,"x_min":131,"x_max":614,"o":"m 614 0 l 131 0 l 131 52 l 548 958 l 131 958 l 131 1010 l 614 1010 l 614 958 l 196 52 l 614 52 l 614 0 z "},"Ź":{"ha":739,"x_min":131,"x_max":614,"o":"m 131 0 m 614 0 l 131 0 l 131 52 l 548 958 l 131 958 l 131 1010 l 614 1010 l 614 958 l 196 52 l 614 52 l 614 0 m 324 1136 l 461 1389 l 551 1389 l 374 1136 l 324 1136 z "},"Ż":{"ha":739,"x_min":131,"x_max":614,"o":"m 131 0 m 614 0 l 131 0 l 131 52 l 548 958 l 131 958 l 131 1010 l 614 1010 l 614 958 l 196 52 l 614 52 l 614 0 m 370 1177 q 331 1186 346 1177 q 316 1221 316 1196 l 316 1230 q 331 1266 316 1256 q 370 1277 346 1277 q 409 1266 394 1277 q 424 1230 424 1256 l 424 1221 q 409 1186 424 1196 q 370 1177 394 1177 z "},"Ž":{"ha":739,"x_min":131,"x_max":614,"o":"m 131 0 m 614 0 l 131 0 l 131 52 l 548 958 l 131 958 l 131 1010 l 614 1010 l 614 958 l 196 52 l 614 52 l 614 0 m 351 1141 l 186 1356 l 210 1385 l 370 1196 l 530 1385 l 553 1356 l 390 1141 l 351 1141 z "},"Æ":{"ha":739,"x_min":52,"x_max":672,"o":"m 312 957 l 188 371 l 393 371 l 393 957 l 312 957 m 393 318 l 173 318 l 104 0 l 52 0 l 278 1010 l 672 1010 l 672 957 l 448 957 l 448 568 l 663 568 l 663 515 l 448 515 l 448 53 l 672 53 l 672 0 l 393 0 l 393 318 z "},"Ǽ":{"ha":739,"x_min":52,"x_max":672,"o":"m 52 0 m 312 957 l 188 371 l 393 371 l 393 957 l 312 957 m 393 318 l 173 318 l 104 0 l 52 0 l 278 1010 l 672 1010 l 672 957 l 448 957 l 448 568 l 663 568 l 663 515 l 448 515 l 448 53 l 672 53 l 672 0 l 393 0 l 393 318 m 417 1136 l 553 1389 l 643 1389 l 466 1136 l 417 1136 z "},"Ð":{"ha":739,"x_min":56,"x_max":606,"o":"m 56 527 l 56 578 l 350 578 l 350 527 l 56 527 m 150 0 l 150 1010 l 341 1010 q 536 914 466 1010 q 606 655 606 817 l 606 350 q 535 95 606 191 q 341 0 465 0 l 150 0 m 208 52 l 341 52 q 497 134 446 52 q 548 350 548 217 l 548 655 q 497 872 548 787 q 341 958 446 958 l 208 958 l 208 52 z "},"Ø":{"ha":739,"x_min":131,"x_max":606,"o":"m 222 117 l 460 946 q 419 965 442 958 q 369 971 396 971 q 230 898 271 971 q 189 655 189 824 l 189 350 q 198 213 189 270 q 222 117 206 155 m 369 39 q 507 111 466 39 q 548 350 548 183 l 548 655 q 537 811 548 747 q 503 912 527 875 l 261 76 q 308 48 282 57 q 369 39 335 39 m 369 -13 q 301 -3 332 -13 q 244 28 269 8 l 206 -92 l 148 -92 l 198 62 q 148 178 165 106 q 131 350 131 250 l 131 655 q 192 933 131 843 q 370 1023 253 1023 q 428 1016 402 1023 q 477 992 455 1009 l 513 1102 l 571 1102 l 525 963 q 586 843 566 920 q 606 655 606 766 l 606 350 q 546 75 606 163 q 369 -13 486 -13 z "},"Ǿ":{"ha":739,"x_min":131,"x_max":606,"o":"m 131 0 m 222 117 l 460 946 q 419 965 442 958 q 369 971 396 971 q 230 898 271 971 q 189 655 189 824 l 189 350 q 198 213 189 270 q 222 117 206 155 m 369 39 q 507 111 466 39 q 548 350 548 183 l 548 655 q 537 811 548 747 q 503 912 527 875 l 261 76 q 308 48 282 57 q 369 39 335 39 m 369 -13 q 301 -3 332 -13 q 244 28 269 8 l 206 -92 l 148 -92 l 198 62 q 148 178 165 106 q 131 350 131 250 l 131 655 q 192 933 131 843 q 370 1023 253 1023 q 428 1016 402 1023 q 477 992 455 1009 l 513 1102 l 571 1102 l 525 963 q 586 843 566 920 q 606 655 606 766 l 606 350 q 546 75 606 163 q 369 -13 486 -13 m 332 1136 l 468 1389 l 558 1389 l 381 1136 l 332 1136 z "},"Þ":{"ha":739,"x_min":152,"x_max":616,"o":"m 152 0 l 152 1010 l 208 1010 l 208 846 l 399 846 q 561 778 505 846 q 616 580 616 710 l 616 463 q 560 260 616 331 q 398 189 504 189 l 208 189 l 208 0 l 152 0 m 208 241 l 398 241 q 521 292 484 241 q 558 463 558 343 l 558 580 q 521 744 558 694 q 398 794 484 794 l 208 794 l 208 241 z "},"Đ":{"ha":739,"x_min":56,"x_max":606,"o":"m 56 527 l 56 578 l 350 578 l 350 527 l 56 527 m 150 0 l 150 1010 l 341 1010 q 536 914 466 1010 q 606 655 606 817 l 606 350 q 535 95 606 191 q 341 0 465 0 l 150 0 m 208 52 l 341 52 q 497 134 446 52 q 548 350 548 217 l 548 655 q 497 872 548 787 q 341 958 446 958 l 208 958 l 208 52 z "},"Ħ":{"ha":739,"x_min":56,"x_max":682,"o":"m 208 487 l 529 487 l 529 741 l 208 741 l 208 487 m 208 436 l 208 0 l 150 0 l 150 741 l 56 741 l 56 793 l 150 793 l 150 1010 l 208 1010 l 208 793 l 529 793 l 529 1010 l 587 1010 l 587 793 l 682 793 l 682 741 l 587 741 l 587 0 l 529 0 l 529 436 l 208 436 z "},"Ĳ":{"ha":739,"x_min":112,"x_max":626,"o":"m 170 0 l 112 0 l 112 1010 l 170 1010 l 170 0 m 456 -13 q 331 59 372 -13 q 284 290 289 131 l 342 297 q 374 100 348 160 q 457 39 400 39 q 543 99 518 39 q 568 302 568 159 l 568 958 l 370 958 l 370 1010 l 626 1010 l 626 303 q 586 61 626 134 q 456 -13 545 -13 z "},"Ŀ":{"ha":739,"x_min":198,"x_max":652,"o":"m 198 0 m 198 0 l 198 1010 l 255 1010 l 255 52 l 587 52 l 587 0 l 198 0 m 597 548 q 558 557 573 548 q 543 592 543 567 l 543 601 q 558 638 543 628 q 597 648 573 648 q 636 638 621 648 q 652 601 652 628 l 652 592 q 636 557 652 567 q 597 548 621 548 z "},"Ł":{"ha":739,"x_min":104,"x_max":587,"o":"m 104 437 l 104 490 l 492 667 l 492 614 l 104 437 m 198 0 l 198 1010 l 255 1010 l 255 52 l 587 52 l 587 0 l 198 0 z "},"Ŋ":{"ha":739,"x_min":150,"x_max":587,"o":"m 386 -263 q 323 -258 355 -263 q 256 -236 292 -253 l 270 -184 q 331 -205 303 -199 q 383 -211 359 -211 q 492 -147 455 -211 q 529 44 529 -83 l 529 725 q 496 905 529 845 q 399 965 462 965 q 299 927 342 965 q 208 807 255 889 l 208 0 l 150 0 l 150 1010 l 208 1010 l 208 859 l 222 859 q 306 980 258 938 q 414 1023 355 1023 q 540 951 494 1023 q 587 755 587 880 l 587 28 q 533 -185 587 -107 q 386 -263 479 -263 z "},"Œ":{"ha":739,"x_min":62,"x_max":682,"o":"m 297 0 q 124 97 187 0 q 62 362 62 193 l 62 643 q 124 912 62 814 q 295 1010 186 1010 l 682 1010 l 682 957 l 448 957 l 448 578 l 682 578 l 682 525 l 448 525 l 448 53 l 682 53 l 682 0 l 297 0 m 297 53 l 393 53 l 393 957 l 297 957 q 163 877 208 957 q 117 643 117 797 l 117 362 q 163 131 117 210 q 297 53 208 53 z "},"Ŧ":{"ha":739,"x_min":104,"x_max":635,"o":"m 152 426 l 152 477 l 587 477 l 587 426 l 152 426 m 341 0 l 341 958 l 104 958 l 104 1010 l 635 1010 l 635 958 l 398 958 l 398 0 l 341 0 z "},"Α":{"ha":739,"x_min":93,"x_max":645,"o":"m 93 0 m 495 370 l 369 895 l 241 370 l 495 370 m 585 0 l 508 318 l 229 318 l 150 0 l 93 0 l 345 1010 l 393 1010 l 645 0 l 585 0 z "},"Ά":{"ha":739,"x_min":69,"x_max":645,"o":"m 69 0 m 495 370 l 369 895 l 241 370 l 495 370 m 585 0 l 508 318 l 229 318 l 150 0 l 93 0 l 345 1010 l 393 1010 l 645 0 l 585 0 m 69 884 l 149 1136 l 237 1136 l 117 884 l 69 884 z "},"Β":{"ha":739,"x_min":150,"x_max":610,"o":"m 150 0 m 150 0 l 150 1010 l 374 1010 q 528 948 476 1010 q 580 773 580 886 l 580 716 q 552 599 580 648 q 476 539 524 551 l 476 530 q 573 463 537 523 q 610 314 610 404 l 610 258 q 554 67 610 134 q 390 0 497 0 l 150 0 m 208 554 l 376 554 q 489 596 455 554 q 524 735 524 638 l 524 770 q 489 915 524 871 q 376 958 455 958 l 208 958 l 208 554 m 208 52 l 395 52 q 515 100 479 52 q 552 258 552 148 l 552 298 q 515 455 552 408 q 395 503 479 503 l 208 503 l 208 52 z "},"Γ":{"ha":739,"x_min":150,"x_max":606,"o":"m 150 0 l 150 1010 l 606 1010 l 606 958 l 208 958 l 208 0 l 150 0 z "},"Δ":{"ha":739,"x_min":93,"x_max":644,"o":"m 93 0 l 93 52 l 341 1010 l 389 1010 l 644 52 l 644 0 l 93 0 m 586 52 l 367 910 l 149 52 l 586 52 z "},"Ε":{"ha":739,"x_min":152,"x_max":606,"o":"m 152 0 m 152 0 l 152 1010 l 606 1010 l 606 958 l 208 958 l 208 578 l 559 578 l 559 527 l 208 527 l 208 52 l 606 52 l 606 0 l 152 0 z "},"Έ":{"ha":739,"x_min":-64,"x_max":606,"o":"m 0 0 m 152 0 l 152 1010 l 606 1010 l 606 958 l 208 958 l 208 578 l 559 578 l 559 527 l 208 527 l 208 52 l 606 52 l 606 0 l 152 0 m -64 884 l 15 1136 l 104 1136 l -16 884 l -64 884 z "},"Ζ":{"ha":739,"x_min":131,"x_max":614,"o":"m 131 0 m 614 0 l 131 0 l 131 52 l 548 958 l 131 958 l 131 1010 l 614 1010 l 614 958 l 196 52 l 614 52 l 614 0 z "},"Η":{"ha":739,"x_min":150,"x_max":587,"o":"m 150 0 m 150 0 l 150 1010 l 208 1010 l 208 578 l 529 578 l 529 1010 l 587 1010 l 587 0 l 529 0 l 529 527 l 208 527 l 208 0 l 150 0 z "},"Ή":{"ha":739,"x_min":-76,"x_max":587,"o":"m 0 0 m 150 0 l 150 1010 l 208 1010 l 208 578 l 529 578 l 529 1010 l 587 1010 l 587 0 l 529 0 l 529 527 l 208 527 l 208 0 l 150 0 m -76 884 l 4 1136 l 92 1136 l -28 884 l -76 884 z "},"Θ":{"ha":739,"x_min":125,"x_max":612,"o":"m 369 -13 q 186 78 247 -13 q 125 350 125 169 l 125 655 q 187 931 125 838 q 370 1023 249 1023 q 551 931 490 1023 q 612 655 612 838 l 612 350 q 551 78 612 169 q 369 -13 490 -13 m 369 39 q 512 111 470 39 q 554 350 554 183 l 554 655 q 512 898 554 824 q 369 971 470 971 q 225 898 268 971 q 183 655 183 824 l 183 350 q 225 111 183 183 q 369 39 268 39 m 289 489 l 289 540 l 448 540 l 448 489 l 289 489 z "},"Ι":{"ha":739,"x_min":152,"x_max":587,"o":"m 152 0 m 152 0 l 152 52 l 341 52 l 341 958 l 152 958 l 152 1010 l 587 1010 l 587 958 l 398 958 l 398 52 l 587 52 l 587 0 l 152 0 z "},"Ί":{"ha":739,"x_min":-76,"x_max":587,"o":"m 0 0 m 152 0 l 152 52 l 341 52 l 341 958 l 152 958 l 152 1010 l 587 1010 l 587 958 l 398 958 l 398 52 l 587 52 l 587 0 l 152 0 m -76 884 l 4 1136 l 92 1136 l -28 884 l -76 884 z "},"Ϊ":{"ha":739,"x_min":152,"x_max":587,"o":"m 152 0 m 152 0 l 152 52 l 341 52 l 341 958 l 152 958 l 152 1010 l 587 1010 l 587 958 l 398 958 l 398 52 l 587 52 l 587 0 l 152 0 m 269 1177 q 234 1186 247 1177 q 221 1221 221 1194 l 221 1230 q 234 1267 221 1258 q 269 1277 247 1277 q 302 1267 289 1277 q 316 1230 316 1258 l 316 1221 q 302 1186 316 1194 q 269 1177 289 1177 m 471 1177 q 437 1186 451 1177 q 424 1221 424 1194 l 424 1230 q 437 1267 424 1258 q 471 1277 451 1277 q 506 1267 492 1277 q 519 1230 519 1258 l 519 1221 q 505 1186 519 1194 q 471 1177 491 1177 z "},"Κ":{"ha":739,"x_min":152,"x_max":644,"o":"m 152 0 m 208 508 l 208 0 l 152 0 l 152 1010 l 208 1010 l 208 559 l 278 559 l 574 1010 l 644 1010 l 330 543 l 640 0 l 569 0 l 282 508 l 208 508 z "},"Λ":{"ha":739,"x_min":93,"x_max":645,"o":"m 585 0 l 369 895 l 150 0 l 93 0 l 345 1010 l 393 1010 l 645 0 l 585 0 z "},"Μ":{"ha":739,"x_min":119,"x_max":620,"o":"m 119 0 m 340 253 l 174 896 l 174 0 l 119 0 l 119 1010 l 198 1010 l 371 330 l 543 1010 l 620 1010 l 620 0 l 564 0 l 564 900 l 399 253 l 340 253 z "},"Ν":{"ha":739,"x_min":150,"x_max":587,"o":"m 150 0 m 514 0 l 205 876 l 205 0 l 150 0 l 150 1010 l 217 1010 l 533 110 l 533 1010 l 587 1010 l 587 0 l 514 0 z "},"Ξ":{"ha":739,"x_min":133,"x_max":606,"o":"m 133 958 l 133 1010 l 606 1010 l 606 958 l 133 958 m 155 527 l 155 578 l 583 578 l 583 527 l 155 527 m 133 0 l 133 52 l 606 52 l 606 0 l 133 0 z "},"Ο":{"ha":739,"x_min":131,"x_max":606,"o":"m 131 0 m 369 -13 q 190 76 249 -13 q 131 337 131 164 l 131 668 q 190 932 131 842 q 370 1023 249 1023 q 548 932 490 1023 q 606 668 606 842 l 606 337 q 547 76 606 164 q 369 -13 489 -13 m 369 39 q 507 113 466 39 q 548 337 548 187 l 548 668 q 507 896 548 822 q 369 971 466 971 q 230 896 271 971 q 189 668 189 822 l 189 337 q 230 113 189 187 q 369 39 271 39 z "},"Ό":{"ha":739,"x_min":11,"x_max":610,"o":"m 11 0 m 372 -13 q 194 76 253 -13 q 135 337 135 164 l 135 668 q 194 932 135 842 q 374 1023 253 1023 q 552 932 494 1023 q 610 668 610 842 l 610 337 q 551 76 610 164 q 372 -13 492 -13 m 372 39 q 511 113 470 39 q 552 337 552 187 l 552 668 q 511 896 552 822 q 372 971 470 971 q 234 896 275 971 q 193 668 193 822 l 193 337 q 234 113 193 187 q 372 39 275 39 m 11 884 l 91 1136 l 179 1136 l 59 884 l 11 884 z "},"Π":{"ha":739,"x_min":150,"x_max":587,"o":"m 150 0 l 150 1010 l 587 1010 l 587 0 l 529 0 l 529 958 l 208 958 l 208 0 l 150 0 z "},"Ρ":{"ha":739,"x_min":152,"x_max":616,"o":"m 152 0 m 152 0 l 152 1010 l 399 1010 q 561 942 505 1010 q 616 744 616 874 l 616 620 q 561 422 616 490 q 398 354 505 354 l 208 354 l 208 0 l 152 0 m 208 405 l 398 405 q 521 456 484 405 q 558 622 558 506 l 558 739 q 521 907 558 856 q 398 958 484 958 l 208 958 l 208 405 z "},"Σ":{"ha":739,"x_min":122,"x_max":606,"o":"m 606 0 l 122 0 l 122 52 l 455 520 l 122 958 l 122 1010 l 606 1010 l 606 958 l 198 958 l 492 549 l 492 490 l 196 52 l 606 52 l 606 0 z "},"Τ":{"ha":739,"x_min":104,"x_max":635,"o":"m 104 0 m 341 0 l 341 958 l 104 958 l 104 1010 l 635 1010 l 635 958 l 398 958 l 398 0 l 341 0 z "},"Υ":{"ha":739,"x_min":69,"x_max":668,"o":"m 69 0 m 398 0 l 341 0 l 341 379 l 69 1010 l 134 1010 l 372 444 l 605 1010 l 668 1010 l 398 379 l 398 0 z "},"Ύ":{"ha":739,"x_min":-98,"x_max":668,"o":"m 0 0 m 398 0 l 341 0 l 341 379 l 69 1010 l 134 1010 l 372 444 l 605 1010 l 668 1010 l 398 379 l 398 0 m -98 884 l -19 1136 l 69 1136 l -51 884 l -98 884 z "},"Ϋ":{"ha":739,"x_min":69,"x_max":668,"o":"m 69 0 m 398 0 l 341 0 l 341 379 l 69 1010 l 134 1010 l 372 444 l 605 1010 l 668 1010 l 398 379 l 398 0 m 269 1177 q 234 1186 247 1177 q 221 1221 221 1194 l 221 1230 q 234 1267 221 1258 q 269 1277 247 1277 q 302 1267 289 1277 q 316 1230 316 1258 l 316 1221 q 302 1186 316 1194 q 269 1177 289 1177 m 471 1177 q 437 1186 451 1177 q 424 1221 424 1194 l 424 1230 q 437 1267 424 1258 q 471 1277 451 1277 q 506 1267 492 1277 q 519 1230 519 1258 l 519 1221 q 505 1186 519 1194 q 471 1177 491 1177 z "},"Φ":{"ha":739,"x_min":104,"x_max":635,"o":"m 104 0 m 448 114 l 398 114 l 398 -27 l 341 -27 l 341 114 l 292 114 q 152 186 199 114 q 104 398 104 259 l 104 607 q 152 823 104 750 q 292 896 199 896 l 341 896 l 341 1037 l 398 1037 l 398 896 l 448 896 q 588 823 540 896 q 635 607 635 750 l 635 398 q 588 186 635 259 q 448 114 540 114 m 448 845 l 398 845 l 398 165 l 448 165 q 547 221 516 165 q 577 398 577 277 l 577 607 q 547 789 577 732 q 448 845 516 845 m 292 165 l 341 165 l 341 845 l 292 845 q 193 789 223 845 q 162 607 162 732 l 162 398 q 193 221 162 277 q 292 165 223 165 z "},"Χ":{"ha":739,"x_min":73,"x_max":663,"o":"m 73 0 m 597 0 l 370 458 l 136 0 l 73 0 l 341 519 l 97 1010 l 160 1010 l 378 571 l 600 1010 l 663 1010 l 407 510 l 660 0 l 597 0 z "},"Ψ":{"ha":739,"x_min":129,"x_max":610,"o":"m 398 0 l 341 0 l 341 270 q 179 362 230 279 q 129 577 129 446 l 129 1010 l 186 1010 l 186 577 q 222 400 186 460 q 341 333 258 340 l 341 1010 l 398 1010 l 398 333 q 517 400 481 340 q 553 577 553 460 l 553 1010 l 610 1010 l 610 577 q 559 362 610 446 q 398 270 509 279 l 398 0 z "},"Ω":{"ha":739,"x_min":122,"x_max":616,"o":"m 303 0 l 122 0 l 122 52 l 246 52 l 246 241 q 152 343 182 266 q 122 519 122 419 l 122 655 q 184 929 122 835 q 370 1023 245 1023 q 556 929 495 1023 q 616 655 616 835 l 616 519 q 586 343 616 419 q 492 241 557 266 l 492 52 l 616 52 l 616 0 l 436 0 l 436 277 q 532 361 505 301 q 558 519 558 422 l 558 655 q 515 898 558 824 q 370 971 471 971 q 224 898 268 971 q 181 655 181 824 l 181 519 q 207 361 181 422 q 303 277 234 301 l 303 0 z "},"Ώ":{"ha":739,"x_min":-15,"x_max":616,"o":"m 0 0 m 303 0 l 122 0 l 122 52 l 246 52 l 246 241 q 152 343 182 266 q 122 519 122 419 l 122 655 q 184 929 122 835 q 370 1023 245 1023 q 556 929 495 1023 q 616 655 616 835 l 616 519 q 586 343 616 419 q 492 241 557 266 l 492 52 l 616 52 l 616 0 l 436 0 l 436 277 q 532 361 505 301 q 558 519 558 422 l 558 655 q 515 898 558 824 q 370 971 471 971 q 224 898 268 971 q 181 655 181 824 l 181 519 q 207 361 181 422 q 303 277 234 301 l 303 0 m -15 884 l 64 1136 l 153 1136 l 33 884 l -15 884 z "},"Ω":{"ha":739,"x_min":122,"x_max":616,"o":"m 122 0 m 303 0 l 122 0 l 122 52 l 246 52 l 246 241 q 152 343 182 266 q 122 519 122 419 l 122 655 q 184 929 122 835 q 370 1023 245 1023 q 556 929 495 1023 q 616 655 616 835 l 616 519 q 586 343 616 419 q 492 241 557 266 l 492 52 l 616 52 l 616 0 l 436 0 l 436 277 q 532 361 505 301 q 558 519 558 422 l 558 655 q 515 898 558 824 q 370 971 471 971 q 224 898 268 971 q 181 655 181 824 l 181 519 q 207 361 181 422 q 303 277 234 301 l 303 0 z "},"Ђ":{"ha":739,"x_min":85,"x_max":625,"o":"m 227 0 l 227 958 l 85 958 l 85 1010 l 521 1010 l 521 958 l 284 958 l 284 629 l 412 629 q 571 571 518 629 q 625 403 625 513 l 625 254 q 575 65 625 130 q 427 0 525 0 l 427 49 q 533 98 499 49 q 568 256 568 146 l 568 400 q 530 538 568 496 q 412 580 492 580 l 284 580 l 284 0 l 227 0 z "},"Є":{"ha":739,"x_min":131,"x_max":622,"o":"m 622 290 q 556 65 616 143 q 379 -13 495 -13 q 194 71 258 -13 q 131 324 131 155 l 131 681 q 194 937 131 852 q 379 1023 258 1023 q 556 944 495 1023 q 622 715 616 865 l 564 710 q 513 910 556 848 q 379 971 470 971 q 233 903 277 971 q 189 681 189 836 l 189 578 l 404 578 l 404 527 l 189 527 l 189 324 q 233 105 189 172 q 379 39 277 39 q 513 100 471 39 q 564 295 556 160 l 622 290 z "},"Ѕ":{"ha":739,"x_min":128,"x_max":611,"o":"m 128 0 m 366 -6 q 235 21 297 -6 q 128 87 173 48 l 157 133 q 259 68 207 90 q 366 45 312 45 q 502 101 448 45 q 556 256 556 157 q 518 394 556 343 q 371 496 481 444 q 200 609 258 551 q 143 773 143 668 q 205 949 143 885 q 367 1014 266 1014 q 484 991 428 1014 q 577 938 539 967 l 551 890 q 460 943 506 923 q 367 962 414 962 q 241 912 284 962 q 198 778 198 861 q 244 646 198 692 q 396 548 290 600 q 559 431 508 494 q 611 256 611 367 q 541 66 611 138 q 366 -6 471 -6 z "},"І":{"ha":739,"x_min":152,"x_max":587,"o":"m 152 0 m 152 0 l 152 52 l 341 52 l 341 958 l 152 958 l 152 1010 l 587 1010 l 587 958 l 398 958 l 398 52 l 587 52 l 587 0 l 152 0 z "},"Ї":{"ha":739,"x_min":152,"x_max":587,"o":"m 152 0 m 152 0 l 152 52 l 341 52 l 341 958 l 152 958 l 152 1010 l 587 1010 l 587 958 l 398 958 l 398 52 l 587 52 l 587 0 l 152 0 m 269 1177 q 234 1186 247 1177 q 221 1221 221 1194 l 221 1230 q 234 1267 221 1258 q 269 1277 247 1277 q 302 1267 289 1277 q 316 1230 316 1258 l 316 1221 q 302 1186 316 1194 q 269 1177 289 1177 m 471 1177 q 437 1186 451 1177 q 424 1221 424 1194 l 424 1230 q 437 1267 424 1258 q 471 1277 451 1277 q 506 1267 492 1277 q 519 1230 519 1258 l 519 1221 q 505 1186 519 1194 q 471 1177 491 1177 z "},"Ј":{"ha":739,"x_min":114,"x_max":587,"o":"m 114 0 m 350 -13 q 176 61 232 -13 q 114 294 119 135 l 170 302 q 218 98 179 157 q 347 39 256 39 q 487 107 443 39 q 530 327 530 176 l 530 958 l 322 958 l 322 1010 l 587 1010 l 587 328 q 528 71 587 155 q 350 -13 468 -13 z "},"Љ":{"ha":739,"x_min":32,"x_max":628,"o":"m 188 182 q 158 36 187 80 q 87 -8 129 -8 q 60 -4 74 -9 q 32 5 45 0 l 45 64 q 62 57 54 61 q 80 54 71 54 q 116 81 100 54 q 133 192 131 107 l 144 1010 l 396 1010 l 396 631 l 461 631 q 586 568 544 631 q 628 378 628 504 l 628 254 q 586 64 628 129 q 462 0 544 0 l 341 0 l 341 958 l 197 958 l 188 182 m 396 52 l 461 52 q 542 97 511 52 q 572 259 572 141 l 572 375 q 542 536 572 492 q 461 580 511 580 l 396 580 l 396 52 z "},"Њ":{"ha":739,"x_min":110,"x_max":628,"o":"m 396 52 l 463 52 q 542 97 513 52 q 572 259 572 141 l 572 375 q 542 536 572 492 q 463 580 513 580 l 396 580 l 396 52 m 165 554 l 165 0 l 110 0 l 110 1010 l 165 1010 l 165 606 l 341 606 l 341 1010 l 396 1010 l 396 631 l 463 631 q 586 568 545 631 q 628 378 628 504 l 628 254 q 587 64 628 129 q 465 0 547 0 l 341 0 l 341 554 l 165 554 z "},"Ћ":{"ha":739,"x_min":76,"x_max":625,"o":"m 275 0 l 217 0 l 217 958 l 76 958 l 76 1010 l 511 1010 l 511 958 l 275 958 l 275 593 l 427 593 q 575 533 525 593 q 625 352 625 472 l 625 0 l 568 0 l 568 350 q 535 499 568 456 q 427 542 503 542 l 275 542 l 275 0 z "},"Џ":{"ha":739,"x_min":150,"x_max":587,"o":"m 340 -189 l 340 0 l 150 0 l 150 1010 l 208 1010 l 208 52 l 529 52 l 529 1010 l 587 1010 l 587 0 l 398 0 l 398 -189 l 340 -189 z "},"А":{"ha":739,"x_min":93,"x_max":645,"o":"m 93 0 m 495 370 l 369 895 l 241 370 l 495 370 m 585 0 l 508 318 l 229 318 l 150 0 l 93 0 l 345 1010 l 393 1010 l 645 0 l 585 0 z "},"Б":{"ha":739,"x_min":150,"x_max":600,"o":"m 150 0 l 150 1010 l 563 1010 l 563 958 l 208 958 l 208 583 l 394 583 q 546 521 492 583 q 600 347 600 458 l 600 254 q 546 67 600 134 q 394 0 492 0 l 150 0 m 208 52 l 383 52 q 504 104 465 52 q 543 260 543 155 l 543 341 q 504 484 543 437 q 383 532 465 532 l 208 532 l 208 52 z "},"В":{"ha":739,"x_min":150,"x_max":610,"o":"m 150 0 m 150 0 l 150 1010 l 374 1010 q 528 948 476 1010 q 580 773 580 886 l 580 716 q 552 599 580 648 q 476 539 524 551 l 476 530 q 573 463 537 523 q 610 314 610 404 l 610 258 q 554 67 610 134 q 390 0 497 0 l 150 0 m 208 554 l 376 554 q 489 596 455 554 q 524 735 524 638 l 524 770 q 489 915 524 871 q 376 958 455 958 l 208 958 l 208 554 m 208 52 l 395 52 q 515 100 479 52 q 552 258 552 148 l 552 298 q 515 455 552 408 q 395 503 479 503 l 208 503 l 208 52 z "},"Г":{"ha":739,"x_min":150,"x_max":606,"o":"m 150 0 m 150 0 l 150 1010 l 606 1010 l 606 958 l 208 958 l 208 0 l 150 0 z "},"Ѓ":{"ha":739,"x_min":150,"x_max":606,"o":"m 150 0 m 150 0 l 150 1010 l 606 1010 l 606 958 l 208 958 l 208 0 l 150 0 m 337 1136 l 473 1389 l 563 1389 l 386 1136 l 337 1136 z "},"Д":{"ha":739,"x_min":66,"x_max":665,"o":"m 186 62 l 186 52 l 513 52 l 513 958 l 246 958 l 242 357 q 229 165 241 232 q 186 62 216 98 m 124 0 l 124 -189 l 66 -189 l 66 52 l 120 52 q 171 162 154 87 q 189 365 188 237 l 192 1010 l 571 1010 l 571 52 l 665 52 l 665 -189 l 607 -189 l 607 0 l 124 0 z "},"Е":{"ha":739,"x_min":152,"x_max":606,"o":"m 152 0 m 152 0 l 152 1010 l 606 1010 l 606 958 l 208 958 l 208 578 l 559 578 l 559 527 l 208 527 l 208 52 l 606 52 l 606 0 l 152 0 z "},"Ѐ":{"ha":739,"x_min":152,"x_max":606,"o":"m 152 0 m 152 0 l 152 1010 l 606 1010 l 606 958 l 208 958 l 208 578 l 559 578 l 559 527 l 208 527 l 208 52 l 606 52 l 606 0 l 152 0 m 407 1136 l 230 1389 l 321 1389 l 456 1136 l 407 1136 z "},"Ё":{"ha":739,"x_min":152,"x_max":606,"o":"m 152 0 m 152 0 l 152 1010 l 606 1010 l 606 958 l 208 958 l 208 578 l 559 578 l 559 527 l 208 527 l 208 52 l 606 52 l 606 0 l 152 0 m 293 1177 q 258 1186 271 1177 q 245 1221 245 1194 l 245 1230 q 258 1267 245 1258 q 293 1277 271 1277 q 326 1267 313 1277 q 340 1230 340 1258 l 340 1221 q 326 1186 340 1194 q 293 1177 313 1177 m 495 1177 q 461 1186 475 1177 q 448 1221 448 1194 l 448 1230 q 461 1267 448 1258 q 495 1277 475 1277 q 530 1267 516 1277 q 543 1230 543 1258 l 543 1221 q 529 1186 543 1194 q 495 1177 515 1177 z "},"Ж":{"ha":739,"x_min":58,"x_max":682,"o":"m 278 516 l 117 0 l 61 0 l 234 543 l 58 1010 l 115 1010 l 275 566 l 343 566 l 343 1010 l 396 1010 l 396 566 l 461 566 l 625 1010 l 682 1010 l 504 548 l 679 0 l 621 0 l 461 516 l 396 516 l 396 0 l 343 0 l 343 516 l 278 516 z "},"З":{"ha":739,"x_min":122,"x_max":615,"o":"m 366 -13 q 187 50 246 -13 q 122 242 128 112 l 179 250 q 231 86 188 135 q 366 37 274 37 q 513 88 468 37 q 557 261 557 140 l 557 321 q 520 460 557 419 q 396 501 484 501 l 293 501 l 293 553 l 396 553 q 499 590 468 553 q 529 715 529 626 l 529 780 q 490 929 529 885 q 360 973 451 973 q 244 929 280 973 q 198 779 207 884 l 141 787 q 200 965 146 907 q 360 1023 254 1023 q 530 963 473 1023 q 587 780 587 903 l 587 715 q 557 588 587 633 q 477 532 528 543 l 477 523 q 578 461 542 516 q 615 321 615 407 l 615 261 q 555 54 615 121 q 366 -13 495 -13 z "},"И":{"ha":739,"x_min":150,"x_max":587,"o":"m 532 0 l 532 872 l 223 0 l 150 0 l 150 1010 l 206 1010 l 206 112 l 523 1010 l 587 1010 l 587 0 l 532 0 z "},"Ѝ":{"ha":739,"x_min":150,"x_max":587,"o":"m 150 0 m 532 0 l 532 872 l 223 0 l 150 0 l 150 1010 l 206 1010 l 206 112 l 523 1010 l 587 1010 l 587 0 l 532 0 m 376 1136 l 199 1389 l 290 1389 l 426 1136 l 376 1136 z "},"Й":{"ha":739,"x_min":150,"x_max":587,"o":"m 150 0 m 532 0 l 532 872 l 223 0 l 150 0 l 150 1010 l 206 1010 l 206 112 l 523 1010 l 587 1010 l 587 0 l 532 0 m 376 1128 q 241 1182 297 1128 q 183 1374 184 1237 l 241 1380 q 274 1225 242 1271 q 376 1179 306 1179 q 479 1225 447 1179 q 511 1380 510 1271 l 569 1374 q 512 1182 568 1237 q 376 1128 456 1128 z "},"К":{"ha":739,"x_min":152,"x_max":644,"o":"m 152 0 m 208 508 l 208 0 l 152 0 l 152 1010 l 208 1010 l 208 559 l 278 559 l 574 1010 l 644 1010 l 330 543 l 640 0 l 569 0 l 282 508 l 208 508 z "},"Ќ":{"ha":739,"x_min":152,"x_max":644,"o":"m 152 0 m 208 508 l 208 0 l 152 0 l 152 1010 l 208 1010 l 208 559 l 278 559 l 574 1010 l 644 1010 l 330 543 l 640 0 l 569 0 l 282 508 l 208 508 m 361 1136 l 497 1389 l 587 1389 l 410 1136 l 361 1136 z "},"Л":{"ha":739,"x_min":45,"x_max":587,"o":"m 529 0 l 529 958 l 264 958 l 261 271 q 220 56 260 124 q 112 -13 181 -13 q 76 -10 92 -13 q 45 0 59 -8 l 57 49 q 81 42 69 44 q 104 39 92 39 q 182 98 158 39 q 207 288 207 157 l 210 1010 l 587 1010 l 587 0 l 529 0 z "},"М":{"ha":739,"x_min":119,"x_max":620,"o":"m 119 0 m 340 253 l 174 896 l 174 0 l 119 0 l 119 1010 l 198 1010 l 371 330 l 543 1010 l 620 1010 l 620 0 l 564 0 l 564 900 l 399 253 l 340 253 z "},"Н":{"ha":739,"x_min":150,"x_max":587,"o":"m 150 0 m 150 0 l 150 1010 l 208 1010 l 208 578 l 529 578 l 529 1010 l 587 1010 l 587 0 l 529 0 l 529 527 l 208 527 l 208 0 l 150 0 z "},"О":{"ha":739,"x_min":131,"x_max":606,"o":"m 131 0 m 369 -13 q 190 76 249 -13 q 131 337 131 164 l 131 668 q 190 932 131 842 q 370 1023 249 1023 q 548 932 490 1023 q 606 668 606 842 l 606 337 q 547 76 606 164 q 369 -13 489 -13 m 369 39 q 507 113 466 39 q 548 337 548 187 l 548 668 q 507 896 548 822 q 369 971 466 971 q 230 896 271 971 q 189 668 189 822 l 189 337 q 230 113 189 187 q 369 39 271 39 z "},"П":{"ha":739,"x_min":150,"x_max":587,"o":"m 150 0 m 150 0 l 150 1010 l 587 1010 l 587 0 l 529 0 l 529 958 l 208 958 l 208 0 l 150 0 z "},"Р":{"ha":739,"x_min":152,"x_max":616,"o":"m 152 0 m 152 0 l 152 1010 l 399 1010 q 561 942 505 1010 q 616 744 616 874 l 616 620 q 561 422 616 490 q 398 354 505 354 l 208 354 l 208 0 l 152 0 m 208 405 l 398 405 q 521 456 484 405 q 558 622 558 506 l 558 739 q 521 907 558 856 q 398 958 484 958 l 208 958 l 208 405 z "},"С":{"ha":739,"x_min":131,"x_max":622,"o":"m 131 0 m 379 -13 q 194 73 258 -13 q 131 336 131 158 l 131 669 q 194 934 131 846 q 379 1023 258 1023 q 555 948 494 1023 q 622 715 616 872 l 564 710 q 513 913 556 855 q 379 971 470 971 q 233 898 277 971 q 189 668 189 826 l 189 337 q 233 110 189 182 q 379 39 277 39 q 520 100 477 39 q 564 295 562 160 l 622 290 q 560 66 621 144 q 379 -13 499 -13 z "},"Т":{"ha":739,"x_min":104,"x_max":635,"o":"m 104 0 m 341 0 l 341 958 l 104 958 l 104 1010 l 635 1010 l 635 958 l 398 958 l 398 0 l 341 0 z "},"У":{"ha":739,"x_min":98,"x_max":639,"o":"m 230 -11 q 198 -9 213 -11 q 165 -1 182 -6 l 176 51 q 204 44 192 45 q 231 42 216 42 q 303 76 277 42 q 355 206 330 111 l 360 225 l 338 225 l 98 1010 l 159 1010 l 376 282 l 581 1010 l 639 1010 l 400 191 q 327 32 366 74 q 230 -11 288 -11 z "},"Ў":{"ha":739,"x_min":98,"x_max":639,"o":"m 98 0 m 230 -11 q 198 -9 213 -11 q 165 -1 182 -6 l 176 51 q 204 44 192 45 q 231 42 216 42 q 303 76 277 42 q 355 206 330 111 l 360 225 l 338 225 l 98 1010 l 159 1010 l 376 282 l 581 1010 l 639 1010 l 400 191 q 327 32 366 74 q 230 -11 288 -11 m 370 1128 q 234 1182 290 1128 q 177 1374 178 1237 l 235 1380 q 268 1225 236 1271 q 370 1179 299 1179 q 472 1225 441 1179 q 505 1380 504 1271 l 563 1374 q 506 1182 562 1237 q 370 1128 449 1128 z "},"Ф":{"ha":739,"x_min":104,"x_max":635,"o":"m 448 114 l 398 114 l 398 -27 l 341 -27 l 341 114 l 292 114 q 152 186 199 114 q 104 398 104 259 l 104 607 q 152 823 104 750 q 292 896 199 896 l 341 896 l 341 1037 l 398 1037 l 398 896 l 448 896 q 588 823 540 896 q 635 607 635 750 l 635 398 q 588 186 635 259 q 448 114 540 114 m 448 845 l 398 845 l 398 165 l 448 165 q 547 221 516 165 q 577 398 577 277 l 577 607 q 547 789 577 732 q 448 845 516 845 m 292 165 l 341 165 l 341 845 l 292 845 q 193 789 223 845 q 162 607 162 732 l 162 398 q 193 221 162 277 q 292 165 223 165 z "},"Х":{"ha":739,"x_min":73,"x_max":663,"o":"m 73 0 m 597 0 l 370 458 l 136 0 l 73 0 l 341 519 l 97 1010 l 160 1010 l 378 571 l 600 1010 l 663 1010 l 407 510 l 660 0 l 597 0 z "},"Ц":{"ha":739,"x_min":150,"x_max":634,"o":"m 577 -189 l 577 0 l 150 0 l 150 1010 l 208 1010 l 208 52 l 482 52 l 482 1010 l 539 1010 l 539 52 l 634 52 l 634 -189 l 577 -189 z "},"Ч":{"ha":739,"x_min":152,"x_max":587,"o":"m 587 1010 l 587 0 l 530 0 l 530 366 l 370 366 q 202 423 253 366 q 152 607 152 480 l 152 1010 l 208 1010 l 208 610 q 246 462 208 506 q 370 418 283 418 l 530 418 l 530 1010 l 587 1010 z "},"Ш":{"ha":739,"x_min":105,"x_max":634,"o":"m 105 0 l 105 1010 l 162 1010 l 162 52 l 341 52 l 341 1010 l 398 1010 l 398 52 l 577 52 l 577 1010 l 634 1010 l 634 0 l 105 0 z "},"Щ":{"ha":739,"x_min":105,"x_max":673,"o":"m 673 -189 l 617 -189 l 617 0 l 105 0 l 105 1010 l 162 1010 l 162 52 l 341 52 l 341 1010 l 398 1010 l 398 52 l 577 52 l 577 1010 l 634 1010 l 634 52 l 673 52 l 673 -189 z "},"Ъ":{"ha":739,"x_min":58,"x_max":634,"o":"m 443 0 l 245 0 l 245 958 l 58 958 l 58 1010 l 303 1010 l 303 631 l 442 631 q 585 568 537 631 q 634 378 634 505 l 634 254 q 586 63 634 126 q 443 0 538 0 m 303 52 l 442 52 q 545 100 514 52 q 577 259 577 148 l 577 375 q 545 534 577 486 q 442 582 514 582 l 303 582 l 303 52 z "},"Ы":{"ha":739,"x_min":129,"x_max":610,"o":"m 129 0 l 129 1010 l 184 1010 l 184 631 l 266 631 q 395 566 355 631 q 434 378 434 500 l 434 254 q 395 65 434 130 q 268 0 355 0 l 129 0 m 554 0 l 554 1010 l 610 1010 l 610 0 l 554 0 m 184 52 l 266 52 q 351 100 324 52 q 378 259 378 149 l 378 375 q 351 533 378 485 q 266 582 324 582 l 184 582 l 184 52 z "},"Ь":{"ha":739,"x_min":152,"x_max":616,"o":"m 152 0 l 152 1010 l 208 1010 l 208 634 l 398 634 q 561 568 506 634 q 616 378 616 503 l 616 254 q 561 65 616 130 q 399 0 506 0 l 152 0 m 208 52 l 398 52 q 520 100 481 52 q 558 259 558 149 l 558 375 q 520 533 558 485 q 398 582 481 582 l 208 582 l 208 52 z "},"Э":{"ha":739,"x_min":131,"x_max":625,"o":"m 379 -13 q 199 66 261 -13 q 131 293 138 145 l 189 301 q 241 100 198 162 q 379 39 284 39 q 523 105 480 39 q 567 324 567 172 l 567 527 l 311 527 l 311 578 l 567 578 l 567 681 q 523 903 567 836 q 379 971 480 971 q 242 909 287 971 q 189 705 198 847 l 131 712 q 199 943 138 862 q 378 1023 261 1023 q 564 934 503 1023 q 625 681 625 846 l 625 324 q 564 74 625 162 q 379 -13 503 -13 z "},"Ю":{"ha":739,"x_min":109,"x_max":629,"o":"m 455 -13 q 330 57 371 -13 q 289 273 289 126 l 289 527 l 165 527 l 165 0 l 109 0 l 109 1010 l 165 1010 l 165 580 l 289 580 l 289 732 q 330 952 289 881 q 456 1023 371 1023 q 586 952 543 1023 q 629 732 629 881 l 629 273 q 586 57 629 126 q 455 -13 543 -13 m 455 39 q 545 93 518 39 q 572 273 572 148 l 572 732 q 545 915 572 860 q 455 971 518 971 q 370 915 395 971 q 345 732 345 860 l 345 273 q 370 93 345 148 q 455 39 395 39 z "},"Я":{"ha":739,"x_min":90,"x_max":586,"o":"m 321 449 l 528 449 l 528 958 l 321 958 q 198 910 235 958 q 160 751 160 861 l 160 653 q 198 497 160 544 q 321 449 235 449 m 528 396 l 347 396 l 154 0 l 90 0 l 284 398 q 148 471 193 407 q 102 650 102 535 l 102 756 q 156 945 102 880 q 319 1010 210 1010 l 586 1010 l 586 0 l 528 0 l 528 396 z "},"Ґ":{"ha":739,"x_min":150,"x_max":606,"o":"m 150 0 l 150 1010 l 548 1010 l 548 1199 l 606 1199 l 606 958 l 208 958 l 208 0 l 150 0 z "},"a":{"ha":739,"x_min":111,"x_max":660,"o":"m 312 38 q 410 68 366 38 q 490 153 453 97 l 490 350 l 298 350 q 200 319 236 350 q 164 211 164 289 q 200 83 164 128 q 312 38 236 38 m 306 -13 q 164 45 216 -13 q 111 203 111 104 q 159 347 111 294 q 294 399 207 399 l 490 399 l 490 566 q 449 678 490 638 q 340 718 409 718 q 233 687 268 718 q 179 572 198 655 l 129 587 q 199 728 150 686 q 338 770 247 770 q 490 715 433 770 q 547 566 547 660 l 547 189 q 571 68 547 97 q 660 54 596 39 l 660 0 q 556 15 597 -13 q 510 111 515 42 l 501 111 q 422 21 476 56 q 306 -13 367 -13 z "},"à":{"ha":739,"x_min":111,"x_max":660,"o":"m 111 0 m 312 38 q 410 68 366 38 q 490 153 453 97 l 490 350 l 298 350 q 200 319 236 350 q 164 211 164 289 q 200 83 164 128 q 312 38 236 38 m 306 -13 q 164 45 216 -13 q 111 203 111 104 q 159 347 111 294 q 294 399 207 399 l 490 399 l 490 566 q 449 678 490 638 q 340 718 409 718 q 233 687 268 718 q 179 572 198 655 l 129 587 q 199 728 150 686 q 338 770 247 770 q 490 715 433 770 q 547 566 547 660 l 547 189 q 571 68 547 97 q 660 54 596 39 l 660 0 q 556 15 597 -13 q 510 111 515 42 l 501 111 q 422 21 476 56 q 306 -13 367 -13 m 371 884 l 194 1136 l 285 1136 l 420 884 l 371 884 z "},"á":{"ha":739,"x_min":111,"x_max":660,"o":"m 111 0 m 312 38 q 410 68 366 38 q 490 153 453 97 l 490 350 l 298 350 q 200 319 236 350 q 164 211 164 289 q 200 83 164 128 q 312 38 236 38 m 306 -13 q 164 45 216 -13 q 111 203 111 104 q 159 347 111 294 q 294 399 207 399 l 490 399 l 490 566 q 449 678 490 638 q 340 718 409 718 q 233 687 268 718 q 179 572 198 655 l 129 587 q 199 728 150 686 q 338 770 247 770 q 490 715 433 770 q 547 566 547 660 l 547 189 q 571 68 547 97 q 660 54 596 39 l 660 0 q 556 15 597 -13 q 510 111 515 42 l 501 111 q 422 21 476 56 q 306 -13 367 -13 m 279 884 l 415 1136 l 505 1136 l 328 884 l 279 884 z "},"â":{"ha":739,"x_min":111,"x_max":660,"o":"m 111 0 m 312 38 q 410 68 366 38 q 490 153 453 97 l 490 350 l 298 350 q 200 319 236 350 q 164 211 164 289 q 200 83 164 128 q 312 38 236 38 m 306 -13 q 164 45 216 -13 q 111 203 111 104 q 159 347 111 294 q 294 399 207 399 l 490 399 l 490 566 q 449 678 490 638 q 340 718 409 718 q 233 687 268 718 q 179 572 198 655 l 129 587 q 199 728 150 686 q 338 770 247 770 q 490 715 433 770 q 547 566 547 660 l 547 189 q 571 68 547 97 q 660 54 596 39 l 660 0 q 556 15 597 -13 q 510 111 515 42 l 501 111 q 422 21 476 56 q 306 -13 367 -13 m 199 914 l 176 943 l 340 1158 l 379 1158 l 543 943 l 520 914 l 359 1104 l 199 914 z "},"ã":{"ha":739,"x_min":111,"x_max":660,"o":"m 111 0 m 312 38 q 410 68 366 38 q 490 153 453 97 l 490 350 l 298 350 q 200 319 236 350 q 164 211 164 289 q 200 83 164 128 q 312 38 236 38 m 306 -13 q 164 45 216 -13 q 111 203 111 104 q 159 347 111 294 q 294 399 207 399 l 490 399 l 490 566 q 449 678 490 638 q 340 718 409 718 q 233 687 268 718 q 179 572 198 655 l 129 587 q 199 728 150 686 q 338 770 247 770 q 490 715 433 770 q 547 566 547 660 l 547 189 q 571 68 547 97 q 660 54 596 39 l 660 0 q 556 15 597 -13 q 510 111 515 42 l 501 111 q 422 21 476 56 q 306 -13 367 -13 m 433 896 q 379 921 402 896 q 332 1014 357 946 q 301 1085 314 1067 q 270 1104 287 1104 q 230 1059 244 1104 q 218 923 217 1015 l 218 909 l 172 909 l 172 928 q 197 1093 172 1038 q 271 1149 222 1149 q 326 1126 304 1149 q 370 1039 347 1104 q 405 962 391 982 q 434 942 419 942 q 473 986 460 942 q 486 1122 486 1030 l 486 1136 l 533 1136 l 533 1117 q 508 952 533 1008 q 433 896 482 896 z "},"ä":{"ha":739,"x_min":111,"x_max":660,"o":"m 111 0 m 312 38 q 410 68 366 38 q 490 153 453 97 l 490 350 l 298 350 q 200 319 236 350 q 164 211 164 289 q 200 83 164 128 q 312 38 236 38 m 306 -13 q 164 45 216 -13 q 111 203 111 104 q 159 347 111 294 q 294 399 207 399 l 490 399 l 490 566 q 449 678 490 638 q 340 718 409 718 q 233 687 268 718 q 179 572 198 655 l 129 587 q 199 728 150 686 q 338 770 247 770 q 490 715 433 770 q 547 566 547 660 l 547 189 q 571 68 547 97 q 660 54 596 39 l 660 0 q 556 15 597 -13 q 510 111 515 42 l 501 111 q 422 21 476 56 q 306 -13 367 -13 m 251 924 q 217 933 230 924 q 203 968 203 942 l 203 977 q 217 1015 203 1005 q 251 1024 230 1024 q 285 1015 271 1024 q 298 977 298 1005 l 298 968 q 285 933 298 942 q 251 924 271 924 m 453 924 q 420 933 433 924 q 407 968 407 942 l 407 977 q 420 1015 407 1005 q 453 1024 433 1024 q 488 1015 475 1024 q 501 977 501 1005 l 501 968 q 487 933 501 942 q 453 924 473 924 z "},"å":{"ha":739,"x_min":111,"x_max":660,"o":"m 111 0 m 312 38 q 410 68 366 38 q 490 153 453 97 l 490 350 l 298 350 q 200 319 236 350 q 164 211 164 289 q 200 83 164 128 q 312 38 236 38 m 306 -13 q 164 45 216 -13 q 111 203 111 104 q 159 347 111 294 q 294 399 207 399 l 490 399 l 490 566 q 449 678 490 638 q 340 718 409 718 q 233 687 268 718 q 179 572 198 655 l 129 587 q 199 728 150 686 q 338 770 247 770 q 490 715 433 770 q 547 566 547 660 l 547 189 q 571 68 547 97 q 660 54 596 39 l 660 0 q 556 15 597 -13 q 510 111 515 42 l 501 111 q 422 21 476 56 q 306 -13 367 -13 m 351 865 q 251 908 287 865 q 215 1035 215 952 l 215 1101 q 251 1230 215 1186 q 351 1275 287 1275 q 451 1230 415 1275 q 487 1101 487 1186 l 487 1035 q 451 908 487 952 q 351 865 415 865 m 351 913 q 415 942 395 913 q 436 1035 436 971 l 436 1101 q 415 1197 436 1167 q 351 1227 395 1227 q 287 1197 307 1227 q 266 1101 266 1167 l 266 1035 q 287 942 266 971 q 351 913 307 913 z "},"ā":{"ha":739,"x_min":111,"x_max":660,"o":"m 111 0 m 312 38 q 410 68 366 38 q 490 153 453 97 l 490 350 l 298 350 q 200 319 236 350 q 164 211 164 289 q 200 83 164 128 q 312 38 236 38 m 306 -13 q 164 45 216 -13 q 111 203 111 104 q 159 347 111 294 q 294 399 207 399 l 490 399 l 490 566 q 449 678 490 638 q 340 718 409 718 q 233 687 268 718 q 179 572 198 655 l 129 587 q 199 728 150 686 q 338 770 247 770 q 490 715 433 770 q 547 566 547 660 l 547 189 q 571 68 547 97 q 660 54 596 39 l 660 0 q 556 15 597 -13 q 510 111 515 42 l 501 111 q 422 21 476 56 q 306 -13 367 -13 m 181 987 l 181 1039 l 521 1039 l 521 987 l 181 987 z "},"ă":{"ha":739,"x_min":111,"x_max":660,"o":"m 111 0 m 312 38 q 410 68 366 38 q 490 153 453 97 l 490 350 l 298 350 q 200 319 236 350 q 164 211 164 289 q 200 83 164 128 q 312 38 236 38 m 306 -13 q 164 45 216 -13 q 111 203 111 104 q 159 347 111 294 q 294 399 207 399 l 490 399 l 490 566 q 449 678 490 638 q 340 718 409 718 q 233 687 268 718 q 179 572 198 655 l 129 587 q 199 728 150 686 q 338 770 247 770 q 490 715 433 770 q 547 566 547 660 l 547 189 q 571 68 547 97 q 660 54 596 39 l 660 0 q 556 15 597 -13 q 510 111 515 42 l 501 111 q 422 21 476 56 q 306 -13 367 -13 m 351 875 q 206 942 259 875 q 153 1134 154 1009 l 211 1134 q 246 977 212 1025 q 351 928 279 928 q 456 977 423 928 q 491 1134 490 1025 l 549 1134 q 496 942 548 1009 q 351 875 443 875 z "},"ą":{"ha":739,"x_min":111,"x_max":689,"o":"m 111 0 m 312 38 q 410 68 366 38 q 490 153 453 97 l 490 350 l 298 350 q 200 319 236 350 q 164 211 164 289 q 200 83 164 128 q 312 38 236 38 m 306 -13 q 164 45 216 -13 q 111 203 111 104 q 159 347 111 294 q 294 399 207 399 l 490 399 l 490 566 q 449 678 490 638 q 340 718 409 718 q 233 687 268 718 q 179 572 198 655 l 129 587 q 199 728 150 686 q 338 770 247 770 q 490 715 433 770 q 547 566 547 660 l 547 189 q 571 68 547 97 q 660 54 596 39 l 660 0 q 556 15 597 -13 q 510 111 515 42 l 501 111 q 422 21 476 56 q 306 -13 367 -13 m 609 -271 q 516 -234 552 -271 q 481 -135 481 -197 q 512 -34 481 -81 q 593 42 543 13 l 609 29 q 554 -38 571 -3 q 537 -120 537 -73 q 556 -196 537 -173 q 616 -220 574 -220 q 653 -217 635 -220 q 689 -210 672 -215 l 689 -261 q 649 -269 672 -266 q 609 -271 626 -271 z "},"ǻ":{"ha":739,"x_min":111,"x_max":660,"o":"m 111 0 m 312 38 q 410 68 366 38 q 490 153 453 97 l 490 350 l 298 350 q 200 319 236 350 q 164 211 164 289 q 200 83 164 128 q 312 38 236 38 m 306 -13 q 164 45 216 -13 q 111 203 111 104 q 159 347 111 294 q 294 399 207 399 l 490 399 l 490 566 q 449 678 490 638 q 340 718 409 718 q 233 687 268 718 q 179 572 198 655 l 129 587 q 199 728 150 686 q 338 770 247 770 q 490 715 433 770 q 547 566 547 660 l 547 189 q 571 68 547 97 q 660 54 596 39 l 660 0 q 556 15 597 -13 q 510 111 515 42 l 501 111 q 422 21 476 56 q 306 -13 367 -13 m 351 865 q 251 908 287 865 q 215 1035 215 952 l 215 1101 q 251 1230 215 1186 q 351 1275 287 1275 q 451 1230 415 1275 q 487 1101 487 1186 l 487 1035 q 451 908 487 952 q 351 865 415 865 m 351 913 q 415 942 395 913 q 436 1035 436 971 l 436 1101 q 415 1197 436 1167 q 351 1227 395 1227 q 287 1197 307 1227 q 266 1101 266 1167 l 266 1035 q 287 942 266 971 q 351 913 307 913 m 332 1263 l 468 1515 l 558 1515 l 381 1263 l 332 1263 z "},"b":{"ha":739,"x_min":152,"x_max":587,"o":"m 362 -13 q 249 7 301 -13 q 152 62 198 27 l 152 1010 l 208 1010 l 208 658 l 218 658 q 295 739 250 707 q 404 770 341 770 q 537 705 487 770 q 587 520 587 640 l 587 251 q 524 60 587 133 q 362 -13 461 -13 m 361 37 q 485 92 441 37 q 530 254 530 148 l 530 519 q 497 669 530 620 q 398 718 463 718 q 301 690 343 718 q 208 592 259 662 l 208 86 q 277 50 240 63 q 361 37 314 37 z "},"":{"ha":739,"x_min":152,"x_max":587,"o":"m 362 -13 q 249 7 301 -13 q 152 62 198 27 l 152 1010 l 208 1010 l 208 658 l 218 658 q 295 739 250 707 q 404 770 341 770 q 537 705 487 770 q 587 520 587 640 l 587 251 q 524 60 587 133 q 362 -13 461 -13 m 361 37 q 485 92 441 37 q 530 254 530 148 l 530 519 q 497 669 530 620 q 398 718 463 718 q 301 690 343 718 q 208 592 259 662 l 208 86 q 277 50 240 63 q 361 37 314 37 z "},"c":{"ha":739,"x_min":152,"x_max":598,"o":"m 383 -13 q 210 54 269 -13 q 152 249 152 121 l 152 504 q 211 701 152 633 q 381 770 271 770 q 539 715 487 770 q 598 544 591 660 l 542 539 q 499 679 535 639 q 381 718 463 718 q 251 666 294 718 q 208 504 208 614 l 208 249 q 251 91 208 143 q 383 39 294 39 q 501 73 466 39 q 542 193 537 107 l 598 188 q 540 36 593 85 q 383 -13 487 -13 z "},"ç":{"ha":739,"x_min":152,"x_max":598,"o":"m 152 0 m 383 -13 q 210 54 269 -13 q 152 249 152 121 l 152 504 q 211 701 152 633 q 381 770 271 770 q 539 715 487 770 q 598 544 591 660 l 542 539 q 499 679 535 639 q 381 718 463 718 q 251 666 294 718 q 208 504 208 614 l 208 249 q 251 91 208 143 q 383 39 294 39 q 501 73 466 39 q 542 193 537 107 l 598 188 q 540 36 593 85 q 383 -13 487 -13 m 346 0 l 359 25 q 444 -30 412 11 q 476 -129 476 -71 q 440 -234 476 -196 q 345 -273 404 -273 q 254 -241 289 -273 q 215 -133 220 -208 l 269 -128 q 289 -203 273 -181 q 340 -225 304 -225 q 401 -203 383 -225 q 419 -126 419 -181 q 402 -45 419 -74 q 346 0 385 -16 z "},"ć":{"ha":739,"x_min":152,"x_max":598,"o":"m 152 0 m 383 -13 q 210 54 269 -13 q 152 249 152 121 l 152 504 q 211 701 152 633 q 381 770 271 770 q 539 715 487 770 q 598 544 591 660 l 542 539 q 499 679 535 639 q 381 718 463 718 q 251 666 294 718 q 208 504 208 614 l 208 249 q 251 91 208 143 q 383 39 294 39 q 501 73 466 39 q 542 193 537 107 l 598 188 q 540 36 593 85 q 383 -13 487 -13 m 309 884 l 446 1136 l 535 1136 l 359 884 l 309 884 z "},"ĉ":{"ha":739,"x_min":152,"x_max":598,"o":"m 152 0 m 383 -13 q 210 54 269 -13 q 152 249 152 121 l 152 504 q 211 701 152 633 q 381 770 271 770 q 539 715 487 770 q 598 544 591 660 l 542 539 q 499 679 535 639 q 381 718 463 718 q 251 666 294 718 q 208 504 208 614 l 208 249 q 251 91 208 143 q 383 39 294 39 q 501 73 466 39 q 542 193 537 107 l 598 188 q 540 36 593 85 q 383 -13 487 -13 m 222 914 l 198 943 l 362 1158 l 402 1158 l 566 943 l 543 914 l 381 1104 l 222 914 z "},"ċ":{"ha":739,"x_min":152,"x_max":598,"o":"m 152 0 m 383 -13 q 210 54 269 -13 q 152 249 152 121 l 152 504 q 211 701 152 633 q 381 770 271 770 q 539 715 487 770 q 598 544 591 660 l 542 539 q 499 679 535 639 q 381 718 463 718 q 251 666 294 718 q 208 504 208 614 l 208 249 q 251 91 208 143 q 383 39 294 39 q 501 73 466 39 q 542 193 537 107 l 598 188 q 540 36 593 85 q 383 -13 487 -13 m 375 924 q 336 934 351 924 q 321 968 321 943 l 321 977 q 336 1014 321 1004 q 375 1024 351 1024 q 414 1014 399 1024 q 429 977 429 1004 l 429 968 q 414 934 429 943 q 375 924 399 924 z "},"č":{"ha":739,"x_min":152,"x_max":598,"o":"m 152 0 m 383 -13 q 210 54 269 -13 q 152 249 152 121 l 152 504 q 211 701 152 633 q 381 770 271 770 q 539 715 487 770 q 598 544 591 660 l 542 539 q 499 679 535 639 q 381 718 463 718 q 251 666 294 718 q 208 504 208 614 l 208 249 q 251 91 208 143 q 383 39 294 39 q 501 73 466 39 q 542 193 537 107 l 598 188 q 540 36 593 85 q 383 -13 487 -13 m 356 889 l 191 1104 l 215 1133 l 375 943 l 535 1133 l 558 1104 l 395 889 l 356 889 z "},"d":{"ha":739,"x_min":152,"x_max":587,"o":"m 354 39 q 444 64 404 39 q 530 152 484 90 l 530 677 q 458 709 497 697 q 378 721 418 721 q 250 665 292 721 q 208 504 208 610 l 208 250 q 245 91 208 143 q 354 39 282 39 m 520 101 q 446 16 489 44 q 348 -13 403 -13 q 203 56 254 -13 q 152 250 152 124 l 152 506 q 211 699 152 628 q 378 770 271 770 q 460 759 420 770 q 530 734 499 749 l 530 1010 l 587 1010 l 587 0 l 530 0 l 530 101 l 520 101 z "},"ď":{"ha":739,"x_min":152,"x_max":880,"o":"m 152 0 m 354 39 q 444 64 404 39 q 530 152 484 90 l 530 677 q 458 709 497 697 q 378 721 418 721 q 250 665 292 721 q 208 504 208 610 l 208 250 q 245 91 208 143 q 354 39 282 39 m 520 101 q 446 16 489 44 q 348 -13 403 -13 q 203 56 254 -13 q 152 250 152 124 l 152 506 q 211 699 152 628 q 378 770 271 770 q 460 759 420 770 q 530 734 499 749 l 530 1010 l 587 1010 l 587 0 l 530 0 l 530 101 l 520 101 m 723 958 l 801 1263 l 880 1263 l 769 958 l 723 958 z "},"e":{"ha":739,"x_min":152,"x_max":587,"o":"m 583 149 q 513 27 562 67 q 376 -13 465 -13 q 211 54 270 -13 q 152 250 152 121 l 152 504 q 211 703 152 636 q 370 770 271 770 q 528 702 468 770 q 587 495 587 634 l 587 372 l 208 372 l 208 249 q 251 89 208 139 q 376 39 293 39 q 477 66 444 39 q 529 165 509 93 l 583 149 m 208 504 l 208 424 l 530 424 l 530 492 q 490 664 530 610 q 370 718 449 718 q 249 666 290 718 q 208 504 208 614 z "},"è":{"ha":739,"x_min":152,"x_max":587,"o":"m 152 0 m 583 149 q 513 27 562 67 q 376 -13 465 -13 q 211 54 270 -13 q 152 250 152 121 l 152 504 q 211 703 152 636 q 370 770 271 770 q 528 702 468 770 q 587 495 587 634 l 587 372 l 208 372 l 208 249 q 251 89 208 139 q 376 39 293 39 q 477 66 444 39 q 529 165 509 93 l 583 149 m 208 504 l 208 424 l 530 424 l 530 492 q 490 664 530 610 q 370 718 449 718 q 249 666 290 718 q 208 504 208 614 m 390 884 l 213 1136 l 304 1136 l 439 884 l 390 884 z "},"é":{"ha":739,"x_min":152,"x_max":587,"o":"m 152 0 m 583 149 q 513 27 562 67 q 376 -13 465 -13 q 211 54 270 -13 q 152 250 152 121 l 152 504 q 211 703 152 636 q 370 770 271 770 q 528 702 468 770 q 587 495 587 634 l 587 372 l 208 372 l 208 249 q 251 89 208 139 q 376 39 293 39 q 477 66 444 39 q 529 165 509 93 l 583 149 m 208 504 l 208 424 l 530 424 l 530 492 q 490 664 530 610 q 370 718 449 718 q 249 666 290 718 q 208 504 208 614 m 302 884 l 438 1136 l 528 1136 l 351 884 l 302 884 z "},"ê":{"ha":739,"x_min":152,"x_max":587,"o":"m 152 0 m 583 149 q 513 27 562 67 q 376 -13 465 -13 q 211 54 270 -13 q 152 250 152 121 l 152 504 q 211 703 152 636 q 370 770 271 770 q 528 702 468 770 q 587 495 587 634 l 587 372 l 208 372 l 208 249 q 251 89 208 139 q 376 39 293 39 q 477 66 444 39 q 529 165 509 93 l 583 149 m 208 504 l 208 424 l 530 424 l 530 492 q 490 664 530 610 q 370 718 449 718 q 249 666 290 718 q 208 504 208 614 m 211 914 l 187 943 l 351 1158 l 390 1158 l 554 943 l 532 914 l 370 1104 l 211 914 z "},"ë":{"ha":739,"x_min":152,"x_max":587,"o":"m 152 0 m 583 149 q 513 27 562 67 q 376 -13 465 -13 q 211 54 270 -13 q 152 250 152 121 l 152 504 q 211 703 152 636 q 370 770 271 770 q 528 702 468 770 q 587 495 587 634 l 587 372 l 208 372 l 208 249 q 251 89 208 139 q 376 39 293 39 q 477 66 444 39 q 529 165 509 93 l 583 149 m 208 504 l 208 424 l 530 424 l 530 492 q 490 664 530 610 q 370 718 449 718 q 249 666 290 718 q 208 504 208 614 m 270 924 q 235 933 249 924 q 222 968 222 942 l 222 977 q 235 1015 222 1005 q 270 1024 249 1024 q 304 1015 290 1024 q 317 977 317 1005 l 317 968 q 304 933 317 942 q 270 924 290 924 m 472 924 q 439 933 452 924 q 426 968 426 942 l 426 977 q 439 1015 426 1005 q 472 1024 452 1024 q 507 1015 494 1024 q 520 977 520 1005 l 520 968 q 506 933 520 942 q 472 924 492 924 z "},"ē":{"ha":739,"x_min":152,"x_max":587,"o":"m 152 0 m 583 149 q 513 27 562 67 q 376 -13 465 -13 q 211 54 270 -13 q 152 250 152 121 l 152 504 q 211 703 152 636 q 370 770 271 770 q 528 702 468 770 q 587 495 587 634 l 587 372 l 208 372 l 208 249 q 251 89 208 139 q 376 39 293 39 q 477 66 444 39 q 529 165 509 93 l 583 149 m 208 504 l 208 424 l 530 424 l 530 492 q 490 664 530 610 q 370 718 449 718 q 249 666 290 718 q 208 504 208 614 m 201 987 l 201 1039 l 542 1039 l 542 987 l 201 987 z "},"ĕ":{"ha":739,"x_min":152,"x_max":587,"o":"m 152 0 m 583 149 q 513 27 562 67 q 376 -13 465 -13 q 211 54 270 -13 q 152 250 152 121 l 152 504 q 211 703 152 636 q 370 770 271 770 q 528 702 468 770 q 587 495 587 634 l 587 372 l 208 372 l 208 249 q 251 89 208 139 q 376 39 293 39 q 477 66 444 39 q 529 165 509 93 l 583 149 m 208 504 l 208 424 l 530 424 l 530 492 q 490 664 530 610 q 370 718 449 718 q 249 666 290 718 q 208 504 208 614 m 369 875 q 224 942 277 875 q 170 1134 172 1009 l 229 1134 q 263 977 230 1025 q 369 928 297 928 q 474 977 441 928 q 509 1134 508 1025 l 567 1134 q 513 942 566 1009 q 369 875 461 875 z "},"ė":{"ha":739,"x_min":152,"x_max":587,"o":"m 152 0 m 583 149 q 513 27 562 67 q 376 -13 465 -13 q 211 54 270 -13 q 152 250 152 121 l 152 504 q 211 703 152 636 q 370 770 271 770 q 528 702 468 770 q 587 495 587 634 l 587 372 l 208 372 l 208 249 q 251 89 208 139 q 376 39 293 39 q 477 66 444 39 q 529 165 509 93 l 583 149 m 208 504 l 208 424 l 530 424 l 530 492 q 490 664 530 610 q 370 718 449 718 q 249 666 290 718 q 208 504 208 614 m 371 924 q 332 934 347 924 q 317 968 317 943 l 317 977 q 332 1014 317 1004 q 371 1024 347 1024 q 410 1014 395 1024 q 426 977 426 1004 l 426 968 q 410 934 426 943 q 371 924 395 924 z "},"ę":{"ha":739,"x_min":152,"x_max":587,"o":"m 152 0 m 583 149 q 513 27 562 67 q 376 -13 465 -13 q 211 54 270 -13 q 152 250 152 121 l 152 504 q 211 703 152 636 q 370 770 271 770 q 528 702 468 770 q 587 495 587 634 l 587 372 l 208 372 l 208 249 q 251 89 208 139 q 376 39 293 39 q 477 66 444 39 q 529 165 509 93 l 583 149 m 208 504 l 208 424 l 530 424 l 530 492 q 490 664 530 610 q 370 718 449 718 q 249 666 290 718 q 208 504 208 614 m 506 -271 q 414 -234 449 -271 q 379 -135 379 -197 q 410 -34 379 -81 q 491 42 441 13 l 506 29 q 451 -38 468 -3 q 434 -120 434 -73 q 453 -196 434 -173 q 514 -220 472 -220 q 551 -217 533 -220 q 587 -210 569 -215 l 587 -261 q 547 -269 569 -266 q 506 -271 524 -271 z "},"ě":{"ha":739,"x_min":152,"x_max":587,"o":"m 152 0 m 583 149 q 513 27 562 67 q 376 -13 465 -13 q 211 54 270 -13 q 152 250 152 121 l 152 504 q 211 703 152 636 q 370 770 271 770 q 528 702 468 770 q 587 495 587 634 l 587 372 l 208 372 l 208 249 q 251 89 208 139 q 376 39 293 39 q 477 66 444 39 q 529 165 509 93 l 583 149 m 208 504 l 208 424 l 530 424 l 530 492 q 490 664 530 610 q 370 718 449 718 q 249 666 290 718 q 208 504 208 614 m 352 889 l 187 1104 l 211 1133 l 371 943 l 532 1133 l 554 1104 l 391 889 l 352 889 z "},"f":{"ha":739,"x_min":124,"x_max":597,"o":"m 293 0 l 293 706 l 124 706 l 124 758 l 293 758 l 293 808 q 345 962 293 908 q 473 1016 396 1016 q 540 1009 508 1016 q 597 990 573 1001 l 586 941 q 533 958 563 952 q 472 965 504 965 q 383 928 417 965 q 350 809 350 891 l 350 758 l 595 758 l 595 706 l 350 706 l 350 0 l 293 0 z "},"g":{"ha":739,"x_min":105,"x_max":635,"o":"m 635 -61 q 582 -214 635 -163 q 447 -265 529 -265 l 294 -265 q 155 -209 206 -265 q 105 -52 105 -153 q 127 49 105 11 q 192 92 149 87 l 192 97 q 142 134 160 104 q 124 211 124 164 q 150 320 124 279 q 227 365 177 361 l 227 367 q 174 415 191 381 q 157 503 157 448 l 157 563 q 207 703 157 648 q 351 758 258 758 l 612 758 l 612 706 l 472 716 l 472 710 q 527 653 509 697 q 545 567 545 610 l 545 508 q 499 376 545 427 q 347 326 452 326 l 232 326 q 188 301 203 326 q 173 217 173 277 q 193 137 173 163 q 255 111 213 111 l 481 111 q 592 66 549 111 q 635 -61 635 21 m 351 374 q 453 405 418 374 q 487 503 487 437 l 487 556 q 453 670 487 635 q 351 705 418 705 q 249 670 284 705 q 215 556 215 635 l 215 503 q 249 405 215 437 q 351 374 284 374 m 293 -212 l 447 -212 q 548 -176 516 -212 q 580 -68 580 -140 q 555 23 580 -6 q 482 53 530 53 l 162 53 l 162 -33 q 196 -166 162 -120 q 293 -212 230 -212 z "},"ĝ":{"ha":739,"x_min":105,"x_max":635,"o":"m 105 0 m 635 -61 q 582 -214 635 -163 q 447 -265 529 -265 l 294 -265 q 155 -209 206 -265 q 105 -52 105 -153 q 127 49 105 11 q 192 92 149 87 l 192 97 q 142 134 160 104 q 124 211 124 164 q 150 320 124 279 q 227 365 177 361 l 227 367 q 174 415 191 381 q 157 503 157 448 l 157 563 q 207 703 157 648 q 351 758 258 758 l 612 758 l 612 706 l 472 716 l 472 710 q 527 653 509 697 q 545 567 545 610 l 545 508 q 499 376 545 427 q 347 326 452 326 l 232 326 q 188 301 203 326 q 173 217 173 277 q 193 137 173 163 q 255 111 213 111 l 481 111 q 592 66 549 111 q 635 -61 635 21 m 351 374 q 453 405 418 374 q 487 503 487 437 l 487 556 q 453 670 487 635 q 351 705 418 705 q 249 670 284 705 q 215 556 215 635 l 215 503 q 249 405 215 437 q 351 374 284 374 m 293 -212 l 447 -212 q 548 -176 516 -212 q 580 -68 580 -140 q 555 23 580 -6 q 482 53 530 53 l 162 53 l 162 -33 q 196 -166 162 -120 q 293 -212 230 -212 m 203 914 l 179 943 l 343 1158 l 383 1158 l 547 943 l 524 914 l 362 1104 l 203 914 z "},"ğ":{"ha":739,"x_min":105,"x_max":635,"o":"m 105 0 m 635 -61 q 582 -214 635 -163 q 447 -265 529 -265 l 294 -265 q 155 -209 206 -265 q 105 -52 105 -153 q 127 49 105 11 q 192 92 149 87 l 192 97 q 142 134 160 104 q 124 211 124 164 q 150 320 124 279 q 227 365 177 361 l 227 367 q 174 415 191 381 q 157 503 157 448 l 157 563 q 207 703 157 648 q 351 758 258 758 l 612 758 l 612 706 l 472 716 l 472 710 q 527 653 509 697 q 545 567 545 610 l 545 508 q 499 376 545 427 q 347 326 452 326 l 232 326 q 188 301 203 326 q 173 217 173 277 q 193 137 173 163 q 255 111 213 111 l 481 111 q 592 66 549 111 q 635 -61 635 21 m 351 374 q 453 405 418 374 q 487 503 487 437 l 487 556 q 453 670 487 635 q 351 705 418 705 q 249 670 284 705 q 215 556 215 635 l 215 503 q 249 405 215 437 q 351 374 284 374 m 293 -212 l 447 -212 q 548 -176 516 -212 q 580 -68 580 -140 q 555 23 580 -6 q 482 53 530 53 l 162 53 l 162 -33 q 196 -166 162 -120 q 293 -212 230 -212 m 370 875 q 225 942 278 875 q 172 1134 173 1009 l 230 1134 q 265 977 231 1025 q 370 928 298 928 q 475 977 442 928 q 510 1134 509 1025 l 568 1134 q 515 942 567 1009 q 370 875 462 875 z "},"ġ":{"ha":739,"x_min":105,"x_max":635,"o":"m 105 0 m 635 -61 q 582 -214 635 -163 q 447 -265 529 -265 l 294 -265 q 155 -209 206 -265 q 105 -52 105 -153 q 127 49 105 11 q 192 92 149 87 l 192 97 q 142 134 160 104 q 124 211 124 164 q 150 320 124 279 q 227 365 177 361 l 227 367 q 174 415 191 381 q 157 503 157 448 l 157 563 q 207 703 157 648 q 351 758 258 758 l 612 758 l 612 706 l 472 716 l 472 710 q 527 653 509 697 q 545 567 545 610 l 545 508 q 499 376 545 427 q 347 326 452 326 l 232 326 q 188 301 203 326 q 173 217 173 277 q 193 137 173 163 q 255 111 213 111 l 481 111 q 592 66 549 111 q 635 -61 635 21 m 351 374 q 453 405 418 374 q 487 503 487 437 l 487 556 q 453 670 487 635 q 351 705 418 705 q 249 670 284 705 q 215 556 215 635 l 215 503 q 249 405 215 437 q 351 374 284 374 m 293 -212 l 447 -212 q 548 -176 516 -212 q 580 -68 580 -140 q 555 23 580 -6 q 482 53 530 53 l 162 53 l 162 -33 q 196 -166 162 -120 q 293 -212 230 -212 m 370 924 q 331 934 346 924 q 316 968 316 943 l 316 977 q 331 1014 316 1004 q 370 1024 346 1024 q 409 1014 394 1024 q 424 977 424 1004 l 424 968 q 409 934 424 943 q 370 924 394 924 z "},"ģ":{"ha":739,"x_min":105,"x_max":635,"o":"m 105 0 m 635 -61 q 582 -214 635 -163 q 447 -265 529 -265 l 294 -265 q 155 -209 206 -265 q 105 -52 105 -153 q 127 49 105 11 q 192 92 149 87 l 192 97 q 142 134 160 104 q 124 211 124 164 q 150 320 124 279 q 227 365 177 361 l 227 367 q 174 415 191 381 q 157 503 157 448 l 157 563 q 207 703 157 648 q 351 758 258 758 l 612 758 l 612 706 l 472 716 l 472 710 q 527 653 509 697 q 545 567 545 610 l 545 508 q 499 376 545 427 q 347 326 452 326 l 232 326 q 188 301 203 326 q 173 217 173 277 q 193 137 173 163 q 255 111 213 111 l 481 111 q 592 66 549 111 q 635 -61 635 21 m 351 374 q 453 405 418 374 q 487 503 487 437 l 487 556 q 453 670 487 635 q 351 705 418 705 q 249 670 284 705 q 215 556 215 635 l 215 503 q 249 405 215 437 q 351 374 284 374 m 293 -212 l 447 -212 q 548 -176 516 -212 q 580 -68 580 -140 q 555 23 580 -6 q 482 53 530 53 l 162 53 l 162 -33 q 196 -166 162 -120 q 293 -212 230 -212 m 313 884 l 444 1136 l 494 1136 l 403 884 l 313 884 z "},"h":{"ha":739,"x_min":152,"x_max":587,"o":"m 152 0 l 152 1010 l 208 1010 l 208 657 l 218 657 q 295 741 250 712 q 405 770 341 770 q 539 710 491 770 q 587 552 587 650 l 587 0 l 530 0 l 530 539 q 496 670 530 622 q 400 718 462 718 q 298 693 346 718 q 208 598 250 667 l 208 0 l 152 0 z "},"ĥ":{"ha":739,"x_min":9,"x_max":587,"o":"m 9 0 m 152 0 l 152 1010 l 208 1010 l 208 657 l 218 657 q 295 741 250 712 q 405 770 341 770 q 539 710 491 770 q 587 552 587 650 l 587 0 l 530 0 l 530 539 q 496 670 530 622 q 400 718 462 718 q 298 693 346 718 q 208 598 250 667 l 208 0 l 152 0 m 33 1167 l 9 1196 l 173 1410 l 212 1410 l 376 1196 l 354 1167 l 192 1356 l 33 1167 z "},"i":{"ha":739,"x_min":152,"x_max":587,"o":"m 152 0 m 152 0 l 152 52 l 341 52 l 341 706 l 152 706 l 152 758 l 398 758 l 398 52 l 587 52 l 587 0 l 152 0 m 371 924 q 332 934 347 924 q 317 968 317 943 l 317 977 q 332 1014 317 1004 q 371 1024 347 1024 q 410 1014 395 1024 q 426 977 426 1004 l 426 968 q 410 934 426 943 q 371 924 395 924 z "},"ì":{"ha":739,"x_min":152,"x_max":587,"o":"m 152 0 m 152 0 l 152 52 l 341 52 l 341 706 l 152 706 l 152 758 l 398 758 l 398 52 l 587 52 l 587 0 l 152 0 m 393 884 l 216 1136 l 307 1136 l 442 884 l 393 884 z "},"í":{"ha":739,"x_min":152,"x_max":587,"o":"m 152 0 m 152 0 l 152 52 l 341 52 l 341 706 l 152 706 l 152 758 l 398 758 l 398 52 l 587 52 l 587 0 l 152 0 m 297 884 l 433 1136 l 523 1136 l 346 884 l 297 884 z "},"î":{"ha":739,"x_min":152,"x_max":587,"o":"m 152 0 m 152 0 l 152 52 l 341 52 l 341 706 l 152 706 l 152 758 l 398 758 l 398 52 l 587 52 l 587 0 l 152 0 m 210 914 l 186 943 l 350 1158 l 389 1158 l 553 943 l 530 914 l 369 1104 l 210 914 z "},"ï":{"ha":739,"x_min":152,"x_max":587,"o":"m 152 0 m 152 0 l 152 52 l 341 52 l 341 706 l 152 706 l 152 758 l 398 758 l 398 52 l 587 52 l 587 0 l 152 0 m 269 924 q 234 933 247 924 q 221 968 221 942 l 221 977 q 234 1015 221 1005 q 269 1024 247 1024 q 302 1015 289 1024 q 316 977 316 1005 l 316 968 q 302 933 316 942 q 269 924 289 924 m 471 924 q 437 933 451 924 q 424 968 424 942 l 424 977 q 437 1015 424 1005 q 471 1024 451 1024 q 506 1015 492 1024 q 519 977 519 1005 l 519 968 q 505 933 519 942 q 471 924 491 924 z "},"ĩ":{"ha":739,"x_min":152,"x_max":587,"o":"m 152 0 m 152 0 l 152 52 l 341 52 l 341 706 l 152 706 l 152 758 l 398 758 l 398 52 l 587 52 l 587 0 l 152 0 m 451 896 q 397 921 419 896 q 350 1014 375 946 q 318 1085 332 1067 q 288 1104 304 1104 q 248 1059 261 1104 q 236 923 235 1015 l 236 909 l 189 909 l 189 928 q 215 1093 189 1038 q 289 1149 240 1149 q 343 1126 322 1149 q 388 1039 365 1104 q 423 962 409 982 q 452 942 437 942 q 491 986 477 942 q 504 1122 504 1030 l 504 1136 l 551 1136 l 551 1117 q 525 952 551 1008 q 451 896 500 896 z "},"ī":{"ha":739,"x_min":152,"x_max":587,"o":"m 152 0 m 152 0 l 152 52 l 341 52 l 341 706 l 152 706 l 152 758 l 398 758 l 398 52 l 587 52 l 587 0 l 152 0 m 199 987 l 199 1039 l 540 1039 l 540 987 l 199 987 z "},"ĭ":{"ha":739,"x_min":152,"x_max":587,"o":"m 152 0 m 152 0 l 152 52 l 341 52 l 341 706 l 152 706 l 152 758 l 398 758 l 398 52 l 587 52 l 587 0 l 152 0 m 370 875 q 225 942 278 875 q 172 1134 173 1009 l 230 1134 q 265 977 231 1025 q 370 928 298 928 q 475 977 442 928 q 510 1134 509 1025 l 568 1134 q 515 942 567 1009 q 370 875 462 875 z "},"į":{"ha":739,"x_min":152,"x_max":587,"o":"m 152 0 m 152 0 l 152 52 l 341 52 l 341 706 l 152 706 l 152 758 l 398 758 l 398 52 l 587 52 l 587 0 l 152 0 m 371 924 q 332 934 347 924 q 317 968 317 943 l 317 977 q 332 1014 317 1004 q 371 1024 347 1024 q 410 1014 395 1024 q 426 977 426 1004 l 426 968 q 410 934 426 943 q 371 924 395 924 m 443 -271 q 351 -234 386 -271 q 316 -135 316 -197 q 347 -34 316 -81 q 428 42 378 13 l 443 29 q 388 -38 405 -3 q 371 -120 371 -73 q 390 -196 371 -173 q 451 -220 409 -220 q 488 -217 470 -220 q 524 -210 506 -215 l 524 -261 q 484 -269 506 -266 q 443 -271 461 -271 z "},"j":{"ha":739,"x_min":149,"x_max":513,"o":"m 149 0 m 287 -263 q 218 -254 253 -263 q 149 -231 183 -245 l 163 -178 q 225 -201 194 -192 q 284 -210 256 -210 q 398 -162 360 -210 q 436 -15 436 -114 l 436 706 l 170 706 l 170 758 l 492 758 l 492 -18 q 437 -198 492 -134 q 287 -263 381 -263 m 458 924 q 419 934 434 924 q 404 968 404 943 l 404 977 q 419 1014 404 1004 q 458 1024 434 1024 q 497 1014 482 1024 q 513 977 513 1004 l 513 968 q 497 934 513 943 q 458 924 482 924 z "},"ĵ":{"ha":739,"x_min":149,"x_max":612,"o":"m 149 0 m 287 -263 q 218 -254 253 -263 q 149 -231 183 -245 l 163 -178 q 225 -201 194 -192 q 284 -210 256 -210 q 398 -162 360 -210 q 436 -15 436 -114 l 436 706 l 170 706 l 170 758 l 492 758 l 492 -18 q 437 -198 492 -134 q 287 -263 381 -263 m 269 914 l 245 943 l 409 1158 l 448 1158 l 612 943 l 590 914 l 428 1104 l 269 914 z "},"k":{"ha":739,"x_min":198,"x_max":601,"o":"m 255 372 l 255 0 l 198 0 l 198 1010 l 255 1010 l 255 424 l 341 424 l 538 758 l 601 758 l 388 403 l 598 0 l 535 0 l 342 372 l 255 372 z "},"ķ":{"ha":739,"x_min":198,"x_max":601,"o":"m 198 0 m 255 372 l 255 0 l 198 0 l 198 1010 l 255 1010 l 255 424 l 341 424 l 538 758 l 601 758 l 388 403 l 598 0 l 535 0 l 342 372 l 255 372 m 256 -379 l 347 -126 l 438 -126 l 306 -379 l 256 -379 z "},"l":{"ha":739,"x_min":152,"x_max":587,"o":"m 152 0 l 152 52 l 341 52 l 341 958 l 152 958 l 152 1010 l 398 1010 l 398 52 l 587 52 l 587 0 l 152 0 z "},"ĺ":{"ha":739,"x_min":152,"x_max":587,"o":"m 152 0 m 152 0 l 152 52 l 341 52 l 341 958 l 152 958 l 152 1010 l 398 1010 l 398 52 l 587 52 l 587 0 l 152 0 m 307 1136 l 443 1389 l 533 1389 l 356 1136 l 307 1136 z "},"ļ":{"ha":739,"x_min":152,"x_max":587,"o":"m 152 0 m 152 0 l 152 52 l 341 52 l 341 958 l 152 958 l 152 1010 l 398 1010 l 398 52 l 587 52 l 587 0 l 152 0 m 235 -379 l 326 -126 l 417 -126 l 284 -379 l 235 -379 z "},"ľ":{"ha":739,"x_min":152,"x_max":701,"o":"m 152 0 m 152 0 l 152 52 l 341 52 l 341 958 l 152 958 l 152 1010 l 398 1010 l 398 52 l 587 52 l 587 0 l 152 0 m 544 958 l 621 1263 l 701 1263 l 590 958 l 544 958 z "},"m":{"ha":739,"x_min":106,"x_max":634,"o":"m 163 630 l 163 0 l 106 0 l 106 758 l 163 758 l 163 676 l 174 676 q 218 744 189 718 q 283 770 246 770 q 350 746 322 770 q 389 676 379 721 l 402 676 q 447 744 415 718 q 520 770 479 770 q 604 721 573 770 q 634 585 634 672 l 634 0 l 577 0 l 577 572 q 559 681 577 646 q 505 716 542 716 q 451 696 479 716 q 398 630 423 676 l 398 0 l 342 0 l 342 572 q 324 681 342 646 q 270 716 307 716 q 215 695 242 716 q 163 630 187 674 z "},"n":{"ha":739,"x_min":152,"x_max":587,"o":"m 152 0 l 152 758 l 208 758 l 208 657 l 218 657 q 296 741 245 711 q 402 770 347 770 q 536 711 485 770 q 587 551 587 652 l 587 0 l 530 0 l 530 539 q 494 672 530 626 q 394 717 458 717 q 293 691 341 717 q 208 605 245 664 l 208 0 l 152 0 z "},"ñ":{"ha":739,"x_min":152,"x_max":587,"o":"m 152 0 m 152 0 l 152 758 l 208 758 l 208 657 l 218 657 q 296 741 245 711 q 402 770 347 770 q 536 711 485 770 q 587 551 587 652 l 587 0 l 530 0 l 530 539 q 494 672 530 626 q 394 717 458 717 q 293 691 341 717 q 208 605 245 664 l 208 0 l 152 0 m 470 896 q 416 921 438 896 q 369 1014 394 946 q 337 1085 351 1067 q 307 1104 323 1104 q 267 1059 280 1104 q 255 923 254 1015 l 255 909 l 208 909 l 208 928 q 234 1093 208 1038 q 308 1149 259 1149 q 362 1126 341 1149 q 407 1039 384 1104 q 442 962 428 982 q 471 942 456 942 q 509 986 496 942 q 523 1122 523 1030 l 523 1136 l 569 1136 l 569 1117 q 544 952 569 1008 q 470 896 519 896 z "},"ń":{"ha":739,"x_min":152,"x_max":587,"o":"m 152 0 m 152 0 l 152 758 l 208 758 l 208 657 l 218 657 q 296 741 245 711 q 402 770 347 770 q 536 711 485 770 q 587 551 587 652 l 587 0 l 530 0 l 530 539 q 494 672 530 626 q 394 717 458 717 q 293 691 341 717 q 208 605 245 664 l 208 0 l 152 0 m 316 884 l 452 1136 l 542 1136 l 365 884 l 316 884 z "},"ņ":{"ha":739,"x_min":152,"x_max":587,"o":"m 152 0 m 152 0 l 152 758 l 208 758 l 208 657 l 218 657 q 296 741 245 711 q 402 770 347 770 q 536 711 485 770 q 587 551 587 652 l 587 0 l 530 0 l 530 539 q 494 672 530 626 q 394 717 458 717 q 293 691 341 717 q 208 605 245 664 l 208 0 l 152 0 m 258 -379 l 348 -126 l 439 -126 l 307 -379 l 258 -379 z "},"ň":{"ha":739,"x_min":152,"x_max":587,"o":"m 152 0 m 152 0 l 152 758 l 208 758 l 208 657 l 218 657 q 296 741 245 711 q 402 770 347 770 q 536 711 485 770 q 587 551 587 652 l 587 0 l 530 0 l 530 539 q 494 672 530 626 q 394 717 458 717 q 293 691 341 717 q 208 605 245 664 l 208 0 l 152 0 m 370 889 l 205 1104 l 229 1133 l 389 943 l 549 1133 l 572 1104 l 409 889 l 370 889 z "},"o":{"ha":739,"x_min":152,"x_max":587,"o":"m 370 -13 q 208 56 265 -13 q 152 249 152 124 l 152 504 q 209 701 152 631 q 370 770 266 770 q 530 701 473 770 q 587 504 587 631 l 587 249 q 530 56 587 124 q 370 -13 473 -13 m 370 39 q 491 91 451 39 q 530 249 530 143 l 530 504 q 491 666 530 614 q 370 718 451 718 q 248 666 288 718 q 208 504 208 614 l 208 249 q 248 91 208 143 q 370 39 288 39 z "},"ò":{"ha":739,"x_min":152,"x_max":587,"o":"m 152 0 m 370 -13 q 208 56 265 -13 q 152 249 152 124 l 152 504 q 209 701 152 631 q 370 770 266 770 q 530 701 473 770 q 587 504 587 631 l 587 249 q 530 56 587 124 q 370 -13 473 -13 m 370 39 q 491 91 451 39 q 530 249 530 143 l 530 504 q 491 666 530 614 q 370 718 451 718 q 248 666 288 718 q 208 504 208 614 l 208 249 q 248 91 208 143 q 370 39 288 39 m 389 884 l 212 1136 l 303 1136 l 438 884 l 389 884 z "},"ó":{"ha":739,"x_min":152,"x_max":587,"o":"m 152 0 m 370 -13 q 208 56 265 -13 q 152 249 152 124 l 152 504 q 209 701 152 631 q 370 770 266 770 q 530 701 473 770 q 587 504 587 631 l 587 249 q 530 56 587 124 q 370 -13 473 -13 m 370 39 q 491 91 451 39 q 530 249 530 143 l 530 504 q 491 666 530 614 q 370 718 451 718 q 248 666 288 718 q 208 504 208 614 l 208 249 q 248 91 208 143 q 370 39 288 39 m 297 884 l 433 1136 l 523 1136 l 346 884 l 297 884 z "},"ô":{"ha":739,"x_min":152,"x_max":587,"o":"m 152 0 m 370 -13 q 208 56 265 -13 q 152 249 152 124 l 152 504 q 209 701 152 631 q 370 770 266 770 q 530 701 473 770 q 587 504 587 631 l 587 249 q 530 56 587 124 q 370 -13 473 -13 m 370 39 q 491 91 451 39 q 530 249 530 143 l 530 504 q 491 666 530 614 q 370 718 451 718 q 248 666 288 718 q 208 504 208 614 l 208 249 q 248 91 208 143 q 370 39 288 39 m 210 914 l 186 943 l 350 1158 l 389 1158 l 553 943 l 530 914 l 369 1104 l 210 914 z "},"õ":{"ha":739,"x_min":152,"x_max":587,"o":"m 152 0 m 370 -13 q 208 56 265 -13 q 152 249 152 124 l 152 504 q 209 701 152 631 q 370 770 266 770 q 530 701 473 770 q 587 504 587 631 l 587 249 q 530 56 587 124 q 370 -13 473 -13 m 370 39 q 491 91 451 39 q 530 249 530 143 l 530 504 q 491 666 530 614 q 370 718 451 718 q 248 666 288 718 q 208 504 208 614 l 208 249 q 248 91 208 143 q 370 39 288 39 m 451 896 q 397 921 419 896 q 350 1014 375 946 q 318 1085 332 1067 q 288 1104 304 1104 q 248 1059 261 1104 q 236 923 235 1015 l 236 909 l 189 909 l 189 928 q 215 1093 189 1038 q 289 1149 240 1149 q 343 1126 322 1149 q 388 1039 365 1104 q 423 962 409 982 q 452 942 437 942 q 491 986 477 942 q 504 1122 504 1030 l 504 1136 l 551 1136 l 551 1117 q 525 952 551 1008 q 451 896 500 896 z "},"ö":{"ha":739,"x_min":152,"x_max":587,"o":"m 152 0 m 370 -13 q 208 56 265 -13 q 152 249 152 124 l 152 504 q 209 701 152 631 q 370 770 266 770 q 530 701 473 770 q 587 504 587 631 l 587 249 q 530 56 587 124 q 370 -13 473 -13 m 370 39 q 491 91 451 39 q 530 249 530 143 l 530 504 q 491 666 530 614 q 370 718 451 718 q 248 666 288 718 q 208 504 208 614 l 208 249 q 248 91 208 143 q 370 39 288 39 m 269 924 q 234 933 247 924 q 221 968 221 942 l 221 977 q 234 1015 221 1005 q 269 1024 247 1024 q 302 1015 289 1024 q 316 977 316 1005 l 316 968 q 302 933 316 942 q 269 924 289 924 m 471 924 q 437 933 451 924 q 424 968 424 942 l 424 977 q 437 1015 424 1005 q 471 1024 451 1024 q 506 1015 492 1024 q 519 977 519 1005 l 519 968 q 505 933 519 942 q 471 924 491 924 z "},"ō":{"ha":739,"x_min":152,"x_max":587,"o":"m 152 0 m 370 -13 q 208 56 265 -13 q 152 249 152 124 l 152 504 q 209 701 152 631 q 370 770 266 770 q 530 701 473 770 q 587 504 587 631 l 587 249 q 530 56 587 124 q 370 -13 473 -13 m 370 39 q 491 91 451 39 q 530 249 530 143 l 530 504 q 491 666 530 614 q 370 718 451 718 q 248 666 288 718 q 208 504 208 614 l 208 249 q 248 91 208 143 q 370 39 288 39 m 199 987 l 199 1039 l 540 1039 l 540 987 l 199 987 z "},"ŏ":{"ha":739,"x_min":152,"x_max":587,"o":"m 152 0 m 370 -13 q 208 56 265 -13 q 152 249 152 124 l 152 504 q 209 701 152 631 q 370 770 266 770 q 530 701 473 770 q 587 504 587 631 l 587 249 q 530 56 587 124 q 370 -13 473 -13 m 370 39 q 491 91 451 39 q 530 249 530 143 l 530 504 q 491 666 530 614 q 370 718 451 718 q 248 666 288 718 q 208 504 208 614 l 208 249 q 248 91 208 143 q 370 39 288 39 m 371 875 q 227 942 279 875 q 173 1134 174 1009 l 231 1134 q 266 977 232 1025 q 371 928 299 928 q 477 977 443 928 q 511 1134 510 1025 l 569 1134 q 516 942 568 1009 q 371 875 463 875 z "},"ő":{"ha":739,"x_min":152,"x_max":587,"o":"m 152 0 m 370 -13 q 208 56 265 -13 q 152 249 152 124 l 152 504 q 209 701 152 631 q 370 770 266 770 q 530 701 473 770 q 587 504 587 631 l 587 249 q 530 56 587 124 q 370 -13 473 -13 m 370 39 q 491 91 451 39 q 530 249 530 143 l 530 504 q 491 666 530 614 q 370 718 451 718 q 248 666 288 718 q 208 504 208 614 l 208 249 q 248 91 208 143 q 370 39 288 39 m 428 884 l 481 1136 l 577 1136 l 473 884 l 428 884 m 240 884 l 293 1136 l 389 1136 l 285 884 l 240 884 z "},"p":{"ha":739,"x_min":152,"x_max":587,"o":"m 361 37 q 489 90 447 37 q 530 254 530 143 l 530 509 q 494 667 530 615 q 385 718 457 718 q 295 693 335 718 q 208 605 255 667 l 208 85 q 281 47 241 57 q 361 37 321 37 m 362 -13 q 287 -5 330 -13 q 208 24 245 3 l 208 -253 l 152 -253 l 152 758 l 208 758 l 208 657 l 218 657 q 294 742 250 715 q 394 770 337 770 q 536 701 485 770 q 587 508 587 631 l 587 251 q 528 57 587 128 q 362 -13 468 -13 z "},"q":{"ha":739,"x_min":152,"x_max":587,"o":"m 530 -253 l 530 101 l 520 101 q 446 16 489 44 q 347 -13 403 -13 q 203 54 255 -13 q 152 237 152 120 l 152 506 q 211 699 152 628 q 378 770 271 770 q 493 750 439 770 q 587 702 547 730 l 587 -253 l 530 -253 m 352 39 q 444 65 404 39 q 530 153 484 91 l 530 677 q 458 709 497 697 q 378 721 418 721 q 250 665 292 721 q 208 504 208 610 l 208 250 q 244 91 208 143 q 352 39 279 39 z "},"r":{"ha":739,"x_min":198,"x_max":596,"o":"m 198 0 l 198 758 l 255 758 l 255 657 l 265 657 q 337 744 293 718 q 428 770 381 770 q 551 721 505 770 q 596 581 596 672 l 596 476 l 539 476 l 539 580 q 511 681 539 643 q 422 718 482 718 q 331 691 375 718 q 255 598 287 663 l 255 0 l 198 0 z "},"ŕ":{"ha":739,"x_min":198,"x_max":596,"o":"m 198 0 m 198 0 l 198 758 l 255 758 l 255 657 l 265 657 q 337 744 293 718 q 428 770 381 770 q 551 721 505 770 q 596 581 596 672 l 596 476 l 539 476 l 539 580 q 511 681 539 643 q 422 718 482 718 q 331 691 375 718 q 255 598 287 663 l 255 0 l 198 0 m 331 884 l 467 1136 l 557 1136 l 380 884 l 331 884 z "},"ŗ":{"ha":739,"x_min":138,"x_max":596,"o":"m 138 0 m 198 0 l 198 758 l 255 758 l 255 657 l 265 657 q 337 744 293 718 q 428 770 381 770 q 551 721 505 770 q 596 581 596 672 l 596 476 l 539 476 l 539 580 q 511 681 539 643 q 422 718 482 718 q 331 691 375 718 q 255 598 287 663 l 255 0 l 198 0 m 138 -379 l 229 -126 l 319 -126 l 187 -379 l 138 -379 z "},"ř":{"ha":739,"x_min":198,"x_max":596,"o":"m 198 0 m 198 0 l 198 758 l 255 758 l 255 657 l 265 657 q 337 744 293 718 q 428 770 381 770 q 551 721 505 770 q 596 581 596 672 l 596 476 l 539 476 l 539 580 q 511 681 539 643 q 422 718 482 718 q 331 691 375 718 q 255 598 287 663 l 255 0 l 198 0 m 385 889 l 220 1104 l 244 1133 l 404 943 l 564 1133 l 587 1104 l 424 889 l 385 889 z "},"s":{"ha":739,"x_min":131,"x_max":591,"o":"m 365 -13 q 247 7 311 -13 q 131 68 184 27 l 160 115 q 263 58 207 77 q 365 39 318 39 q 487 80 441 39 q 534 192 534 121 q 499 290 534 256 q 360 354 463 323 q 201 433 251 385 q 152 561 152 481 q 210 713 152 655 q 359 770 268 770 q 470 751 415 770 q 566 699 524 732 l 538 654 q 455 700 503 682 q 359 718 408 718 q 249 679 290 718 q 208 567 208 639 q 244 469 208 501 q 381 407 279 437 q 541 325 491 375 q 591 197 591 275 q 527 45 591 104 q 365 -13 463 -13 z "},"":{"ha":739,"x_min":131,"x_max":591,"o":"m 365 -13 q 247 7 311 -13 q 131 68 184 27 l 160 115 q 263 58 207 77 q 365 39 318 39 q 487 80 441 39 q 534 192 534 121 q 499 290 534 256 q 360 354 463 323 q 201 433 251 385 q 152 561 152 481 q 210 713 152 655 q 359 770 268 770 q 470 751 415 770 q 566 699 524 732 l 538 654 q 455 700 503 682 q 359 718 408 718 q 249 679 290 718 q 208 567 208 639 q 244 469 208 501 q 381 407 279 437 q 541 325 491 375 q 591 197 591 275 q 527 45 591 104 q 365 -13 463 -13 z "},"ś":{"ha":739,"x_min":131,"x_max":591,"o":"m 131 0 m 365 -13 q 247 7 311 -13 q 131 68 184 27 l 160 115 q 263 58 207 77 q 365 39 318 39 q 487 80 441 39 q 534 192 534 121 q 499 290 534 256 q 360 354 463 323 q 201 433 251 385 q 152 561 152 481 q 210 713 152 655 q 359 770 268 770 q 470 751 415 770 q 566 699 524 732 l 538 654 q 455 700 503 682 q 359 718 408 718 q 249 679 290 718 q 208 567 208 639 q 244 469 208 501 q 381 407 279 437 q 541 325 491 375 q 591 197 591 275 q 527 45 591 104 q 365 -13 463 -13 m 297 884 l 433 1136 l 523 1136 l 346 884 l 297 884 z "},"ŝ":{"ha":739,"x_min":131,"x_max":591,"o":"m 131 0 m 365 -13 q 247 7 311 -13 q 131 68 184 27 l 160 115 q 263 58 207 77 q 365 39 318 39 q 487 80 441 39 q 534 192 534 121 q 499 290 534 256 q 360 354 463 323 q 201 433 251 385 q 152 561 152 481 q 210 713 152 655 q 359 770 268 770 q 470 751 415 770 q 566 699 524 732 l 538 654 q 455 700 503 682 q 359 718 408 718 q 249 679 290 718 q 208 567 208 639 q 244 469 208 501 q 381 407 279 437 q 541 325 491 375 q 591 197 591 275 q 527 45 591 104 q 365 -13 463 -13 m 207 914 l 183 943 l 347 1158 l 386 1158 l 551 943 l 528 914 l 366 1104 l 207 914 z "},"ş":{"ha":739,"x_min":131,"x_max":591,"o":"m 131 0 m 365 -13 q 247 7 311 -13 q 131 68 184 27 l 160 115 q 263 58 207 77 q 365 39 318 39 q 487 80 441 39 q 534 192 534 121 q 499 290 534 256 q 360 354 463 323 q 201 433 251 385 q 152 561 152 481 q 210 713 152 655 q 359 770 268 770 q 470 751 415 770 q 566 699 524 732 l 538 654 q 455 700 503 682 q 359 718 408 718 q 249 679 290 718 q 208 567 208 639 q 244 469 208 501 q 381 407 279 437 q 541 325 491 375 q 591 197 591 275 q 527 45 591 104 q 365 -13 463 -13 m 336 0 l 348 25 q 434 -30 402 11 q 466 -129 466 -71 q 430 -234 466 -196 q 335 -273 394 -273 q 244 -241 279 -273 q 205 -133 210 -208 l 259 -128 q 278 -203 263 -181 q 330 -225 294 -225 q 391 -203 372 -225 q 409 -126 409 -181 q 392 -45 409 -74 q 336 0 375 -16 z "},"š":{"ha":739,"x_min":131,"x_max":591,"o":"m 131 0 m 365 -13 q 247 7 311 -13 q 131 68 184 27 l 160 115 q 263 58 207 77 q 365 39 318 39 q 487 80 441 39 q 534 192 534 121 q 499 290 534 256 q 360 354 463 323 q 201 433 251 385 q 152 561 152 481 q 210 713 152 655 q 359 770 268 770 q 470 751 415 770 q 566 699 524 732 l 538 654 q 455 700 503 682 q 359 718 408 718 q 249 679 290 718 q 208 567 208 639 q 244 469 208 501 q 381 407 279 437 q 541 325 491 375 q 591 197 591 275 q 527 45 591 104 q 365 -13 463 -13 m 348 889 l 183 1104 l 207 1133 l 367 943 l 528 1133 l 551 1104 l 388 889 l 348 889 z "},"ș":{"ha":739,"x_min":131,"x_max":591,"o":"m 131 0 m 365 -13 q 247 7 311 -13 q 131 68 184 27 l 160 115 q 263 58 207 77 q 365 39 318 39 q 487 80 441 39 q 534 192 534 121 q 499 290 534 256 q 360 354 463 323 q 201 433 251 385 q 152 561 152 481 q 210 713 152 655 q 359 770 268 770 q 470 751 415 770 q 566 699 524 732 l 538 654 q 455 700 503 682 q 359 718 408 718 q 249 679 290 718 q 208 567 208 639 q 244 469 208 501 q 381 407 279 437 q 541 325 491 375 q 591 197 591 275 q 527 45 591 104 q 365 -13 463 -13 m 240 -379 l 331 -126 l 422 -126 l 289 -379 l 240 -379 z "},"t":{"ha":739,"x_min":122,"x_max":598,"o":"m 470 -11 q 333 55 383 -11 q 283 236 283 121 l 283 706 l 122 706 l 122 758 l 283 758 l 283 1010 l 341 1010 l 341 758 l 587 758 l 587 706 l 341 706 l 341 247 q 374 92 341 143 q 476 42 408 42 q 530 49 501 42 q 586 73 558 57 l 598 23 q 535 -3 568 6 q 470 -11 503 -11 z "},"ţ":{"ha":739,"x_min":122,"x_max":598,"o":"m 122 0 m 470 -11 q 333 55 383 -11 q 283 236 283 121 l 283 706 l 122 706 l 122 758 l 283 758 l 283 1010 l 341 1010 l 341 758 l 587 758 l 587 706 l 341 706 l 341 247 q 374 92 341 143 q 476 42 408 42 q 530 49 501 42 q 586 73 558 57 l 598 23 q 535 -3 568 6 q 470 -11 503 -11 m 398 0 l 410 25 q 496 -30 463 11 q 528 -129 528 -71 q 492 -234 528 -196 q 396 -273 456 -273 q 306 -241 341 -273 q 266 -133 271 -208 l 321 -128 q 340 -203 324 -181 q 391 -225 356 -225 q 453 -203 434 -225 q 471 -126 471 -181 q 454 -45 471 -74 q 398 0 437 -16 z "},"ť":{"ha":739,"x_min":122,"x_max":645,"o":"m 122 0 m 470 -11 q 333 55 383 -11 q 283 236 283 121 l 283 706 l 122 706 l 122 758 l 283 758 l 283 1010 l 341 1010 l 341 758 l 587 758 l 587 706 l 341 706 l 341 247 q 374 92 341 143 q 476 42 408 42 q 530 49 501 42 q 586 73 558 57 l 598 23 q 535 -3 568 6 q 470 -11 503 -11 m 489 958 l 566 1263 l 645 1263 l 534 958 l 489 958 z "},"ț":{"ha":739,"x_min":122,"x_max":598,"o":"m 122 0 m 470 -11 q 333 55 383 -11 q 283 236 283 121 l 283 706 l 122 706 l 122 758 l 283 758 l 283 1010 l 341 1010 l 341 758 l 587 758 l 587 706 l 341 706 l 341 247 q 374 92 341 143 q 476 42 408 42 q 530 49 501 42 q 586 73 558 57 l 598 23 q 535 -3 568 6 q 470 -11 503 -11 m 263 -379 l 354 -126 l 444 -126 l 312 -379 l 263 -379 z "},"u":{"ha":739,"x_min":152,"x_max":587,"o":"m 335 -13 q 202 47 253 -13 q 152 207 152 106 l 152 758 l 208 758 l 208 218 q 245 86 208 131 q 346 40 282 40 q 446 67 399 40 q 530 153 494 93 l 530 758 l 587 758 l 587 0 l 530 0 l 530 101 l 520 101 q 442 17 494 47 q 335 -13 390 -13 z "},"ù":{"ha":739,"x_min":152,"x_max":587,"o":"m 152 0 m 335 -13 q 202 47 253 -13 q 152 207 152 106 l 152 758 l 208 758 l 208 218 q 245 86 208 131 q 346 40 282 40 q 446 67 399 40 q 530 153 494 93 l 530 758 l 587 758 l 587 0 l 530 0 l 530 101 l 520 101 q 442 17 494 47 q 335 -13 390 -13 m 367 884 l 191 1136 l 282 1136 l 417 884 l 367 884 z "},"ú":{"ha":739,"x_min":152,"x_max":587,"o":"m 152 0 m 335 -13 q 202 47 253 -13 q 152 207 152 106 l 152 758 l 208 758 l 208 218 q 245 86 208 131 q 346 40 282 40 q 446 67 399 40 q 530 153 494 93 l 530 758 l 587 758 l 587 0 l 530 0 l 530 101 l 520 101 q 442 17 494 47 q 335 -13 390 -13 m 336 884 l 472 1136 l 562 1136 l 385 884 l 336 884 z "},"û":{"ha":739,"x_min":152,"x_max":587,"o":"m 152 0 m 335 -13 q 202 47 253 -13 q 152 207 152 106 l 152 758 l 208 758 l 208 218 q 245 86 208 131 q 346 40 282 40 q 446 67 399 40 q 530 153 494 93 l 530 758 l 587 758 l 587 0 l 530 0 l 530 101 l 520 101 q 442 17 494 47 q 335 -13 390 -13 m 211 914 l 187 943 l 351 1158 l 390 1158 l 554 943 l 532 914 l 370 1104 l 211 914 z "},"ü":{"ha":739,"x_min":152,"x_max":587,"o":"m 152 0 m 335 -13 q 202 47 253 -13 q 152 207 152 106 l 152 758 l 208 758 l 208 218 q 245 86 208 131 q 346 40 282 40 q 446 67 399 40 q 530 153 494 93 l 530 758 l 587 758 l 587 0 l 530 0 l 530 101 l 520 101 q 442 17 494 47 q 335 -13 390 -13 m 270 924 q 235 933 249 924 q 222 968 222 942 l 222 977 q 235 1015 222 1005 q 270 1024 249 1024 q 304 1015 290 1024 q 317 977 317 1005 l 317 968 q 304 933 317 942 q 270 924 290 924 m 472 924 q 439 933 452 924 q 426 968 426 942 l 426 977 q 439 1015 426 1005 q 472 1024 452 1024 q 507 1015 494 1024 q 520 977 520 1005 l 520 968 q 506 933 520 942 q 472 924 492 924 z "},"ũ":{"ha":739,"x_min":152,"x_max":587,"o":"m 152 0 m 335 -13 q 202 47 253 -13 q 152 207 152 106 l 152 758 l 208 758 l 208 218 q 245 86 208 131 q 346 40 282 40 q 446 67 399 40 q 530 153 494 93 l 530 758 l 587 758 l 587 0 l 530 0 l 530 101 l 520 101 q 442 17 494 47 q 335 -13 390 -13 m 451 896 q 397 921 419 896 q 350 1014 375 946 q 318 1085 332 1067 q 288 1104 304 1104 q 248 1059 261 1104 q 236 923 235 1015 l 236 909 l 189 909 l 189 928 q 215 1093 189 1038 q 289 1149 240 1149 q 343 1126 322 1149 q 388 1039 365 1104 q 423 962 409 982 q 452 942 437 942 q 491 986 477 942 q 504 1122 504 1030 l 504 1136 l 551 1136 l 551 1117 q 525 952 551 1008 q 451 896 500 896 z "},"ū":{"ha":739,"x_min":152,"x_max":587,"o":"m 152 0 m 335 -13 q 202 47 253 -13 q 152 207 152 106 l 152 758 l 208 758 l 208 218 q 245 86 208 131 q 346 40 282 40 q 446 67 399 40 q 530 153 494 93 l 530 758 l 587 758 l 587 0 l 530 0 l 530 101 l 520 101 q 442 17 494 47 q 335 -13 390 -13 m 199 987 l 199 1039 l 540 1039 l 540 987 l 199 987 z "},"ŭ":{"ha":739,"x_min":152,"x_max":587,"o":"m 152 0 m 335 -13 q 202 47 253 -13 q 152 207 152 106 l 152 758 l 208 758 l 208 218 q 245 86 208 131 q 346 40 282 40 q 446 67 399 40 q 530 153 494 93 l 530 758 l 587 758 l 587 0 l 530 0 l 530 101 l 520 101 q 442 17 494 47 q 335 -13 390 -13 m 371 875 q 227 942 279 875 q 173 1134 174 1009 l 231 1134 q 266 977 232 1025 q 371 928 299 928 q 477 977 443 928 q 511 1134 510 1025 l 569 1134 q 516 942 568 1009 q 371 875 463 875 z "},"ů":{"ha":739,"x_min":152,"x_max":587,"o":"m 152 0 m 335 -13 q 202 47 253 -13 q 152 207 152 106 l 152 758 l 208 758 l 208 218 q 245 86 208 131 q 346 40 282 40 q 446 67 399 40 q 530 153 494 93 l 530 758 l 587 758 l 587 0 l 530 0 l 530 101 l 520 101 q 442 17 494 47 q 335 -13 390 -13 m 371 865 q 271 908 307 865 q 235 1035 235 952 l 235 1101 q 271 1230 235 1186 q 371 1275 307 1275 q 472 1230 436 1275 q 508 1101 508 1186 l 508 1035 q 472 908 508 952 q 371 865 436 865 m 371 913 q 436 942 415 913 q 456 1035 456 971 l 456 1101 q 436 1197 456 1167 q 371 1227 415 1227 q 307 1197 327 1227 q 287 1101 287 1167 l 287 1035 q 307 942 287 971 q 371 913 327 913 z "},"ű":{"ha":739,"x_min":152,"x_max":592,"o":"m 152 0 m 335 -13 q 202 47 253 -13 q 152 207 152 106 l 152 758 l 208 758 l 208 218 q 245 86 208 131 q 346 40 282 40 q 446 67 399 40 q 530 153 494 93 l 530 758 l 587 758 l 587 0 l 530 0 l 530 101 l 520 101 q 442 17 494 47 q 335 -13 390 -13 m 443 884 l 496 1136 l 592 1136 l 489 884 l 443 884 m 255 884 l 308 1136 l 404 1136 l 301 884 l 255 884 z "},"ų":{"ha":739,"x_min":152,"x_max":670,"o":"m 152 0 m 335 -13 q 202 47 253 -13 q 152 207 152 106 l 152 758 l 208 758 l 208 218 q 245 86 208 131 q 346 40 282 40 q 446 67 399 40 q 530 153 494 93 l 530 758 l 587 758 l 587 0 l 530 0 l 530 101 l 520 101 q 442 17 494 47 q 335 -13 390 -13 m 590 -271 q 497 -234 533 -271 q 462 -135 462 -197 q 493 -34 462 -81 q 574 42 524 13 l 590 29 q 535 -38 552 -3 q 518 -120 518 -73 q 537 -196 518 -173 q 597 -220 556 -220 q 634 -217 616 -220 q 670 -210 653 -215 l 670 -261 q 630 -269 653 -266 q 590 -271 607 -271 z "},"v":{"ha":739,"x_min":126,"x_max":611,"o":"m 402 0 l 335 0 l 126 758 l 187 758 l 370 68 l 552 758 l 611 758 l 402 0 z "},"w":{"ha":739,"x_min":82,"x_max":657,"o":"m 475 0 l 369 534 l 268 0 l 203 0 l 82 758 l 140 758 l 237 92 l 333 631 l 402 631 l 504 107 l 598 758 l 657 758 l 535 0 l 475 0 z "},"":{"ha":739,"x_min":82,"x_max":657,"o":"m 475 0 l 369 534 l 268 0 l 203 0 l 82 758 l 140 758 l 237 92 l 333 631 l 402 631 l 504 107 l 598 758 l 657 758 l 535 0 l 475 0 z "},"ŵ":{"ha":739,"x_min":82,"x_max":657,"o":"m 82 0 m 475 0 l 369 534 l 268 0 l 203 0 l 82 758 l 140 758 l 237 92 l 333 631 l 402 631 l 504 107 l 598 758 l 657 758 l 535 0 l 475 0 m 211 914 l 187 943 l 351 1158 l 390 1158 l 554 943 l 532 914 l 370 1104 l 211 914 z "},"ẁ":{"ha":739,"x_min":82,"x_max":657,"o":"m 82 0 m 475 0 l 369 534 l 268 0 l 203 0 l 82 758 l 140 758 l 237 92 l 333 631 l 402 631 l 504 107 l 598 758 l 657 758 l 535 0 l 475 0 m 389 884 l 212 1136 l 303 1136 l 438 884 l 389 884 z "},"ẃ":{"ha":739,"x_min":82,"x_max":657,"o":"m 82 0 m 475 0 l 369 534 l 268 0 l 203 0 l 82 758 l 140 758 l 237 92 l 333 631 l 402 631 l 504 107 l 598 758 l 657 758 l 535 0 l 475 0 m 306 884 l 442 1136 l 532 1136 l 355 884 l 306 884 z "},"ẅ":{"ha":739,"x_min":82,"x_max":657,"o":"m 82 0 m 475 0 l 369 534 l 268 0 l 203 0 l 82 758 l 140 758 l 237 92 l 333 631 l 402 631 l 504 107 l 598 758 l 657 758 l 535 0 l 475 0 m 270 924 q 235 933 249 924 q 222 968 222 942 l 222 977 q 235 1015 222 1005 q 270 1024 249 1024 q 304 1015 290 1024 q 317 977 317 1005 l 317 968 q 304 933 317 942 q 270 924 290 924 m 472 924 q 439 933 452 924 q 426 968 426 942 l 426 977 q 439 1015 426 1005 q 472 1024 452 1024 q 507 1015 494 1024 q 520 977 520 1005 l 520 968 q 506 933 520 942 q 472 924 492 924 z "},"x":{"ha":739,"x_min":143,"x_max":596,"o":"m 535 0 l 371 336 l 201 0 l 143 0 l 345 394 l 167 758 l 225 758 l 379 443 l 538 758 l 596 758 l 404 388 l 593 0 l 535 0 z "},"y":{"ha":739,"x_min":128,"x_max":612,"o":"m 203 -260 q 170 -258 187 -260 q 131 -250 153 -255 l 139 -199 q 176 -207 159 -205 q 213 -210 192 -210 q 288 -181 260 -210 q 336 -69 316 -152 l 354 0 l 338 0 l 128 758 l 188 758 l 374 69 l 556 758 l 612 758 l 384 -82 q 313 -220 357 -179 q 203 -260 269 -260 z "},"":{"ha":739,"x_min":128,"x_max":612,"o":"m 203 -260 q 170 -258 187 -260 q 131 -250 153 -255 l 139 -199 q 176 -207 159 -205 q 213 -210 192 -210 q 288 -181 260 -210 q 336 -69 316 -152 l 354 0 l 338 0 l 128 758 l 188 758 l 374 69 l 556 758 l 612 758 l 384 -82 q 313 -220 357 -179 q 203 -260 269 -260 z "},"ý":{"ha":739,"x_min":128,"x_max":612,"o":"m 128 0 m 203 -260 q 170 -258 187 -260 q 131 -250 153 -255 l 139 -199 q 176 -207 159 -205 q 213 -210 192 -210 q 288 -181 260 -210 q 336 -69 316 -152 l 354 0 l 338 0 l 128 758 l 188 758 l 374 69 l 556 758 l 612 758 l 384 -82 q 313 -220 357 -179 q 203 -260 269 -260 m 297 884 l 433 1136 l 523 1136 l 346 884 l 297 884 z "},"ÿ":{"ha":739,"x_min":128,"x_max":612,"o":"m 128 0 m 203 -260 q 170 -258 187 -260 q 131 -250 153 -255 l 139 -199 q 176 -207 159 -205 q 213 -210 192 -210 q 288 -181 260 -210 q 336 -69 316 -152 l 354 0 l 338 0 l 128 758 l 188 758 l 374 69 l 556 758 l 612 758 l 384 -82 q 313 -220 357 -179 q 203 -260 269 -260 m 269 924 q 234 933 247 924 q 221 968 221 942 l 221 977 q 234 1015 221 1005 q 269 1024 247 1024 q 302 1015 289 1024 q 316 977 316 1005 l 316 968 q 302 933 316 942 q 269 924 289 924 m 471 924 q 437 933 451 924 q 424 968 424 942 l 424 977 q 437 1015 424 1005 q 471 1024 451 1024 q 506 1015 492 1024 q 519 977 519 1005 l 519 968 q 505 933 519 942 q 471 924 491 924 z "},"ŷ":{"ha":739,"x_min":128,"x_max":612,"o":"m 128 0 m 203 -260 q 170 -258 187 -260 q 131 -250 153 -255 l 139 -199 q 176 -207 159 -205 q 213 -210 192 -210 q 288 -181 260 -210 q 336 -69 316 -152 l 354 0 l 338 0 l 128 758 l 188 758 l 374 69 l 556 758 l 612 758 l 384 -82 q 313 -220 357 -179 q 203 -260 269 -260 m 210 914 l 186 943 l 350 1158 l 389 1158 l 553 943 l 530 914 l 369 1104 l 210 914 z "},"ỳ":{"ha":739,"x_min":128,"x_max":612,"o":"m 128 0 m 203 -260 q 170 -258 187 -260 q 131 -250 153 -255 l 139 -199 q 176 -207 159 -205 q 213 -210 192 -210 q 288 -181 260 -210 q 336 -69 316 -152 l 354 0 l 338 0 l 128 758 l 188 758 l 374 69 l 556 758 l 612 758 l 384 -82 q 313 -220 357 -179 q 203 -260 269 -260 m 389 884 l 212 1136 l 303 1136 l 438 884 l 389 884 z "},"z":{"ha":739,"x_min":170,"x_max":568,"o":"m 568 0 l 170 0 l 170 52 l 506 706 l 170 706 l 170 758 l 568 758 l 568 706 l 230 52 l 568 52 l 568 0 z "},"ź":{"ha":739,"x_min":170,"x_max":568,"o":"m 170 0 m 568 0 l 170 0 l 170 52 l 506 706 l 170 706 l 170 758 l 568 758 l 568 706 l 230 52 l 568 52 l 568 0 m 306 884 l 442 1136 l 532 1136 l 355 884 l 306 884 z "},"ż":{"ha":739,"x_min":170,"x_max":568,"o":"m 170 0 m 568 0 l 170 0 l 170 52 l 506 706 l 170 706 l 170 758 l 568 758 l 568 706 l 230 52 l 568 52 l 568 0 m 379 924 q 340 934 355 924 q 324 968 324 943 l 324 977 q 340 1014 324 1004 q 379 1024 355 1024 q 418 1014 403 1024 q 433 977 433 1004 l 433 968 q 418 934 433 943 q 379 924 403 924 z "},"ž":{"ha":739,"x_min":170,"x_max":568,"o":"m 170 0 m 568 0 l 170 0 l 170 52 l 506 706 l 170 706 l 170 758 l 568 758 l 568 706 l 230 52 l 568 52 l 568 0 m 347 889 l 182 1104 l 206 1133 l 366 943 l 527 1133 l 549 1104 l 386 889 l 347 889 z "},"ª":{"ha":739,"x_min":158,"x_max":591,"o":"m 313 455 q 395 477 360 455 q 451 533 429 499 l 451 678 l 306 678 q 234 654 258 678 q 210 580 210 630 q 234 485 210 515 q 313 455 259 455 m 301 405 q 197 451 236 405 q 158 573 158 496 q 195 681 158 641 q 283 721 232 721 l 451 721 l 451 812 q 421 932 451 890 q 335 973 391 973 q 257 950 280 973 q 217 861 234 927 l 172 879 q 225 989 186 955 q 337 1023 265 1023 q 457 970 413 1023 q 501 824 501 918 l 501 558 q 520 480 501 499 q 591 470 539 461 l 591 412 q 504 427 533 405 q 475 508 476 449 l 466 508 q 399 433 441 461 q 301 405 357 405 z "},"º":{"ha":739,"x_min":179,"x_max":559,"o":"m 370 405 q 229 467 279 405 q 179 639 179 528 l 179 783 q 229 961 179 899 q 370 1023 279 1023 q 509 961 460 1023 q 559 783 559 899 l 559 639 q 509 467 559 528 q 370 405 460 405 m 370 458 q 471 502 438 458 q 504 639 504 545 l 504 783 q 471 925 504 880 q 370 970 438 970 q 267 925 301 970 q 234 783 234 880 l 234 639 q 267 502 234 545 q 370 458 301 458 z "},"ß":{"ha":739,"x_min":104,"x_max":672,"o":"m 477 -8 q 372 12 423 -8 q 287 63 322 32 l 317 109 q 391 61 351 78 q 479 44 432 44 q 578 81 543 44 q 614 189 614 119 q 585 285 614 254 q 472 347 557 317 q 331 427 374 383 q 289 548 289 471 q 347 689 289 635 q 494 747 405 742 q 449 913 492 857 q 326 968 407 968 q 202 911 244 968 q 160 736 160 854 l 160 0 l 104 0 l 104 753 q 164 949 104 878 q 327 1020 223 1020 q 491 949 431 1020 q 552 753 552 878 l 552 699 q 398 663 449 699 q 346 551 346 626 q 376 461 346 491 q 494 399 405 431 q 630 320 588 366 q 672 191 672 274 q 617 47 672 101 q 477 -8 563 -8 z "},"æ":{"ha":739,"x_min":81,"x_max":657,"o":"m 654 153 q 607 28 641 69 q 504 -13 572 -13 q 425 15 457 -13 q 376 88 393 42 l 369 88 q 306 15 345 43 q 218 -13 268 -13 q 119 44 157 -13 q 81 203 81 101 q 124 343 81 289 q 236 396 168 396 l 346 396 l 346 538 q 321 669 346 621 q 245 717 297 717 q 180 690 199 717 q 144 596 160 663 l 96 612 q 145 729 109 688 q 246 770 182 770 q 328 741 293 770 q 375 657 364 711 q 424 739 389 708 q 501 770 460 770 q 614 711 572 770 q 657 527 657 652 l 657 374 l 399 374 l 399 217 q 424 82 399 124 q 500 40 449 40 q 570 67 549 40 q 602 167 591 93 l 654 153 m 399 535 l 399 424 l 601 424 l 601 524 q 576 671 601 625 q 500 717 551 717 q 425 672 451 717 q 399 535 399 628 m 346 112 l 346 348 l 237 348 q 162 313 188 348 q 136 211 136 278 q 159 81 136 124 q 229 39 182 39 q 295 59 264 39 q 346 112 326 78 z "},"ǽ":{"ha":739,"x_min":81,"x_max":657,"o":"m 81 0 m 654 153 q 607 28 641 69 q 504 -13 572 -13 q 425 15 457 -13 q 376 88 393 42 l 369 88 q 306 15 345 43 q 218 -13 268 -13 q 119 44 157 -13 q 81 203 81 101 q 124 343 81 289 q 236 396 168 396 l 346 396 l 346 538 q 321 669 346 621 q 245 717 297 717 q 180 690 199 717 q 144 596 160 663 l 96 612 q 145 729 109 688 q 246 770 182 770 q 328 741 293 770 q 375 657 364 711 q 424 739 389 708 q 501 770 460 770 q 614 711 572 770 q 657 527 657 652 l 657 374 l 399 374 l 399 217 q 424 82 399 124 q 500 40 449 40 q 570 67 549 40 q 602 167 591 93 l 654 153 m 399 535 l 399 424 l 601 424 l 601 524 q 576 671 601 625 q 500 717 551 717 q 425 672 451 717 q 399 535 399 628 m 346 112 l 346 348 l 237 348 q 162 313 188 348 q 136 211 136 278 q 159 81 136 124 q 229 39 182 39 q 295 59 264 39 q 346 112 326 78 m 352 884 l 489 1136 l 578 1136 l 402 884 l 352 884 z "},"ð":{"ha":739,"x_min":152,"x_max":629,"o":"m 370 -13 q 207 58 263 -13 q 152 265 152 129 l 152 381 q 210 564 152 496 q 364 631 269 631 q 473 600 429 631 q 533 524 516 568 l 538 524 q 516 691 535 615 q 462 827 497 766 l 293 723 l 293 769 l 438 859 q 356 941 405 909 q 244 994 307 973 l 260 1037 q 385 975 330 1013 q 479 883 441 937 l 629 975 l 629 929 l 501 852 q 565 687 543 780 q 587 476 587 593 l 587 273 q 532 60 587 133 q 370 -13 476 -13 m 370 39 q 492 92 455 39 q 530 263 530 145 l 530 367 q 492 528 530 477 q 370 578 455 578 q 249 528 287 578 q 211 367 211 477 l 211 263 q 249 92 211 145 q 370 39 287 39 z "},"ø":{"ha":739,"x_min":152,"x_max":587,"o":"m 208 249 q 218 157 208 194 q 245 95 229 119 l 457 691 q 417 711 439 705 q 370 718 395 718 q 249 666 290 718 q 208 504 208 614 l 208 249 m 370 39 q 490 88 449 39 q 530 249 530 136 l 530 504 q 520 595 530 557 q 494 660 510 633 l 283 64 q 321 45 299 52 q 370 39 343 39 m 370 -13 q 311 -5 338 -13 q 260 19 284 3 l 217 -92 l 162 -92 l 218 44 q 169 128 187 77 q 152 249 152 178 l 152 504 q 211 705 152 639 q 370 770 270 770 q 429 763 402 770 q 479 739 456 755 l 523 850 l 577 850 l 521 712 q 569 627 552 678 q 587 504 587 576 l 587 249 q 528 52 587 116 q 370 -13 470 -13 z "},"ǿ":{"ha":739,"x_min":152,"x_max":587,"o":"m 152 0 m 208 249 q 218 157 208 194 q 245 95 229 119 l 457 691 q 417 711 439 705 q 370 718 395 718 q 249 666 290 718 q 208 504 208 614 l 208 249 m 370 39 q 490 88 449 39 q 530 249 530 136 l 530 504 q 520 595 530 557 q 494 660 510 633 l 283 64 q 321 45 299 52 q 370 39 343 39 m 370 -13 q 311 -5 338 -13 q 260 19 284 3 l 217 -92 l 162 -92 l 218 44 q 169 128 187 77 q 152 249 152 178 l 152 504 q 211 705 152 639 q 370 770 270 770 q 429 763 402 770 q 479 739 456 755 l 523 850 l 577 850 l 521 712 q 569 627 552 678 q 587 504 587 576 l 587 249 q 528 52 587 116 q 370 -13 470 -13 m 306 884 l 442 1136 l 532 1136 l 355 884 l 306 884 z "},"þ":{"ha":739,"x_min":152,"x_max":587,"o":"m 361 37 q 489 90 447 37 q 530 254 530 143 l 530 509 q 494 667 530 615 q 385 718 457 718 q 295 693 335 718 q 208 605 255 667 l 208 85 q 281 47 241 57 q 361 37 321 37 m 362 -13 q 287 -5 330 -13 q 208 24 245 3 l 208 -253 l 152 -253 l 152 1010 l 208 1010 l 208 657 l 218 657 q 294 742 250 715 q 394 770 337 770 q 536 701 485 770 q 587 508 587 631 l 587 251 q 528 57 587 128 q 362 -13 468 -13 z "},"đ":{"ha":739,"x_min":152,"x_max":682,"o":"m 346 39 q 443 65 403 39 q 530 153 484 91 l 530 614 q 458 646 497 634 q 378 658 418 658 q 250 604 290 658 q 210 456 210 551 l 210 234 q 245 87 210 135 q 346 39 280 39 m 519 100 q 444 16 487 44 q 338 -13 400 -13 q 201 52 251 -13 q 152 235 152 117 l 152 458 q 210 638 152 569 q 378 707 269 707 q 456 696 413 707 q 530 670 499 686 l 530 822 l 341 822 l 341 875 l 530 875 l 530 1010 l 587 1010 l 587 875 l 682 875 l 682 822 l 587 822 l 587 0 l 530 0 l 530 100 l 519 100 z "},"ħ":{"ha":739,"x_min":57,"x_max":587,"o":"m 208 542 l 208 0 l 152 0 l 152 822 l 57 822 l 57 875 l 152 875 l 152 1010 l 208 1010 l 208 875 l 398 875 l 398 822 l 208 822 l 208 593 l 218 593 q 295 677 245 648 q 403 707 345 707 q 537 648 486 707 q 587 486 587 588 l 587 0 l 530 0 l 530 473 q 494 608 530 562 q 394 654 458 654 q 298 629 341 654 q 208 542 255 605 z "},"ı":{"ha":739,"x_min":152,"x_max":587,"o":"m 152 0 l 152 52 l 341 52 l 341 706 l 152 706 l 152 758 l 398 758 l 398 52 l 587 52 l 587 0 l 152 0 z "},"ĳ":{"ha":739,"x_min":144,"x_max":609,"o":"m 198 924 q 159 934 174 924 q 144 968 144 943 l 144 977 q 159 1014 144 1004 q 198 1024 174 1024 q 237 1014 222 1024 q 253 977 253 1004 l 253 968 q 237 934 253 943 q 198 924 222 924 m 554 924 q 515 934 530 924 q 499 968 499 943 l 499 977 q 515 1014 499 1004 q 554 1024 530 1024 q 593 1014 578 1024 q 609 977 609 1004 l 609 968 q 593 934 609 943 q 554 924 578 924 m 227 0 l 169 0 l 169 758 l 227 758 l 227 0 m 404 -263 q 352 -256 379 -263 q 298 -237 326 -250 l 311 -187 q 361 -206 337 -202 q 408 -210 385 -210 q 499 -164 467 -210 q 530 -23 530 -117 l 530 706 l 407 706 l 407 758 l 588 758 l 588 -33 q 538 -201 588 -139 q 404 -263 487 -263 z "},"ĸ":{"ha":739,"x_min":199,"x_max":601,"o":"m 199 0 m 256 371 l 256 0 l 199 0 l 199 758 l 256 758 l 256 423 l 341 423 l 538 758 l 601 758 l 386 403 l 598 0 l 535 0 l 343 371 l 256 371 z "},"ŀ":{"ha":739,"x_min":152,"x_max":734,"o":"m 152 0 m 152 0 l 152 52 l 341 52 l 341 958 l 152 958 l 152 1010 l 398 1010 l 398 52 l 587 52 l 587 0 l 152 0 m 679 412 q 640 421 655 412 q 625 456 625 431 l 625 465 q 640 501 625 491 q 679 511 655 511 q 718 501 703 511 q 734 465 734 491 l 734 456 q 718 421 734 431 q 679 412 703 412 z "},"ł":{"ha":739,"x_min":152,"x_max":587,"o":"m 181 419 l 181 472 l 559 611 l 559 558 l 181 419 m 152 0 l 152 52 l 341 52 l 341 958 l 152 958 l 152 1010 l 398 1010 l 398 52 l 587 52 l 587 0 l 152 0 z "},"ŉ":{"ha":739,"x_min":59,"x_max":587,"o":"m 59 0 m 152 0 l 152 758 l 208 758 l 208 657 l 218 657 q 296 741 245 711 q 402 770 347 770 q 536 711 485 770 q 587 551 587 652 l 587 0 l 530 0 l 530 539 q 494 672 530 626 q 394 717 458 717 q 293 691 341 717 q 208 605 245 664 l 208 0 l 152 0 m 59 884 l 196 1136 l 285 1136 l 109 884 l 59 884 z "},"ŋ":{"ha":739,"x_min":152,"x_max":587,"o":"m 414 -263 q 365 -257 390 -263 q 313 -241 340 -251 l 326 -187 q 374 -204 351 -199 q 418 -208 398 -208 q 499 -169 468 -208 q 530 -42 530 -129 l 530 542 q 496 672 530 626 q 394 717 461 717 q 295 692 342 717 q 208 605 247 667 l 208 0 l 152 0 l 152 758 l 208 758 l 208 657 l 218 657 q 292 739 242 708 q 403 770 341 770 q 538 710 489 770 q 587 540 587 649 l 587 -58 q 539 -213 587 -163 q 414 -263 490 -263 z "},"œ":{"ha":739,"x_min":81,"x_max":657,"o":"m 653 149 q 598 29 634 71 q 500 -13 562 -13 q 416 21 453 -13 q 367 115 379 54 q 317 21 354 54 q 235 -13 280 -13 q 121 55 162 -13 q 81 249 81 122 l 81 504 q 121 701 81 633 q 236 770 162 770 q 319 737 282 770 q 369 645 356 705 q 420 737 385 703 q 497 770 455 770 q 615 698 573 770 q 657 491 657 626 l 657 374 l 395 374 l 395 253 q 420 90 395 140 q 496 40 446 40 q 563 70 542 40 q 601 168 585 100 l 653 149 m 395 500 l 395 424 l 601 424 l 601 489 q 575 662 601 607 q 496 716 549 716 q 420 663 446 716 q 395 500 395 610 m 237 40 q 316 89 289 40 q 342 249 342 138 l 342 504 q 316 665 342 614 q 237 717 289 717 q 162 665 187 717 q 136 504 136 614 l 136 249 q 162 89 136 138 q 237 40 187 40 z "},"ŧ":{"ha":739,"x_min":122,"x_max":598,"o":"m 122 388 l 122 439 l 587 439 l 587 388 l 122 388 m 470 -11 q 333 55 383 -11 q 283 236 283 121 l 283 706 l 122 706 l 122 758 l 283 758 l 283 1010 l 341 1010 l 341 758 l 587 758 l 587 706 l 341 706 l 341 247 q 374 92 341 143 q 476 42 408 42 q 530 49 501 42 q 586 73 558 57 l 598 23 q 535 -3 568 6 q 470 -11 503 -11 z "},"ſ":{"ha":739,"x_min":227,"x_max":590,"o":"m 341 0 l 341 706 l 227 706 l 227 758 l 341 758 l 341 827 q 383 967 341 918 q 484 1016 424 1016 q 541 1009 513 1016 q 590 989 569 1001 l 577 941 q 535 958 558 951 q 485 965 513 965 q 422 932 447 965 q 398 828 398 900 l 398 0 l 341 0 z "},"ȷ":{"ha":739,"x_min":149,"x_max":492,"o":"m 287 -263 q 218 -254 253 -263 q 149 -231 183 -245 l 163 -178 q 225 -201 194 -192 q 284 -210 256 -210 q 398 -162 360 -210 q 436 -15 436 -114 l 436 706 l 170 706 l 170 758 l 492 758 l 492 -18 q 437 -198 492 -134 q 287 -263 381 -263 z "},"":{"ha":739,"x_min":149,"x_max":492,"o":"m 287 -263 q 218 -254 253 -263 q 149 -231 183 -245 l 163 -178 q 225 -201 194 -192 q 284 -210 256 -210 q 398 -162 360 -210 q 436 -15 436 -114 l 436 706 l 170 706 l 170 758 l 492 758 l 492 -18 q 437 -198 492 -134 q 287 -263 381 -263 z "},"α":{"ha":739,"x_min":143,"x_max":673,"o":"m 340 40 q 426 68 385 40 q 503 153 467 95 l 503 605 q 426 690 467 663 q 340 717 385 717 q 237 662 271 717 q 202 495 202 606 l 202 263 q 238 97 202 153 q 340 40 274 40 m 518 114 l 508 114 q 434 18 480 49 q 331 -13 389 -13 q 193 57 244 -13 q 143 250 143 128 l 143 508 q 193 700 143 630 q 331 770 244 770 q 423 741 379 770 q 492 657 467 712 l 503 657 l 503 758 l 559 758 l 559 202 q 585 68 559 100 q 673 51 610 35 l 673 -4 q 561 13 600 -16 q 518 114 523 42 z "},"ά":{"ha":739,"x_min":143,"x_max":673,"o":"m 143 0 m 340 40 q 426 68 385 40 q 503 153 467 95 l 503 605 q 426 690 467 663 q 340 717 385 717 q 237 662 271 717 q 202 495 202 606 l 202 263 q 238 97 202 153 q 340 40 274 40 m 518 114 l 508 114 q 434 18 480 49 q 331 -13 389 -13 q 193 57 244 -13 q 143 250 143 128 l 143 508 q 193 700 143 630 q 331 770 244 770 q 423 741 379 770 q 492 657 467 712 l 503 657 l 503 758 l 559 758 l 559 202 q 585 68 559 100 q 673 51 610 35 l 673 -4 q 561 13 600 -16 q 518 114 523 42 m 365 884 l 444 1136 l 533 1136 l 413 884 l 365 884 z "},"β":{"ha":739,"x_min":152,"x_max":587,"o":"m 361 37 q 487 88 446 37 q 528 254 528 140 l 528 332 q 488 472 528 427 q 370 516 448 516 l 321 516 l 321 566 l 364 566 q 468 605 436 566 q 501 729 501 645 l 501 777 q 467 924 501 876 q 364 971 432 971 q 247 919 285 971 q 208 753 208 866 l 208 87 q 279 49 242 61 q 361 37 316 37 m 362 -13 q 282 -2 322 -13 q 208 29 241 9 l 208 -253 l 152 -253 l 152 758 q 208 951 152 880 q 364 1023 265 1023 q 504 960 452 1023 q 557 787 557 896 l 557 729 q 529 608 557 655 q 447 548 501 561 l 447 543 q 550 478 513 534 q 587 332 587 422 l 587 251 q 527 58 587 129 q 362 -13 467 -13 z "},"γ":{"ha":739,"x_min":126,"x_max":611,"o":"m 402 -253 l 336 -253 l 341 14 l 126 758 l 189 758 l 370 115 l 545 758 l 611 758 l 396 14 l 402 -253 z "},"δ":{"ha":739,"x_min":152,"x_max":587,"o":"m 370 -13 q 207 57 263 -13 q 152 261 152 126 l 152 390 q 187 532 152 470 q 290 635 222 593 q 204 715 231 668 q 177 830 177 761 q 223 964 177 918 q 352 1010 269 1010 l 523 1010 l 523 958 l 352 958 q 264 927 294 958 q 234 832 234 896 q 266 725 234 760 q 394 655 298 691 q 547 554 506 605 q 587 403 587 503 l 587 261 q 532 57 587 126 q 370 -13 476 -13 m 370 39 q 492 92 453 39 q 530 261 530 144 l 530 403 q 492 527 530 486 q 335 616 455 567 q 241 520 273 576 q 208 390 208 465 l 208 261 q 247 92 208 144 q 370 39 287 39 z "},"ε":{"ha":739,"x_min":133,"x_max":602,"o":"m 374 -13 q 190 41 247 -13 q 133 211 133 95 l 133 223 q 165 351 133 297 q 263 410 198 405 l 263 414 q 181 458 211 418 q 150 567 150 499 l 150 585 q 203 725 150 679 q 364 770 256 770 q 525 723 472 770 q 585 573 578 676 l 528 567 q 483 684 520 650 q 364 718 446 718 q 243 687 278 718 q 208 577 208 655 l 208 559 q 244 467 208 494 q 366 439 279 439 l 419 439 l 419 388 l 366 388 q 227 355 264 388 q 191 236 191 323 l 191 223 q 232 81 191 122 q 374 39 274 39 q 498 76 460 39 q 545 205 537 114 l 602 198 q 540 38 596 88 q 374 -13 485 -13 z "},"έ":{"ha":739,"x_min":133,"x_max":602,"o":"m 133 0 m 374 -13 q 190 41 247 -13 q 133 211 133 95 l 133 223 q 165 351 133 297 q 263 410 198 405 l 263 414 q 181 458 211 418 q 150 567 150 499 l 150 585 q 203 725 150 679 q 364 770 256 770 q 525 723 472 770 q 585 573 578 676 l 528 567 q 483 684 520 650 q 364 718 446 718 q 243 687 278 718 q 208 577 208 655 l 208 559 q 244 467 208 494 q 366 439 279 439 l 419 439 l 419 388 l 366 388 q 227 355 264 388 q 191 236 191 323 l 191 223 q 232 81 191 122 q 374 39 274 39 q 498 76 460 39 q 545 205 537 114 l 602 198 q 540 38 596 88 q 374 -13 485 -13 m 318 884 l 398 1136 l 486 1136 l 366 884 l 318 884 z "},"ζ":{"ha":739,"x_min":134,"x_max":611,"o":"m 439 -253 l 341 -253 l 341 -201 l 441 -201 q 511 -172 487 -201 q 534 -83 534 -143 q 511 6 534 -23 q 441 34 487 34 l 360 34 q 201 105 256 34 q 146 307 146 177 q 166 446 146 380 q 231 591 186 513 l 386 861 l 384 866 q 217 894 283 854 q 134 1020 150 934 l 186 1033 q 269 919 198 951 q 431 926 340 888 l 586 1020 l 611 956 l 452 876 l 273 558 q 217 433 230 482 q 205 313 205 384 q 244 146 205 206 q 360 86 284 86 l 439 86 q 548 41 509 86 q 587 -83 587 -4 q 548 -208 587 -163 q 439 -253 509 -253 z "},"η":{"ha":739,"x_min":152,"x_max":587,"o":"m 530 -253 l 530 539 q 494 672 530 626 q 394 717 458 717 q 293 691 341 717 q 208 605 245 664 l 208 0 l 152 0 l 152 758 l 208 758 l 208 657 l 218 657 q 296 741 245 711 q 402 770 347 770 q 536 711 485 770 q 587 551 587 652 l 587 -253 l 530 -253 z "},"ή":{"ha":739,"x_min":152,"x_max":587,"o":"m 152 0 m 530 -253 l 530 539 q 494 672 530 626 q 394 717 458 717 q 293 691 341 717 q 208 605 245 664 l 208 0 l 152 0 l 152 758 l 208 758 l 208 657 l 218 657 q 296 741 245 711 q 402 770 347 770 q 536 711 485 770 q 587 551 587 652 l 587 -253 l 530 -253 m 330 884 l 409 1136 l 497 1136 l 378 884 l 330 884 z "},"θ":{"ha":739,"x_min":152,"x_max":587,"o":"m 370 -13 q 209 62 266 -13 q 152 274 152 138 l 152 731 q 209 946 152 870 q 370 1023 266 1023 q 530 946 472 1023 q 587 731 587 870 l 587 274 q 530 62 587 138 q 370 -13 472 -13 m 208 731 l 208 540 l 530 540 l 530 731 q 490 912 530 852 q 370 971 449 971 q 249 912 289 971 q 208 731 208 852 m 370 39 q 490 98 449 39 q 530 274 530 157 l 530 489 l 208 489 l 208 274 q 249 98 208 157 q 370 39 289 39 z "},"ι":{"ha":739,"x_min":131,"x_max":604,"o":"m 131 0 m 491 -6 q 379 51 419 -6 q 340 213 340 107 l 340 706 l 131 706 l 131 758 l 398 758 l 398 218 q 422 90 398 133 q 494 47 446 47 q 543 55 516 47 q 590 76 569 63 l 604 25 q 553 3 582 13 q 491 -6 524 -6 z "},"ΐ":{"ha":739,"x_min":131,"x_max":604,"o":"m 131 0 m 491 -6 q 379 51 419 -6 q 340 213 340 107 l 340 706 l 131 706 l 131 758 l 398 758 l 398 218 q 422 90 398 133 q 494 47 446 47 q 543 55 516 47 q 590 76 569 63 l 604 25 q 553 3 582 13 q 491 -6 524 -6 m 307 884 l 365 1136 l 434 1136 l 350 884 l 307 884 m 194 912 q 167 921 178 912 q 157 956 157 931 l 157 965 q 167 1001 157 991 q 194 1011 178 1011 q 221 1001 211 1011 q 231 965 231 991 l 231 956 q 221 921 231 931 q 194 912 211 912 m 525 912 q 499 921 509 912 q 489 956 489 931 l 489 965 q 499 1001 489 991 q 525 1011 509 1011 q 552 1001 542 1011 q 563 965 563 991 l 563 956 q 552 921 563 931 q 525 912 542 912 z "},"ί":{"ha":739,"x_min":131,"x_max":604,"o":"m 131 0 m 491 -6 q 379 51 419 -6 q 340 213 340 107 l 340 706 l 131 706 l 131 758 l 398 758 l 398 218 q 422 90 398 133 q 494 47 446 47 q 543 55 516 47 q 590 76 569 63 l 604 25 q 553 3 582 13 q 491 -6 524 -6 m 311 884 l 390 1136 l 479 1136 l 359 884 l 311 884 z "},"ϊ":{"ha":739,"x_min":131,"x_max":604,"o":"m 131 0 m 491 -6 q 379 51 419 -6 q 340 213 340 107 l 340 706 l 131 706 l 131 758 l 398 758 l 398 218 q 422 90 398 133 q 494 47 446 47 q 543 55 516 47 q 590 76 569 63 l 604 25 q 553 3 582 13 q 491 -6 524 -6 m 264 924 q 229 933 242 924 q 216 968 216 942 l 216 977 q 229 1015 216 1005 q 264 1024 242 1024 q 297 1015 284 1024 q 311 977 311 1005 l 311 968 q 297 933 311 942 q 264 924 284 924 m 466 924 q 432 933 446 924 q 419 968 419 942 l 419 977 q 432 1015 419 1005 q 466 1024 446 1024 q 501 1015 487 1024 q 514 977 514 1005 l 514 968 q 500 933 514 942 q 466 924 486 924 z "},"κ":{"ha":739,"x_min":199,"x_max":601,"o":"m 256 371 l 256 0 l 199 0 l 199 758 l 256 758 l 256 423 l 341 423 l 538 758 l 601 758 l 386 403 l 598 0 l 535 0 l 343 371 l 256 371 z "},"λ":{"ha":739,"x_min":126,"x_max":611,"o":"m 552 0 l 372 693 l 187 0 l 126 0 l 337 758 l 354 758 l 336 827 q 287 938 316 909 q 212 967 259 967 q 174 965 191 967 q 138 957 158 962 l 130 1008 q 169 1015 152 1013 q 202 1018 186 1018 q 312 977 268 1018 q 383 840 356 937 l 611 0 l 552 0 z "},"μ":{"ha":739,"x_min":145,"x_max":644,"o":"m 208 25 l 215 -253 l 145 -253 l 152 25 l 152 758 l 208 758 l 208 241 q 243 93 208 145 q 340 40 278 40 q 426 64 389 40 q 492 134 462 87 l 492 758 l 549 758 l 549 196 q 569 68 549 97 q 644 51 590 38 l 644 -4 q 554 13 587 -14 q 515 106 520 39 l 509 106 q 437 20 481 52 q 337 -13 393 -13 q 262 14 294 -13 q 208 87 230 40 l 208 25 z "},"ν":{"ha":739,"x_min":126,"x_max":611,"o":"m 393 0 l 345 0 l 126 758 l 187 758 l 376 56 q 499 413 452 236 q 556 758 545 590 l 611 758 q 541 395 595 577 q 393 0 487 212 z "},"ξ":{"ha":739,"x_min":93,"x_max":606,"o":"m 606 -81 q 568 -209 606 -165 q 457 -253 529 -253 l 341 -253 l 341 -201 l 460 -201 q 530 -172 508 -201 q 553 -81 553 -144 q 530 9 553 -19 q 460 37 508 37 l 360 37 q 208 98 265 37 q 152 261 152 159 l 152 295 q 196 446 152 386 q 318 514 241 506 l 318 518 q 238 561 268 518 q 208 676 208 605 q 235 783 208 734 q 309 859 263 833 l 309 864 q 167 903 225 860 q 93 1020 110 946 l 145 1033 q 225 924 160 955 q 381 918 290 893 l 580 1020 l 605 956 l 399 874 l 332 827 q 282 768 299 807 q 265 678 265 730 q 290 576 265 612 q 359 540 316 540 l 521 540 l 521 489 l 361 489 q 247 444 287 489 q 208 314 208 399 l 208 280 q 247 138 208 187 q 360 88 285 88 l 458 88 q 568 45 530 88 q 606 -81 606 3 z "},"ο":{"ha":739,"x_min":152,"x_max":587,"o":"m 152 0 m 370 -13 q 208 56 265 -13 q 152 249 152 124 l 152 504 q 209 701 152 631 q 370 770 266 770 q 530 701 473 770 q 587 504 587 631 l 587 249 q 530 56 587 124 q 370 -13 473 -13 m 370 39 q 491 91 451 39 q 530 249 530 143 l 530 504 q 491 666 530 614 q 370 718 451 718 q 248 666 288 718 q 208 504 208 614 l 208 249 q 248 91 208 143 q 370 39 288 39 z "},"ό":{"ha":739,"x_min":152,"x_max":587,"o":"m 152 0 m 370 -13 q 208 56 265 -13 q 152 249 152 124 l 152 504 q 209 701 152 631 q 370 770 266 770 q 530 701 473 770 q 587 504 587 631 l 587 249 q 530 56 587 124 q 370 -13 473 -13 m 370 39 q 491 91 451 39 q 530 249 530 143 l 530 504 q 491 666 530 614 q 370 718 451 718 q 248 666 288 718 q 208 504 208 614 l 208 249 q 248 91 208 143 q 370 39 288 39 m 314 884 l 394 1136 l 482 1136 l 362 884 l 314 884 z "},"π":{"ha":739,"x_min":93,"x_max":615,"o":"m 615 758 l 615 706 l 501 706 l 501 153 q 526 60 501 81 q 615 51 551 39 l 615 -4 q 484 21 524 -18 q 444 163 444 59 l 444 706 l 246 706 l 246 0 l 188 0 l 188 706 l 93 706 l 93 758 l 615 758 z "},"ρ":{"ha":739,"x_min":152,"x_max":587,"o":"m 385 45 q 494 99 458 45 q 530 263 530 153 l 530 504 q 491 666 530 614 q 370 718 451 718 q 248 666 288 718 q 208 504 208 614 l 208 153 q 289 70 244 95 q 385 45 333 45 m 152 -253 l 152 504 q 210 701 152 631 q 370 770 268 770 q 530 701 472 770 q 587 504 587 631 l 587 250 q 535 56 587 125 q 390 -13 484 -13 q 292 16 337 -13 q 222 101 247 45 l 208 101 l 208 -253 l 152 -253 z "},"ς":{"ha":739,"x_min":152,"x_max":591,"o":"m 326 -253 l 326 -201 l 444 -201 q 516 -174 495 -201 q 538 -85 538 -148 q 516 0 538 -25 q 444 25 495 25 l 364 25 q 203 93 254 25 q 152 299 152 160 l 152 489 q 205 701 152 633 q 372 770 259 770 q 523 718 475 770 q 581 542 572 665 l 527 538 q 486 679 520 640 q 371 718 452 718 q 246 668 284 718 q 208 496 208 617 l 208 287 q 244 126 208 173 q 364 78 280 78 l 444 78 q 554 38 516 78 q 591 -85 591 -3 q 554 -211 591 -170 q 444 -253 516 -253 l 326 -253 z "},"σ":{"ha":739,"x_min":150,"x_max":682,"o":"m 350 39 q 456 92 420 39 q 491 249 491 144 l 491 466 q 456 646 491 586 q 350 706 420 706 q 244 652 279 706 q 208 491 208 598 l 208 249 q 244 92 208 144 q 350 39 279 39 m 350 -13 q 204 57 258 -13 q 150 249 150 126 l 150 491 q 204 687 150 616 q 351 758 258 758 l 682 758 l 682 693 l 473 708 q 529 614 509 677 q 549 466 549 552 l 549 249 q 496 57 549 126 q 350 -13 442 -13 z "},"τ":{"ha":739,"x_min":150,"x_max":596,"o":"m 511 -4 q 380 21 420 -15 q 340 152 340 57 l 340 706 l 150 706 l 150 758 l 596 758 l 596 706 l 398 706 l 398 152 q 420 59 398 80 q 511 51 443 39 l 511 -4 z "},"υ":{"ha":739,"x_min":152,"x_max":587,"o":"m 370 -13 q 208 55 264 -13 q 152 249 152 122 l 152 758 l 208 758 l 208 249 q 249 88 208 136 q 370 39 290 39 q 490 88 449 39 q 530 249 530 136 l 530 758 l 587 758 l 587 249 q 532 55 587 122 q 370 -13 476 -13 z "},"ΰ":{"ha":739,"x_min":152,"x_max":587,"o":"m 152 0 m 370 -13 q 208 55 264 -13 q 152 249 152 122 l 152 758 l 208 758 l 208 249 q 249 88 208 136 q 370 39 290 39 q 490 88 449 39 q 530 249 530 136 l 530 758 l 587 758 l 587 249 q 532 55 587 122 q 370 -13 476 -13 m 317 884 l 375 1136 l 444 1136 l 360 884 l 317 884 m 205 912 q 177 921 188 912 q 167 956 167 931 l 167 965 q 177 1001 167 991 q 205 1011 188 1011 q 231 1001 221 1011 q 241 965 241 991 l 241 956 q 231 921 241 931 q 205 912 221 912 m 535 912 q 509 921 519 912 q 499 956 499 931 l 499 965 q 509 1001 499 991 q 535 1011 519 1011 q 563 1001 552 1011 q 573 965 573 991 l 573 956 q 563 921 573 931 q 535 912 552 912 z "},"ϋ":{"ha":739,"x_min":152,"x_max":587,"o":"m 152 0 m 370 -13 q 208 55 264 -13 q 152 249 152 122 l 152 758 l 208 758 l 208 249 q 249 88 208 136 q 370 39 290 39 q 490 88 449 39 q 530 249 530 136 l 530 758 l 587 758 l 587 249 q 532 55 587 122 q 370 -13 476 -13 m 269 924 q 234 933 247 924 q 221 968 221 942 l 221 977 q 234 1015 221 1005 q 269 1024 247 1024 q 302 1015 289 1024 q 316 977 316 1005 l 316 968 q 302 933 316 942 q 269 924 289 924 m 471 924 q 437 933 451 924 q 424 968 424 942 l 424 977 q 437 1015 424 1005 q 471 1024 451 1024 q 506 1015 492 1024 q 519 977 519 1005 l 519 968 q 505 933 519 942 q 471 924 491 924 z "},"ύ":{"ha":739,"x_min":152,"x_max":587,"o":"m 152 0 m 370 -13 q 208 55 264 -13 q 152 249 152 122 l 152 758 l 208 758 l 208 249 q 249 88 208 136 q 370 39 290 39 q 490 88 449 39 q 530 249 530 136 l 530 758 l 587 758 l 587 249 q 532 55 587 122 q 370 -13 476 -13 m 312 884 l 391 1136 l 480 1136 l 360 884 l 312 884 z "},"φ":{"ha":739,"x_min":106,"x_max":633,"o":"m 398 -253 l 341 -253 l 341 -10 q 170 87 235 1 q 106 327 106 173 l 106 466 q 124 631 106 559 q 182 769 143 703 l 235 750 q 182 622 203 691 q 162 466 162 553 l 162 327 q 206 126 162 199 q 341 43 251 53 l 341 758 l 398 758 q 571 671 509 758 q 633 428 633 585 l 633 327 q 568 87 633 173 q 398 -10 504 1 l 398 -253 m 398 705 l 398 43 q 532 127 487 54 q 577 327 577 199 l 577 428 q 532 638 577 571 q 398 705 486 705 z "},"χ":{"ha":739,"x_min":146,"x_max":593,"o":"m 527 -253 l 366 207 l 213 -253 l 146 -253 l 336 260 l 154 758 l 217 758 l 372 313 l 527 758 l 593 758 l 403 258 l 590 -253 l 527 -253 z "},"ψ":{"ha":739,"x_min":106,"x_max":633,"o":"m 398 -253 l 341 -253 l 341 -10 q 165 79 223 -1 q 106 302 106 159 l 106 758 l 162 758 l 162 302 q 204 112 162 174 q 341 42 246 51 l 341 758 l 398 758 l 398 42 q 535 112 492 51 q 577 302 577 174 l 577 758 l 633 758 l 633 302 q 574 79 633 159 q 398 -10 515 -1 l 398 -253 z "},"ω":{"ha":739,"x_min":106,"x_max":633,"o":"m 246 -13 q 144 67 182 -13 q 106 289 106 146 l 106 427 q 125 625 106 530 q 165 765 144 720 l 216 745 q 181 615 201 705 q 162 427 162 525 l 162 289 q 184 98 162 158 q 253 39 206 39 q 319 96 298 39 q 341 277 341 153 l 341 581 l 398 581 l 398 277 q 419 96 398 153 q 486 39 441 39 q 555 98 533 39 q 577 289 577 158 l 577 427 q 557 615 577 525 q 523 745 538 705 l 573 765 q 614 625 595 720 q 633 427 633 530 l 633 289 q 595 67 633 146 q 492 -13 557 -13 q 413 24 446 -13 q 371 124 380 61 l 366 124 q 325 24 357 61 q 246 -13 293 -13 z "},"ώ":{"ha":739,"x_min":106,"x_max":633,"o":"m 106 0 m 246 -13 q 144 67 182 -13 q 106 289 106 146 l 106 427 q 125 625 106 530 q 165 765 144 720 l 216 745 q 181 615 201 705 q 162 427 162 525 l 162 289 q 184 98 162 158 q 253 39 206 39 q 319 96 298 39 q 341 277 341 153 l 341 581 l 398 581 l 398 277 q 419 96 398 153 q 486 39 441 39 q 555 98 533 39 q 577 289 577 158 l 577 427 q 557 615 577 525 q 523 745 538 705 l 573 765 q 614 625 595 720 q 633 427 633 530 l 633 289 q 595 67 633 146 q 492 -13 557 -13 q 413 24 446 -13 q 371 124 380 61 l 366 124 q 325 24 357 61 q 246 -13 293 -13 m 322 884 l 402 1136 l 490 1136 l 370 884 l 322 884 z "},"а":{"ha":739,"x_min":111,"x_max":660,"o":"m 111 0 m 312 38 q 410 68 366 38 q 490 153 453 97 l 490 350 l 298 350 q 200 319 236 350 q 164 211 164 289 q 200 83 164 128 q 312 38 236 38 m 306 -13 q 164 45 216 -13 q 111 203 111 104 q 159 347 111 294 q 294 399 207 399 l 490 399 l 490 566 q 449 678 490 638 q 340 718 409 718 q 233 687 268 718 q 179 572 198 655 l 129 587 q 199 728 150 686 q 338 770 247 770 q 490 715 433 770 q 547 566 547 660 l 547 189 q 571 68 547 97 q 660 54 596 39 l 660 0 q 556 15 597 -13 q 510 111 515 42 l 501 111 q 422 21 476 56 q 306 -13 367 -13 z "},"б":{"ha":739,"x_min":152,"x_max":587,"o":"m 370 -13 q 209 52 266 -13 q 152 247 152 116 l 152 678 q 202 883 152 808 q 362 981 253 957 l 545 1023 l 556 972 l 378 934 q 239 850 279 914 q 199 655 199 785 l 199 574 l 205 574 q 272 654 225 626 q 383 682 319 682 q 533 620 479 682 q 587 444 587 558 l 587 240 q 530 50 587 112 q 370 -13 472 -13 m 369 39 q 490 90 452 39 q 528 250 528 140 l 528 431 q 490 581 528 534 q 369 629 452 629 q 246 581 284 629 q 208 431 208 534 l 208 250 q 246 90 208 140 q 369 39 284 39 z "},"в":{"ha":739,"x_min":152,"x_max":606,"o":"m 152 0 l 152 758 l 366 758 q 535 718 481 758 q 588 591 588 678 l 588 548 q 561 444 588 479 q 473 405 534 409 l 473 399 q 574 354 542 394 q 606 234 606 314 l 606 198 q 549 48 606 96 q 366 0 491 0 l 152 0 m 208 426 l 374 426 q 497 451 463 426 q 530 542 530 476 l 530 585 q 496 681 530 654 q 366 707 461 707 l 208 707 l 208 426 m 208 51 l 366 51 q 509 81 470 51 q 548 194 548 112 l 548 232 q 510 344 548 313 q 374 375 472 375 l 208 375 l 208 51 z "},"г":{"ha":739,"x_min":198,"x_max":597,"o":"m 198 0 l 198 758 l 597 758 l 597 706 l 256 706 l 256 0 l 198 0 z "},"ѓ":{"ha":739,"x_min":198,"x_max":597,"o":"m 198 0 m 198 0 l 198 758 l 597 758 l 597 706 l 256 706 l 256 0 l 198 0 m 354 884 l 490 1136 l 580 1136 l 403 884 l 354 884 z "},"д":{"ha":739,"x_min":93,"x_max":644,"o":"m 216 62 l 216 52 l 499 52 l 499 706 l 274 706 l 270 333 q 258 160 270 218 q 216 62 246 102 m 152 0 l 152 -189 l 93 -189 l 93 52 l 149 52 q 200 155 184 91 q 217 341 216 220 l 220 758 l 557 758 l 557 52 l 644 52 l 644 -189 l 586 -189 l 586 0 l 152 0 z "},"е":{"ha":739,"x_min":152,"x_max":587,"o":"m 152 0 m 583 149 q 513 27 562 67 q 376 -13 465 -13 q 211 54 270 -13 q 152 250 152 121 l 152 504 q 211 703 152 636 q 370 770 271 770 q 528 702 468 770 q 587 495 587 634 l 587 372 l 208 372 l 208 249 q 251 89 208 139 q 376 39 293 39 q 477 66 444 39 q 529 165 509 93 l 583 149 m 208 504 l 208 424 l 530 424 l 530 492 q 490 664 530 610 q 370 718 449 718 q 249 666 290 718 q 208 504 208 614 z "},"ѐ":{"ha":739,"x_min":152,"x_max":587,"o":"m 152 0 m 583 149 q 513 27 562 67 q 376 -13 465 -13 q 211 54 270 -13 q 152 250 152 121 l 152 504 q 211 703 152 636 q 370 770 271 770 q 528 702 468 770 q 587 495 587 634 l 587 372 l 208 372 l 208 249 q 251 89 208 139 q 376 39 293 39 q 477 66 444 39 q 529 165 509 93 l 583 149 m 208 504 l 208 424 l 530 424 l 530 492 q 490 664 530 610 q 370 718 449 718 q 249 666 290 718 q 208 504 208 614 m 390 884 l 213 1136 l 304 1136 l 439 884 l 390 884 z "},"ё":{"ha":739,"x_min":152,"x_max":587,"o":"m 152 0 m 583 149 q 513 27 562 67 q 376 -13 465 -13 q 211 54 270 -13 q 152 250 152 121 l 152 504 q 211 703 152 636 q 370 770 271 770 q 528 702 468 770 q 587 495 587 634 l 587 372 l 208 372 l 208 249 q 251 89 208 139 q 376 39 293 39 q 477 66 444 39 q 529 165 509 93 l 583 149 m 208 504 l 208 424 l 530 424 l 530 492 q 490 664 530 610 q 370 718 449 718 q 249 666 290 718 q 208 504 208 614 m 269 924 q 234 933 247 924 q 221 968 221 942 l 221 977 q 234 1015 221 1005 q 269 1024 247 1024 q 302 1015 289 1024 q 316 977 316 1005 l 316 968 q 302 933 316 942 q 269 924 289 924 m 471 924 q 437 933 451 924 q 424 968 424 942 l 424 977 q 437 1015 424 1005 q 471 1024 451 1024 q 506 1015 492 1024 q 519 977 519 1005 l 519 968 q 505 933 519 942 q 471 924 491 924 z "},"ж":{"ha":739,"x_min":74,"x_max":663,"o":"m 295 376 l 140 0 l 80 0 l 253 402 l 74 758 l 135 758 l 293 426 l 342 426 l 342 758 l 396 758 l 396 426 l 443 426 l 602 758 l 663 758 l 485 407 l 658 0 l 597 0 l 443 376 l 396 376 l 396 0 l 342 0 l 342 376 l 295 376 z "},"з":{"ha":739,"x_min":133,"x_max":606,"o":"m 375 -13 q 198 44 254 -13 q 133 230 141 101 l 189 239 q 238 83 199 126 q 366 40 277 40 q 507 78 466 40 q 548 207 548 116 l 548 220 q 511 337 548 303 q 383 371 473 371 l 340 371 l 340 422 l 383 422 q 497 453 465 422 q 530 561 530 485 l 530 578 q 494 686 530 654 q 366 717 457 717 q 251 677 285 717 q 207 533 216 638 l 150 543 q 209 717 157 664 q 375 770 261 770 q 534 721 480 770 q 588 576 588 672 l 588 558 q 560 443 588 482 q 476 400 532 404 l 476 395 q 573 345 540 390 q 606 217 606 301 l 606 205 q 550 41 606 95 q 375 -13 494 -13 z "},"и":{"ha":739,"x_min":152,"x_max":587,"o":"m 530 0 l 530 641 l 215 0 l 152 0 l 152 758 l 208 758 l 208 111 l 527 758 l 587 758 l 587 0 l 530 0 z "},"й":{"ha":739,"x_min":152,"x_max":587,"o":"m 152 0 m 530 0 l 530 641 l 215 0 l 152 0 l 152 758 l 208 758 l 208 111 l 527 758 l 587 758 l 587 0 l 530 0 m 370 875 q 234 930 290 875 q 177 1121 178 985 l 235 1128 q 268 973 236 1019 q 370 927 299 927 q 472 973 441 927 q 505 1128 504 1019 l 563 1121 q 506 930 562 985 q 370 875 449 875 z "},"ѝ":{"ha":739,"x_min":152,"x_max":587,"o":"m 152 0 m 530 0 l 530 641 l 215 0 l 152 0 l 152 758 l 208 758 l 208 111 l 527 758 l 587 758 l 587 0 l 530 0 m 393 884 l 216 1136 l 307 1136 l 442 884 l 393 884 z "},"к":{"ha":739,"x_min":198,"x_max":601,"o":"m 255 372 l 255 0 l 198 0 l 198 758 l 255 758 l 255 424 l 341 424 l 538 758 l 601 758 l 388 403 l 598 0 l 535 0 l 342 372 l 255 372 z "},"ќ":{"ha":739,"x_min":198,"x_max":601,"o":"m 198 0 m 255 372 l 255 0 l 198 0 l 198 758 l 255 758 l 255 424 l 341 424 l 538 758 l 601 758 l 388 403 l 598 0 l 535 0 l 342 372 l 255 372 m 356 884 l 492 1136 l 582 1136 l 405 884 l 356 884 z "},"л":{"ha":739,"x_min":67,"x_max":587,"o":"m 530 0 l 530 706 l 284 706 l 280 271 q 241 60 279 133 q 131 -13 203 -13 q 97 -9 114 -13 q 67 0 81 -6 l 78 49 q 104 42 91 44 q 129 39 116 39 q 204 97 182 39 q 227 288 226 154 l 230 758 l 587 758 l 587 0 l 530 0 z "},"м":{"ha":739,"x_min":134,"x_max":604,"o":"m 338 189 l 189 652 l 189 0 l 134 0 l 134 758 l 215 758 l 370 263 l 525 758 l 604 758 l 604 0 l 548 0 l 548 659 l 399 189 l 338 189 z "},"н":{"ha":739,"x_min":152,"x_max":587,"o":"m 152 0 l 152 758 l 208 758 l 208 465 l 530 465 l 530 758 l 587 758 l 587 0 l 530 0 l 530 413 l 208 413 l 208 0 l 152 0 z "},"о":{"ha":739,"x_min":152,"x_max":587,"o":"m 152 0 m 370 -13 q 208 56 265 -13 q 152 249 152 124 l 152 504 q 209 701 152 631 q 370 770 266 770 q 530 701 473 770 q 587 504 587 631 l 587 249 q 530 56 587 124 q 370 -13 473 -13 m 370 39 q 491 91 451 39 q 530 249 530 143 l 530 504 q 491 666 530 614 q 370 718 451 718 q 248 666 288 718 q 208 504 208 614 l 208 249 q 248 91 208 143 q 370 39 288 39 z "},"п":{"ha":739,"x_min":152,"x_max":587,"o":"m 152 0 l 152 758 l 587 758 l 587 0 l 530 0 l 530 706 l 208 706 l 208 0 l 152 0 z "},"р":{"ha":739,"x_min":152,"x_max":587,"o":"m 152 0 m 361 37 q 489 90 447 37 q 530 254 530 143 l 530 509 q 494 667 530 615 q 385 718 457 718 q 295 693 335 718 q 208 605 255 667 l 208 85 q 281 47 241 57 q 361 37 321 37 m 362 -13 q 287 -5 330 -13 q 208 24 245 3 l 208 -253 l 152 -253 l 152 758 l 208 758 l 208 657 l 218 657 q 294 742 250 715 q 394 770 337 770 q 536 701 485 770 q 587 508 587 631 l 587 251 q 528 57 587 128 q 362 -13 468 -13 z "},"с":{"ha":739,"x_min":152,"x_max":598,"o":"m 152 0 m 383 -13 q 210 54 269 -13 q 152 249 152 121 l 152 504 q 211 701 152 633 q 381 770 271 770 q 539 715 487 770 q 598 544 591 660 l 542 539 q 499 679 535 639 q 381 718 463 718 q 251 666 294 718 q 208 504 208 614 l 208 249 q 251 91 208 143 q 383 39 294 39 q 501 73 466 39 q 542 193 537 107 l 598 188 q 540 36 593 85 q 383 -13 487 -13 z "},"т":{"ha":739,"x_min":122,"x_max":615,"o":"m 340 0 l 340 706 l 122 706 l 122 758 l 615 758 l 615 706 l 398 706 l 398 0 l 340 0 z "},"у":{"ha":739,"x_min":128,"x_max":612,"o":"m 128 0 m 203 -260 q 170 -258 187 -260 q 131 -250 153 -255 l 139 -199 q 176 -207 159 -205 q 213 -210 192 -210 q 288 -181 260 -210 q 336 -69 316 -152 l 354 0 l 338 0 l 128 758 l 188 758 l 374 69 l 556 758 l 612 758 l 384 -82 q 313 -220 357 -179 q 203 -260 269 -260 z "},"ў":{"ha":739,"x_min":128,"x_max":612,"o":"m 128 0 m 203 -260 q 170 -258 187 -260 q 131 -250 153 -255 l 139 -199 q 176 -207 159 -205 q 213 -210 192 -210 q 288 -181 260 -210 q 336 -69 316 -152 l 354 0 l 338 0 l 128 758 l 188 758 l 374 69 l 556 758 l 612 758 l 384 -82 q 313 -220 357 -179 q 203 -260 269 -260 m 370 875 q 234 930 290 875 q 177 1121 178 985 l 235 1128 q 268 973 236 1019 q 370 927 299 927 q 472 973 441 927 q 505 1128 504 1019 l 563 1121 q 506 930 562 985 q 370 875 449 875 z "},"ф":{"ha":739,"x_min":106,"x_max":633,"o":"m 461 0 l 398 0 l 398 -253 l 341 -253 l 341 0 l 278 0 q 152 66 197 0 q 106 249 106 131 l 106 509 q 152 692 106 626 q 278 758 197 758 l 341 758 l 341 1010 l 398 1010 l 398 758 l 461 758 q 587 692 542 758 q 633 509 633 626 l 633 249 q 587 66 633 131 q 461 0 542 0 m 288 52 l 342 52 l 342 706 l 288 706 q 193 656 225 706 q 162 504 162 606 l 162 251 q 193 101 162 150 q 288 52 225 52 m 451 706 l 396 706 l 396 52 l 451 52 q 545 101 514 52 q 577 251 577 150 l 577 504 q 545 656 577 606 q 451 706 514 706 z "},"х":{"ha":739,"x_min":143,"x_max":596,"o":"m 143 0 m 535 0 l 371 336 l 201 0 l 143 0 l 345 394 l 167 758 l 225 758 l 379 443 l 538 758 l 596 758 l 404 388 l 593 0 l 535 0 z "},"ц":{"ha":739,"x_min":152,"x_max":635,"o":"m 582 -189 l 582 0 l 152 0 l 152 758 l 208 758 l 208 52 l 482 52 l 482 758 l 540 758 l 540 52 l 635 52 l 635 -189 l 582 -189 z "},"ч":{"ha":739,"x_min":133,"x_max":540,"o":"m 540 758 l 540 0 l 484 0 l 484 285 q 414 258 452 269 q 332 247 375 247 q 181 308 230 247 q 133 494 133 369 l 133 758 l 189 758 l 189 496 q 223 347 189 393 q 332 299 256 301 q 415 311 376 298 q 484 343 455 323 l 484 758 l 540 758 z "},"ш":{"ha":739,"x_min":105,"x_max":633,"o":"m 105 0 l 105 758 l 162 758 l 162 53 l 341 53 l 341 758 l 396 758 l 396 53 l 576 53 l 576 758 l 633 758 l 633 0 l 105 0 z "},"щ":{"ha":739,"x_min":106,"x_max":682,"o":"m 682 -189 l 631 -189 l 631 0 l 106 0 l 106 758 l 162 758 l 162 53 l 341 53 l 341 758 l 398 758 l 398 53 l 577 53 l 577 758 l 633 758 l 633 52 l 682 52 l 682 -189 z "},"ъ":{"ha":739,"x_min":56,"x_max":615,"o":"m 436 0 l 198 0 l 198 706 l 56 706 l 56 758 l 255 758 l 255 452 l 436 452 q 567 405 519 452 q 615 269 615 359 l 615 188 q 567 49 615 97 q 436 0 519 0 m 255 52 l 417 52 q 525 84 491 52 q 558 188 558 116 l 558 269 q 525 370 558 340 q 417 400 491 400 l 255 400 l 255 52 z "},"ы":{"ha":739,"x_min":129,"x_max":610,"o":"m 129 0 l 129 758 l 184 758 l 184 477 l 288 477 q 399 427 359 477 q 439 282 439 376 l 439 201 q 399 52 439 105 q 289 0 359 0 l 129 0 m 554 0 l 554 758 l 610 758 l 610 0 l 554 0 m 184 52 l 269 52 q 357 86 331 52 q 384 201 384 121 l 384 282 q 357 393 384 360 q 269 426 331 426 l 184 426 l 184 52 z "},"ь":{"ha":739,"x_min":152,"x_max":616,"o":"m 152 0 l 152 758 l 208 758 l 208 475 l 428 475 q 564 425 511 475 q 616 279 616 375 l 616 201 q 564 52 616 104 q 429 0 513 0 l 152 0 m 208 52 l 417 52 q 525 86 492 52 q 558 201 558 121 l 558 279 q 525 391 558 359 q 417 423 492 423 l 208 423 l 208 52 z "},"э":{"ha":739,"x_min":140,"x_max":587,"o":"m 356 -13 q 198 35 250 -13 q 140 187 146 82 l 196 191 q 238 71 203 102 q 356 39 273 39 q 488 88 446 39 q 530 249 530 136 l 530 369 l 297 369 l 297 422 l 530 422 l 530 509 q 488 670 530 622 q 359 718 446 718 q 238 681 273 718 q 196 539 203 643 l 140 544 q 198 717 146 663 q 357 770 250 770 q 533 701 480 770 q 587 501 587 633 l 587 261 q 533 57 587 128 q 356 -13 480 -13 z "},"ю":{"ha":739,"x_min":114,"x_max":625,"o":"m 456 -13 q 329 56 372 -13 q 285 251 285 124 l 285 386 l 170 386 l 170 0 l 114 0 l 114 758 l 170 758 l 170 438 l 285 438 l 285 503 q 329 702 285 634 q 457 770 372 770 q 583 701 540 770 q 625 501 625 633 l 625 251 q 582 56 625 124 q 456 -13 539 -13 m 456 39 q 544 88 518 39 q 569 251 569 138 l 569 501 q 544 668 569 617 q 456 718 518 718 q 367 668 394 718 q 341 501 341 617 l 341 251 q 367 88 341 138 q 456 39 394 39 z "},"я":{"ha":739,"x_min":143,"x_max":587,"o":"m 322 340 l 530 340 l 530 706 l 322 706 q 235 670 261 706 q 208 554 208 635 l 208 501 q 235 377 208 414 q 322 340 261 340 m 530 290 l 393 290 l 211 0 l 143 0 l 322 290 q 194 343 237 289 q 152 496 152 396 l 152 549 q 194 706 152 655 q 321 758 237 758 l 587 758 l 587 0 l 530 0 l 530 290 z "},"ђ":{"ha":739,"x_min":57,"x_max":587,"o":"m 422 -263 q 371 -256 398 -263 q 319 -237 345 -250 l 332 -187 q 374 -205 352 -199 q 419 -210 396 -210 q 502 -164 473 -210 q 530 -23 530 -117 l 530 473 q 493 607 530 558 q 388 655 456 655 q 294 625 341 655 q 208 535 246 595 l 208 0 l 152 0 l 152 822 l 57 822 l 57 875 l 152 875 l 152 1010 l 208 1010 l 208 875 l 398 875 l 398 822 l 208 822 l 208 593 l 222 593 q 299 677 249 646 q 400 707 348 707 q 537 646 486 707 q 587 486 587 585 l 587 -33 q 543 -201 587 -140 q 422 -263 499 -263 z "},"є":{"ha":739,"x_min":152,"x_max":598,"o":"m 597 187 q 539 36 592 85 q 381 -13 486 -13 q 208 54 264 -13 q 152 261 152 121 l 152 489 q 208 702 152 634 q 381 770 264 770 q 539 715 486 770 q 598 544 592 660 l 542 539 q 499 680 534 641 q 380 718 463 718 q 249 666 290 718 q 208 496 208 614 l 208 422 l 442 422 l 442 369 l 208 369 l 208 261 q 249 92 208 144 q 381 39 290 39 q 497 72 462 39 q 542 191 533 105 l 597 187 z "},"ѕ":{"ha":739,"x_min":131,"x_max":591,"o":"m 131 0 m 365 -13 q 247 7 311 -13 q 131 68 184 27 l 160 115 q 263 58 207 77 q 365 39 318 39 q 487 80 441 39 q 534 192 534 121 q 499 290 534 256 q 360 354 463 323 q 201 433 251 385 q 152 561 152 481 q 210 713 152 655 q 359 770 268 770 q 470 751 415 770 q 566 699 524 732 l 538 654 q 455 700 503 682 q 359 718 408 718 q 249 679 290 718 q 208 567 208 639 q 244 469 208 501 q 381 407 279 437 q 541 325 491 375 q 591 197 591 275 q 527 45 591 104 q 365 -13 463 -13 z "},"і":{"ha":739,"x_min":152,"x_max":587,"o":"m 152 0 m 152 0 l 152 52 l 341 52 l 341 706 l 152 706 l 152 758 l 398 758 l 398 52 l 587 52 l 587 0 l 152 0 m 371 924 q 332 934 347 924 q 317 968 317 943 l 317 977 q 332 1014 317 1004 q 371 1024 347 1024 q 410 1014 395 1024 q 426 977 426 1004 l 426 968 q 410 934 426 943 q 371 924 395 924 z "},"ї":{"ha":739,"x_min":152,"x_max":587,"o":"m 152 0 m 152 0 l 152 52 l 341 52 l 341 706 l 152 706 l 152 758 l 398 758 l 398 52 l 587 52 l 587 0 l 152 0 m 269 924 q 234 933 247 924 q 221 968 221 942 l 221 977 q 234 1015 221 1005 q 269 1024 247 1024 q 302 1015 289 1024 q 316 977 316 1005 l 316 968 q 302 933 316 942 q 269 924 289 924 m 471 924 q 437 933 451 924 q 424 968 424 942 l 424 977 q 437 1015 424 1005 q 471 1024 451 1024 q 506 1015 492 1024 q 519 977 519 1005 l 519 968 q 505 933 519 942 q 471 924 491 924 z "},"ј":{"ha":739,"x_min":149,"x_max":513,"o":"m 149 0 m 287 -263 q 218 -254 253 -263 q 149 -231 183 -245 l 163 -178 q 225 -201 194 -192 q 284 -210 256 -210 q 398 -162 360 -210 q 436 -15 436 -114 l 436 706 l 170 706 l 170 758 l 492 758 l 492 -18 q 437 -198 492 -134 q 287 -263 381 -263 m 458 924 q 419 934 434 924 q 404 968 404 943 l 404 977 q 419 1014 404 1004 q 458 1024 434 1024 q 497 1014 482 1024 q 513 977 513 1004 l 513 968 q 497 934 513 943 q 458 924 482 924 z "},"љ":{"ha":739,"x_min":49,"x_max":631,"o":"m 218 706 l 213 184 q 181 37 212 81 q 106 -8 149 -8 q 78 -4 92 -9 q 49 5 64 0 l 63 64 q 81 57 72 61 q 100 54 91 54 q 140 80 122 53 q 158 193 157 107 l 164 758 l 407 758 l 407 480 l 472 480 q 590 432 549 480 q 631 290 631 385 l 631 191 q 590 48 631 96 q 473 0 549 0 l 351 0 l 351 706 l 218 706 m 407 52 l 468 52 q 546 83 518 52 q 574 194 574 114 l 574 288 q 546 398 574 369 q 468 427 518 427 l 407 427 l 407 52 z "},"њ":{"ha":739,"x_min":110,"x_max":629,"o":"m 398 52 l 466 52 q 544 81 515 52 q 572 188 572 111 l 572 280 q 544 390 572 360 q 466 420 515 420 l 398 420 l 398 52 m 167 408 l 167 0 l 110 0 l 110 758 l 167 758 l 167 460 l 341 460 l 341 758 l 398 758 l 398 472 l 471 472 q 588 426 548 472 q 629 284 629 379 l 629 183 q 589 46 629 92 q 471 0 549 0 l 341 0 l 341 408 l 167 408 z "},"ћ":{"ha":739,"x_min":57,"x_max":587,"o":"m 57 0 m 208 542 l 208 0 l 152 0 l 152 822 l 57 822 l 57 875 l 152 875 l 152 1010 l 208 1010 l 208 875 l 398 875 l 398 822 l 208 822 l 208 593 l 218 593 q 295 677 245 648 q 403 707 345 707 q 537 648 486 707 q 587 486 587 588 l 587 0 l 530 0 l 530 473 q 494 608 530 562 q 394 654 458 654 q 298 629 341 654 q 208 542 255 605 z "},"џ":{"ha":739,"x_min":152,"x_max":587,"o":"m 341 -189 l 341 0 l 152 0 l 152 758 l 208 758 l 208 52 l 530 52 l 530 758 l 587 758 l 587 0 l 398 0 l 398 -189 l 341 -189 z "},"ґ":{"ha":739,"x_min":198,"x_max":597,"o":"m 198 0 l 198 758 l 544 758 l 544 913 l 597 913 l 597 706 l 256 706 l 256 0 l 198 0 z "},"ⁿ":{"ha":739,"x_min":196,"x_max":544,"o":"m 196 383 l 196 1013 l 245 1013 l 245 933 l 256 933 q 313 999 275 976 q 393 1023 351 1023 q 504 970 465 1023 q 544 833 544 917 l 544 383 l 495 383 l 495 826 q 467 939 495 900 q 386 979 439 979 q 310 958 347 979 q 245 894 273 938 l 245 383 l 196 383 z "},"̀":{"ha":0,"x_min":-158,"x_max":68,"o":"m 19 884 l -158 1136 l -67 1136 l 68 884 l 19 884 z "},"́":{"ha":0,"x_min":-73,"x_max":153,"o":"m -73 884 l 63 1136 l 153 1136 l -24 884 l -73 884 z "},"̂":{"ha":0,"x_min":-184,"x_max":183,"o":"m -160 914 l -184 943 l -20 1158 l 19 1158 l 183 943 l 160 914 l -1 1104 l -160 914 z "},"̃":{"ha":0,"x_min":-181,"x_max":181,"o":"m 81 896 q 27 921 49 896 q -20 1014 5 946 q -52 1085 -38 1067 q -82 1104 -66 1104 q -122 1059 -109 1104 q -134 923 -135 1015 l -134 909 l -181 909 l -181 928 q -155 1093 -181 1038 q -81 1149 -130 1149 q -27 1126 -48 1149 q 18 1039 -5 1104 q 53 962 39 982 q 82 942 67 942 q 121 986 107 942 q 134 1122 134 1030 l 134 1136 l 181 1136 l 181 1117 q 155 952 181 1008 q 81 896 130 896 z "},"̄":{"ha":0,"x_min":-170,"x_max":170,"o":"m -170 987 l -170 1039 l 170 1039 l 170 987 l -170 987 z "},"̆":{"ha":0,"x_min":-198,"x_max":198,"o":"m 0 875 q -145 942 -92 875 q -198 1134 -197 1009 l -140 1134 q -105 977 -139 1025 q 0 928 -72 928 q 105 977 72 928 q 140 1134 139 1025 l 198 1134 q 145 942 197 1009 q 0 875 92 875 z "},"̇":{"ha":0,"x_min":-54,"x_max":54,"o":"m 0 924 q -39 934 -24 924 q -54 968 -54 943 l -54 977 q -39 1014 -54 1004 q 0 1024 -24 1024 q 39 1014 24 1024 q 54 977 54 1004 l 54 968 q 39 934 54 943 q 0 924 24 924 z "},"̈":{"ha":0,"x_min":-149,"x_max":149,"o":"m -101 924 q -136 933 -122 924 q -149 968 -149 942 l -149 977 q -136 1015 -149 1005 q -101 1024 -122 1024 q -68 1015 -81 1024 q -54 977 -54 1005 l -54 968 q -68 933 -54 942 q -101 924 -81 924 m 101 924 q 68 933 81 924 q 54 968 54 942 l 54 977 q 68 1015 54 1005 q 101 1024 81 1024 q 136 1015 122 1024 q 149 977 149 1005 l 149 968 q 135 933 149 942 q 101 924 121 924 z "},"̊":{"ha":0,"x_min":-136,"x_max":136,"o":"m 0 865 q -100 908 -64 865 q -136 1035 -136 952 l -136 1101 q -100 1230 -136 1186 q 0 1275 -64 1275 q 100 1230 64 1275 q 136 1101 136 1186 l 136 1035 q 100 908 136 952 q 0 865 64 865 m 0 913 q 64 942 44 913 q 85 1035 85 971 l 85 1101 q 64 1197 85 1167 q 0 1227 44 1227 q -64 1197 -44 1227 q -85 1101 -85 1167 l -85 1035 q -64 942 -85 971 q 0 913 -44 913 z "},"̋":{"ha":0,"x_min":-116,"x_max":221,"o":"m 72 884 l 125 1136 l 221 1136 l 117 884 l 72 884 m -116 884 l -63 1136 l 33 1136 l -71 884 l -116 884 z "},"̌":{"ha":0,"x_min":-184,"x_max":183,"o":"m -19 889 l -184 1104 l -160 1133 l 0 943 l 160 1133 l 183 1104 l 20 889 l -19 889 z "},"̒":{"ha":0,"x_min":-90,"x_max":91,"o":"m -90 884 l 42 1136 l 91 1136 l 0 884 l -90 884 z "},"̦":{"ha":0,"x_min":-112,"x_max":69,"o":"m -112 -379 l -21 -126 l 69 -126 l -63 -379 l -112 -379 z "},"̧":{"ha":0,"x_min":-160,"x_max":101,"o":"m -29 0 l -16 25 q 69 -30 37 11 q 101 -129 101 -71 q 65 -234 101 -196 q -30 -273 29 -273 q -121 -241 -86 -273 q -160 -133 -155 -208 l -106 -128 q -86 -203 -102 -181 q -35 -225 -71 -225 q 26 -203 8 -225 q 44 -126 44 -181 q 27 -45 44 -74 q -29 0 10 -16 z "},"̨":{"ha":0,"x_min":-76,"x_max":133,"o":"m 52 -271 q -40 -234 -5 -271 q -76 -135 -76 -197 q -45 -34 -76 -81 q 37 42 -14 13 l 52 29 q -3 -38 14 -3 q -20 -120 -20 -73 q -1 -196 -20 -173 q 59 -220 18 -220 q 97 -217 78 -220 q 133 -210 115 -215 l 133 -261 q 92 -269 115 -266 q 52 -271 69 -271 z "},"¼":{"ha":739,"x_min":38,"x_max":701,"o":"m 225 518 l 225 564 l 354 564 l 354 931 l 346 931 q 299 850 335 880 q 218 818 264 819 l 212 867 q 300 906 256 870 q 355 1018 343 942 l 405 1018 l 405 564 l 523 564 l 523 518 l 225 518 m 38 347 l 38 410 l 338 402 l 338 357 l 38 347 m 701 347 l 413 357 l 413 402 l 701 410 l 701 347 m 485 -265 l 433 -265 l 433 -124 l 184 -124 l 184 -76 l 417 273 l 485 273 l 485 -76 l 573 -76 l 573 -124 l 485 -124 l 485 -265 m 241 -76 l 433 -76 l 433 215 l 241 -76 z "},"½":{"ha":739,"x_min":38,"x_max":701,"o":"m 225 518 l 225 564 l 354 564 l 354 931 l 346 931 q 299 850 335 880 q 218 818 264 819 l 212 867 q 300 906 256 870 q 355 1018 343 942 l 405 1018 l 405 564 l 523 564 l 523 518 l 225 518 m 38 347 l 38 410 l 338 402 l 338 357 l 38 347 m 701 347 l 413 357 l 413 402 l 701 410 l 701 347 m 542 -266 l 196 -266 l 196 -160 q 220 -68 196 -100 q 307 -19 245 -35 l 405 5 q 467 36 451 19 q 484 92 484 53 l 484 116 q 458 196 484 172 q 369 220 433 220 q 282 200 306 220 q 255 125 259 181 l 201 130 q 243 234 203 202 q 369 266 283 266 q 496 231 456 266 q 535 120 535 196 l 535 77 q 509 2 535 30 q 428 -43 484 -27 l 330 -68 q 266 -107 284 -81 q 249 -220 249 -133 l 542 -220 l 542 -266 z "},"¾":{"ha":739,"x_min":38,"x_max":701,"o":"m 367 509 q 233 540 273 509 q 189 635 193 572 l 242 640 q 270 575 247 593 q 367 557 292 557 q 462 580 434 557 q 490 658 490 604 l 490 678 q 463 741 490 722 q 369 760 436 760 l 314 760 l 314 807 l 369 807 q 453 821 428 807 q 479 864 479 835 l 479 889 q 451 956 479 936 q 364 976 424 976 q 282 960 308 976 q 255 905 256 944 l 201 910 q 244 997 205 971 q 364 1024 283 1024 q 489 993 447 1024 q 530 896 530 962 l 530 876 q 510 817 530 838 q 458 790 490 795 l 458 782 q 518 748 495 778 q 542 673 542 718 l 542 655 q 500 544 542 580 q 367 509 458 509 m 38 347 l 38 410 l 338 402 l 338 357 l 38 347 m 701 347 l 413 357 l 413 402 l 701 410 l 701 347 m 485 -265 l 433 -265 l 433 -124 l 184 -124 l 184 -76 l 417 273 l 485 273 l 485 -76 l 573 -76 l 573 -124 l 485 -124 l 485 -265 m 241 -76 l 433 -76 l 433 215 l 241 -76 z "},"⅛":{"ha":739,"x_min":38,"x_max":701,"o":"m 225 518 l 225 564 l 354 564 l 354 931 l 346 931 q 299 850 335 880 q 218 818 264 819 l 212 867 q 300 906 256 870 q 355 1018 343 942 l 405 1018 l 405 564 l 523 564 l 523 518 l 225 518 m 38 347 l 38 410 l 338 402 l 338 357 l 38 347 m 701 347 l 413 357 l 413 402 l 701 410 l 701 347 m 370 -273 q 234 -231 271 -273 q 197 -117 197 -189 l 197 -107 q 218 -26 197 -57 q 275 9 239 5 l 275 18 q 227 49 246 24 q 208 114 208 73 l 208 125 q 251 234 208 201 q 370 268 293 268 q 489 235 447 268 q 532 125 532 202 l 532 114 q 512 49 532 73 q 465 18 492 24 l 465 9 q 523 -27 503 5 q 544 -107 544 -59 l 544 -117 q 506 -232 544 -192 q 370 -273 468 -273 m 370 37 q 453 53 428 37 q 479 109 479 69 l 479 128 q 453 199 479 178 q 370 220 428 220 q 287 199 312 220 q 261 128 261 178 l 261 109 q 287 53 261 69 q 370 37 312 37 m 370 -225 q 464 -200 438 -225 q 490 -114 490 -176 l 490 -102 q 464 -32 490 -52 q 370 -11 438 -11 q 276 -32 302 -11 q 250 -102 250 -52 l 250 -114 q 276 -200 250 -176 q 370 -225 302 -225 z "},"⅜":{"ha":739,"x_min":38,"x_max":701,"o":"m 367 509 q 233 540 273 509 q 189 635 193 572 l 242 640 q 270 575 247 593 q 367 557 292 557 q 462 580 434 557 q 490 658 490 604 l 490 678 q 463 741 490 722 q 369 760 436 760 l 314 760 l 314 807 l 369 807 q 453 821 428 807 q 479 864 479 835 l 479 889 q 451 956 479 936 q 364 976 424 976 q 282 960 308 976 q 255 905 256 944 l 201 910 q 244 997 205 971 q 364 1024 283 1024 q 489 993 447 1024 q 530 896 530 962 l 530 876 q 510 817 530 838 q 458 790 490 795 l 458 782 q 518 748 495 778 q 542 673 542 718 l 542 655 q 500 544 542 580 q 367 509 458 509 m 38 347 l 38 410 l 338 402 l 338 357 l 38 347 m 701 347 l 413 357 l 413 402 l 701 410 l 701 347 m 370 -273 q 234 -231 271 -273 q 197 -117 197 -189 l 197 -107 q 218 -26 197 -57 q 275 9 239 5 l 275 18 q 227 49 246 24 q 208 114 208 73 l 208 125 q 251 234 208 201 q 370 268 293 268 q 489 235 447 268 q 532 125 532 202 l 532 114 q 512 49 532 73 q 465 18 492 24 l 465 9 q 523 -27 503 5 q 544 -107 544 -59 l 544 -117 q 506 -232 544 -192 q 370 -273 468 -273 m 370 37 q 453 53 428 37 q 479 109 479 69 l 479 128 q 453 199 479 178 q 370 220 428 220 q 287 199 312 220 q 261 128 261 178 l 261 109 q 287 53 261 69 q 370 37 312 37 m 370 -225 q 464 -200 438 -225 q 490 -114 490 -176 l 490 -102 q 464 -32 490 -52 q 370 -11 438 -11 q 276 -32 302 -11 q 250 -102 250 -52 l 250 -114 q 276 -200 250 -176 q 370 -225 302 -225 z "},"⅝":{"ha":739,"x_min":38,"x_max":701,"o":"m 369 509 q 234 540 274 509 q 191 650 193 572 l 242 658 q 273 576 247 597 q 369 556 299 556 q 463 578 436 556 q 490 655 490 601 l 490 687 q 463 756 490 735 q 372 777 437 777 l 207 777 l 207 1016 l 521 1016 l 521 970 l 260 970 l 260 824 l 378 824 q 500 791 457 824 q 543 692 543 758 l 543 652 q 498 544 543 580 q 369 509 453 509 m 38 347 l 38 410 l 338 402 l 338 357 l 38 347 m 701 347 l 413 357 l 413 402 l 701 410 l 701 347 m 370 -273 q 234 -231 271 -273 q 197 -117 197 -189 l 197 -107 q 218 -26 197 -57 q 275 9 239 5 l 275 18 q 227 49 246 24 q 208 114 208 73 l 208 125 q 251 234 208 201 q 370 268 293 268 q 489 235 447 268 q 532 125 532 202 l 532 114 q 512 49 532 73 q 465 18 492 24 l 465 9 q 523 -27 503 5 q 544 -107 544 -59 l 544 -117 q 506 -232 544 -192 q 370 -273 468 -273 m 370 37 q 453 53 428 37 q 479 109 479 69 l 479 128 q 453 199 479 178 q 370 220 428 220 q 287 199 312 220 q 261 128 261 178 l 261 109 q 287 53 261 69 q 370 37 312 37 m 370 -225 q 464 -200 438 -225 q 490 -114 490 -176 l 490 -102 q 464 -32 490 -52 q 370 -11 438 -11 q 276 -32 302 -11 q 250 -102 250 -52 l 250 -114 q 276 -200 250 -176 q 370 -225 302 -225 z "},"⅞":{"ha":739,"x_min":38,"x_max":701,"o":"m 317 518 q 345 651 330 592 q 381 761 361 710 q 428 862 402 812 q 489 972 455 913 l 196 972 l 196 1018 l 543 1018 l 543 972 q 433 742 476 842 q 372 518 390 643 l 317 518 m 38 347 l 38 410 l 338 402 l 338 357 l 38 347 m 701 347 l 413 357 l 413 402 l 701 410 l 701 347 m 370 -273 q 234 -231 271 -273 q 197 -117 197 -189 l 197 -107 q 218 -26 197 -57 q 275 9 239 5 l 275 18 q 227 49 246 24 q 208 114 208 73 l 208 125 q 251 234 208 201 q 370 268 293 268 q 489 235 447 268 q 532 125 532 202 l 532 114 q 512 49 532 73 q 465 18 492 24 l 465 9 q 523 -27 503 5 q 544 -107 544 -59 l 544 -117 q 506 -232 544 -192 q 370 -273 468 -273 m 370 37 q 453 53 428 37 q 479 109 479 69 l 479 128 q 453 199 479 178 q 370 220 428 220 q 287 199 312 220 q 261 128 261 178 l 261 109 q 287 53 261 69 q 370 37 312 37 m 370 -225 q 464 -200 438 -225 q 490 -114 490 -176 l 490 -102 q 464 -32 490 -52 q 370 -11 438 -11 q 276 -32 302 -11 q 250 -102 250 -52 l 250 -114 q 276 -200 250 -176 q 370 -225 302 -225 z "},"_":{"ha":739,"x_min":105,"x_max":635,"o":"m 105 -218 l 105 -160 l 635 -160 l 635 -218 l 105 -218 z "},"-":{"ha":739,"x_min":105,"x_max":635,"o":"m 105 413 l 105 471 l 635 471 l 635 413 l 105 413 z "},"­":{"ha":739,"x_min":105,"x_max":635,"o":"m 105 413 l 105 471 l 635 471 l 635 413 l 105 413 z "},"‐":{"ha":739,"x_min":105,"x_max":635,"o":"m 105 413 l 105 471 l 635 471 l 635 413 l 105 413 z "},"‑":{"ha":739,"x_min":105,"x_max":635,"o":"m 105 413 l 105 471 l 635 471 l 635 413 l 105 413 z "},"–":{"ha":739,"x_min":133,"x_max":606,"o":"m 133 413 l 133 471 l 606 471 l 606 413 l 133 413 z "},"—":{"ha":739,"x_min":38,"x_max":701,"o":"m 38 413 l 38 471 l 701 471 l 701 413 l 38 413 z "},"―":{"ha":739,"x_min":39,"x_max":702,"o":"m 39 413 l 39 471 l 702 471 l 702 413 l 39 413 z "},"(":{"ha":739,"x_min":246,"x_max":548,"o":"m 540 -265 q 326 -51 405 -222 q 246 379 246 121 q 326 808 246 636 q 540 1023 405 980 l 547 973 q 365 779 427 932 q 303 379 303 626 q 365 -21 303 131 q 548 -216 427 -173 l 540 -265 z "},")":{"ha":739,"x_min":191,"x_max":492,"o":"m 198 -265 l 191 -216 q 374 -21 312 -173 q 436 379 436 131 q 374 779 436 626 q 192 973 312 932 l 198 1023 q 413 808 333 980 q 492 379 492 636 q 413 -51 492 121 q 198 -265 333 -222 z "},"[":{"ha":739,"x_min":246,"x_max":540,"o":"m 246 -253 l 246 1010 l 540 1010 l 540 958 l 303 958 l 303 -199 l 540 -199 l 540 -253 l 246 -253 z "},"]":{"ha":739,"x_min":198,"x_max":492,"o":"m 198 -253 l 198 -199 l 436 -199 l 436 958 l 198 958 l 198 1010 l 492 1010 l 492 -253 l 198 -253 z "},"{":{"ha":739,"x_min":104,"x_max":540,"o":"m 540 -265 q 279 -217 360 -269 q 198 -56 198 -165 q 214 30 198 -9 q 265 125 230 69 q 307 194 293 168 q 322 244 322 220 q 275 338 322 311 q 104 370 227 366 l 104 418 q 273 448 225 422 q 322 533 322 473 q 307 585 322 561 q 265 645 293 609 q 214 730 230 693 q 198 816 198 768 q 281 976 198 926 q 540 1023 364 1027 l 540 971 q 321 939 386 975 q 256 816 256 903 q 270 751 256 780 q 318 679 284 721 q 366 608 352 638 q 379 543 379 578 q 337 438 379 472 q 216 400 295 404 l 216 394 q 337 344 295 385 q 379 236 379 303 q 365 168 379 201 q 314 88 351 135 q 270 13 283 45 q 256 -56 256 -19 q 321 -183 256 -146 q 540 -216 386 -220 l 540 -265 z "},"}":{"ha":739,"x_min":198,"x_max":635,"o":"m 540 -56 q 460 -217 540 -165 q 198 -265 379 -269 l 198 -216 q 417 -183 352 -220 q 482 -56 482 -146 q 469 13 482 -19 q 424 88 456 45 q 374 168 388 135 q 360 236 360 201 q 402 344 360 303 q 523 394 443 385 l 523 400 q 402 438 443 404 q 360 543 360 472 q 373 608 360 578 q 420 679 386 638 q 468 751 455 721 q 482 816 482 780 q 417 939 482 903 q 198 971 352 975 l 198 1023 q 458 976 375 1027 q 540 816 540 926 q 525 730 540 768 q 473 645 509 693 q 431 585 446 609 q 417 542 417 562 q 465 449 417 476 q 635 418 514 422 l 635 370 q 464 338 511 366 q 417 244 417 311 q 431 194 417 220 q 473 125 446 168 q 525 30 509 69 q 540 -56 540 -9 z "},"#":{"ha":739,"x_min":104,"x_max":635,"o":"m 446 338 l 458 678 l 293 678 l 280 338 l 446 338 m 433 0 l 443 287 l 278 287 l 268 0 l 215 0 l 225 287 l 104 287 l 104 338 l 229 338 l 240 678 l 104 678 l 104 730 l 242 730 l 253 1010 l 306 1010 l 295 730 l 461 730 l 471 1010 l 523 1010 l 513 730 l 635 730 l 635 678 l 510 678 l 499 338 l 635 338 l 635 287 l 495 287 l 485 0 l 433 0 z "},"%":{"ha":739,"x_min":88,"x_max":655,"o":"m 222 566 q 128 610 164 566 q 92 749 92 655 l 92 850 q 128 990 92 944 q 222 1035 164 1035 q 316 990 280 1035 q 352 850 352 944 l 352 749 q 316 610 352 655 q 222 566 280 566 m 222 612 q 278 644 258 612 q 299 746 299 676 l 299 852 q 278 955 299 922 q 222 989 258 989 q 166 955 187 989 q 145 852 145 922 l 145 746 q 166 644 145 676 q 222 612 187 612 m 88 197 l 619 865 l 655 822 l 124 154 l 88 197 m 518 -28 q 422 17 458 -28 q 386 155 386 62 l 386 256 q 423 396 386 351 q 518 442 460 442 q 611 396 576 442 q 646 256 646 351 l 646 155 q 611 17 646 62 q 518 -28 576 -28 m 518 19 q 573 51 553 19 q 593 153 593 82 l 593 259 q 573 362 593 328 q 518 395 553 395 q 460 362 481 395 q 439 259 439 328 l 439 153 q 460 51 439 82 q 518 19 481 19 z "},"‰":{"ha":739,"x_min":61,"x_max":679,"o":"m 203 566 q 122 607 153 566 q 91 736 91 649 l 91 862 q 122 992 91 949 q 203 1035 153 1035 q 285 992 254 1035 q 316 862 316 949 l 316 736 q 285 607 316 649 q 203 566 254 566 m 146 734 q 162 641 146 670 q 203 612 177 612 q 246 641 231 612 q 260 734 260 670 l 260 865 q 246 958 260 928 q 203 989 231 989 q 162 958 177 989 q 146 865 146 928 l 146 734 m 626 822 l 95 154 l 61 197 l 591 865 l 626 822 m 581 -28 q 536 -10 556 -28 q 505 45 516 8 q 472 -10 492 8 q 428 -28 452 -28 q 356 14 384 -28 q 328 143 328 56 l 328 269 q 356 399 328 356 q 428 442 384 442 q 473 424 453 442 q 505 367 492 405 q 537 424 516 405 q 581 442 557 442 q 653 399 626 442 q 679 269 679 356 l 679 143 q 652 14 679 56 q 581 -28 625 -28 m 383 141 q 395 49 383 77 q 431 20 408 20 q 465 49 453 20 q 477 141 477 77 l 477 270 q 465 364 477 335 q 431 394 453 394 q 395 364 408 394 q 383 270 383 335 l 383 141 m 532 141 q 544 49 532 77 q 580 20 557 20 q 614 49 602 20 q 626 141 626 77 l 626 270 q 614 364 626 335 q 580 394 602 394 q 544 364 557 394 q 532 270 532 335 l 532 141 z "},"'":{"ha":739,"x_min":323,"x_max":415,"o":"m 343 573 l 323 1010 l 415 1010 l 395 573 l 343 573 z "},"\"":{"ha":739,"x_min":181,"x_max":558,"o":"m 486 573 l 465 1010 l 558 1010 l 537 573 l 486 573 m 202 573 l 181 1010 l 274 1010 l 253 573 l 202 573 z "},"ʻ":{"ha":739,"x_min":273,"x_max":499,"o":"m 273 573 l 448 1010 l 499 1010 l 388 573 l 273 573 z "},"‘":{"ha":739,"x_min":273,"x_max":499,"o":"m 273 573 l 448 1010 l 499 1010 l 388 573 l 273 573 z "},"’":{"ha":739,"x_min":240,"x_max":466,"o":"m 240 573 l 351 1010 l 466 1010 l 290 573 l 240 573 z "},"“":{"ha":739,"x_min":130,"x_max":631,"o":"m 414 573 l 583 1010 l 631 1010 l 520 573 l 414 573 m 130 573 l 299 1010 l 347 1010 l 236 573 l 130 573 z "},"”":{"ha":739,"x_min":107,"x_max":609,"o":"m 391 573 l 503 1010 l 609 1010 l 439 573 l 391 573 m 107 573 l 218 1010 l 324 1010 l 155 573 l 107 573 z "},"‛":{"ha":739,"x_min":261,"x_max":489,"o":"m 261 573 m 438 573 l 261 1010 l 378 1010 l 489 573 l 438 573 z "},"‚":{"ha":739,"x_min":261,"x_max":484,"o":"m 261 0 m 261 -253 l 369 184 l 484 184 l 311 -253 l 261 -253 z "},"„":{"ha":739,"x_min":112,"x_max":614,"o":"m 112 0 m 396 -205 l 508 232 l 614 232 l 444 -205 l 396 -205 m 112 -205 l 223 232 l 330 232 l 160 -205 l 112 -205 z "},"‹":{"ha":739,"x_min":227,"x_max":511,"o":"m 511 154 l 227 434 l 227 449 l 511 730 l 511 665 l 284 442 l 511 218 l 511 154 z "},"›":{"ha":739,"x_min":227,"x_max":511,"o":"m 227 154 l 227 218 l 455 442 l 227 665 l 227 730 l 511 449 l 511 434 l 227 154 z "},"«":{"ha":739,"x_min":81,"x_max":649,"o":"m 649 154 l 365 434 l 365 449 l 649 730 l 649 665 l 422 442 l 649 218 l 649 154 m 365 154 l 81 434 l 81 449 l 365 730 l 365 665 l 138 442 l 365 218 l 365 154 z "},"»":{"ha":739,"x_min":81,"x_max":649,"o":"m 81 154 l 81 218 l 307 442 l 81 665 l 81 730 l 365 449 l 365 434 l 81 154 m 365 154 l 365 218 l 591 442 l 365 665 l 365 730 l 649 449 l 649 434 l 365 154 z "},"*":{"ha":739,"x_min":125,"x_max":612,"o":"m 580 457 l 385 644 l 402 335 l 336 335 l 351 643 l 158 457 l 125 509 l 338 674 l 125 840 l 158 891 l 351 703 l 336 1010 l 402 1010 l 385 702 l 580 891 l 612 840 l 399 674 l 612 509 l 580 457 z "},"†":{"ha":739,"x_min":131,"x_max":606,"o":"m 340 -253 l 340 706 l 208 706 l 178 379 l 131 379 l 160 758 l 341 758 l 333 1010 l 404 1010 l 396 758 l 577 758 l 606 379 l 559 379 l 529 706 l 398 706 l 398 -253 l 340 -253 z "},"‡":{"ha":739,"x_min":131,"x_max":606,"o":"m 331 -253 l 337 0 l 160 0 l 131 290 l 178 290 l 208 52 l 340 52 l 340 706 l 208 706 l 178 467 l 131 467 l 160 758 l 341 758 l 333 1010 l 404 1010 l 396 758 l 577 758 l 606 467 l 559 467 l 529 706 l 398 706 l 398 52 l 529 52 l 559 290 l 606 290 l 577 0 l 400 0 l 407 -253 l 331 -253 z "},".":{"ha":739,"x_min":301,"x_max":438,"o":"m 370 -13 q 319 3 338 -13 q 301 51 301 19 l 301 86 q 319 137 301 121 q 370 153 338 153 q 420 137 402 153 q 438 86 438 121 l 438 51 q 419 3 438 19 q 370 -13 400 -13 z "},",":{"ha":739,"x_min":242,"x_max":465,"o":"m 242 -253 l 350 184 l 465 184 l 292 -253 l 242 -253 z "},":":{"ha":739,"x_min":301,"x_max":438,"o":"m 370 596 q 319 612 338 596 q 301 662 301 628 l 301 694 q 319 746 301 730 q 370 761 338 761 q 420 746 402 761 q 438 694 438 730 l 438 662 q 419 612 438 628 q 370 596 400 596 m 370 -13 q 319 3 338 -13 q 301 52 301 19 l 301 85 q 319 136 301 120 q 370 153 338 153 q 420 136 402 153 q 438 85 438 120 l 438 52 q 419 3 438 19 q 370 -13 400 -13 z "},";":{"ha":739,"x_min":242,"x_max":465,"o":"m 370 596 q 319 612 338 596 q 301 660 301 628 l 301 694 q 319 746 301 730 q 370 761 338 761 q 420 746 402 761 q 438 694 438 730 l 438 660 q 419 612 438 628 q 370 596 400 596 m 242 -253 l 350 184 l 465 184 l 292 -253 l 242 -253 z "},"…":{"ha":739,"x_min":90,"x_max":648,"o":"m 596 -13 q 557 3 572 -13 q 543 52 543 19 l 543 86 q 557 137 543 121 q 596 153 572 153 q 634 137 620 153 q 648 86 648 121 l 648 52 q 633 3 648 19 q 596 -13 619 -13 m 370 -13 q 331 3 346 -13 q 316 52 316 19 l 316 86 q 331 137 316 121 q 370 153 346 153 q 408 137 394 153 q 422 86 422 121 l 422 52 q 407 3 422 19 q 370 -13 393 -13 m 143 -13 q 104 3 119 -13 q 90 52 90 19 l 90 86 q 104 137 90 121 q 143 153 119 153 q 181 137 167 153 q 194 86 194 121 l 194 52 q 180 3 194 19 q 143 -13 165 -13 z "},"!":{"ha":739,"x_min":302,"x_max":438,"o":"m 346 379 l 332 1010 l 407 1010 l 393 379 l 346 379 m 370 -13 q 320 3 338 -13 q 302 52 302 19 l 302 85 q 320 136 302 120 q 370 153 338 153 q 420 136 403 153 q 438 85 438 120 l 438 52 q 420 3 438 19 q 370 -13 402 -13 z "},"¡":{"ha":739,"x_min":302,"x_max":438,"o":"m 370 1021 q 420 1005 402 1021 q 438 953 438 989 l 438 920 q 420 872 438 888 q 370 856 402 856 q 320 872 338 856 q 302 920 302 888 l 302 953 q 320 1005 302 989 q 370 1021 338 1021 m 394 631 l 408 0 l 333 0 l 347 631 l 394 631 z "},"‼":{"ha":739,"x_min":168,"x_max":572,"o":"m 479 379 l 465 1010 l 539 1010 l 525 379 l 479 379 m 213 379 l 199 1010 l 274 1010 l 260 379 l 213 379 m 503 -13 q 451 3 470 -13 q 433 52 433 19 l 433 85 q 451 136 433 120 q 503 153 470 153 q 554 136 537 153 q 572 85 572 120 l 572 52 q 554 3 572 19 q 503 -13 535 -13 m 237 -13 q 186 3 205 -13 q 168 52 168 19 l 168 85 q 186 136 168 120 q 237 153 205 153 q 289 136 271 153 q 307 85 307 120 l 307 52 q 289 3 307 19 q 237 -13 270 -13 z "},"?":{"ha":739,"x_min":104,"x_max":625,"o":"m 293 395 l 282 441 q 503 533 438 473 q 567 697 567 592 l 567 735 q 523 917 567 864 q 369 971 479 971 q 210 922 251 971 q 160 735 169 874 l 104 740 q 167 961 109 899 q 367 1023 225 1023 q 562 955 499 1023 q 625 750 625 888 l 625 692 q 549 500 625 567 q 293 395 473 433 m 323 -13 q 273 3 292 -13 q 255 52 255 19 l 255 85 q 273 136 255 120 q 323 153 292 153 q 373 136 355 153 q 391 85 391 120 l 391 52 q 372 3 391 19 q 323 -13 354 -13 z "},"¿":{"ha":739,"x_min":112,"x_max":634,"o":"m 414 1023 q 464 1007 446 1023 q 482 958 482 991 l 482 926 q 464 874 482 890 q 414 857 446 857 q 364 874 383 857 q 346 926 346 890 l 346 958 q 365 1007 346 991 q 414 1023 384 1023 m 444 615 l 456 569 q 235 477 299 537 q 170 313 170 418 l 170 275 q 215 93 170 146 q 369 39 259 39 q 527 88 486 39 q 577 275 568 136 l 634 270 q 571 49 629 111 q 370 -13 513 -13 q 176 55 239 -13 q 112 260 112 122 l 112 318 q 188 511 112 444 q 444 615 264 577 z "},"/":{"ha":739,"x_min":152,"x_max":587,"o":"m 152 -253 l 530 1010 l 587 1010 l 208 -253 l 152 -253 z "},"\\":{"ha":739,"x_min":152,"x_max":587,"o":"m 530 -253 l 152 1010 l 208 1010 l 587 -253 l 530 -253 z "},"⁄":{"ha":739,"x_min":152,"x_max":588,"o":"m 152 0 l 530 1010 l 588 1010 l 210 0 l 152 0 z "},"∕":{"ha":739,"x_min":152,"x_max":588,"o":"m 152 0 l 530 1010 l 588 1010 l 210 0 l 152 0 z "},"|":{"ha":739,"x_min":345,"x_max":394,"o":"m 345 -253 l 345 1010 l 394 1010 l 394 -253 l 345 -253 z "},"¦":{"ha":739,"x_min":345,"x_max":394,"o":"m 345 505 l 345 1010 l 394 1010 l 394 505 l 345 505 m 345 -253 l 345 253 l 394 253 l 394 -253 l 345 -253 z "},"@":{"ha":739,"x_min":136,"x_max":596,"o":"m 413 -139 q 206 -51 275 -139 q 136 213 136 37 l 136 691 q 195 940 136 857 q 371 1023 254 1023 q 540 937 484 1023 q 596 678 596 851 l 596 331 q 556 189 596 240 q 451 139 515 139 q 351 189 386 139 q 316 331 316 240 l 316 533 q 352 678 316 624 q 444 732 389 732 q 504 711 481 732 q 537 660 527 691 l 547 660 q 504 901 547 824 q 370 977 461 977 q 229 909 273 977 q 184 691 184 841 l 184 213 q 240 -20 184 56 q 413 -95 295 -95 q 506 -83 463 -95 q 585 -57 548 -72 l 585 -101 q 499 -128 543 -117 q 413 -139 455 -139 m 455 192 q 523 227 500 192 q 547 333 547 263 l 547 525 q 523 641 547 602 q 455 679 500 679 q 386 641 409 679 q 364 527 364 602 l 364 333 q 386 229 364 265 q 455 192 409 192 z "},"&":{"ha":739,"x_min":86,"x_max":691,"o":"m 677 -8 q 571 70 624 32 q 473 155 519 109 q 381 31 434 74 q 268 -13 327 -13 q 133 56 179 -13 q 86 254 86 125 q 121 417 86 345 q 225 543 155 489 q 188 679 199 615 q 177 783 177 742 q 223 958 177 891 q 345 1024 269 1024 q 457 967 415 1024 q 499 822 499 910 q 445 663 499 731 q 289 528 391 595 q 313 473 299 504 q 343 412 327 443 q 400 314 370 362 q 465 223 429 266 q 518 350 494 285 q 567 484 543 415 l 611 462 q 556 326 585 394 q 495 192 527 258 l 691 42 l 677 -8 m 235 785 q 244 679 235 735 q 270 564 254 622 q 400 681 354 616 q 446 821 446 746 q 418 928 446 885 q 345 971 390 971 q 263 922 290 971 q 235 785 235 872 m 277 39 q 360 73 316 39 q 438 179 404 107 q 366 276 403 221 q 299 393 330 331 q 270 449 284 420 q 244 505 256 477 q 169 398 193 462 q 144 253 144 335 q 178 94 144 149 q 277 39 212 39 z "}}}
